<?xml version="1.0" encoding="utf-8" standalone="no"?>
<!DOCTYPE svg PUBLIC "-//W3C//DTD SVG 1.1//EN"
  "http://www.w3.org/Graphics/SVG/1.1/DTD/svg11.dtd">
<!-- Created with matplotlib (https://matplotlib.org/) -->
<svg height="576pt" version="1.1" viewBox="0 0 720 576" width="720pt" xmlns="http://www.w3.org/2000/svg" xmlns:xlink="http://www.w3.org/1999/xlink">
 <metadata>
  <rdf:RDF xmlns:cc="http://creativecommons.org/ns#" xmlns:dc="http://purl.org/dc/elements/1.1/" xmlns:rdf="http://www.w3.org/1999/02/22-rdf-syntax-ns#">
   <cc:Work>
    <dc:type rdf:resource="http://purl.org/dc/dcmitype/StillImage"/>
    <dc:date>2020-09-10T22:39:09.713171</dc:date>
    <dc:format>image/svg+xml</dc:format>
    <dc:creator>
     <cc:Agent>
      <dc:title>Matplotlib v3.3.1, https://matplotlib.org/</dc:title>
     </cc:Agent>
    </dc:creator>
   </cc:Work>
  </rdf:RDF>
 </metadata>
 <defs>
  <style type="text/css">*{stroke-linecap:butt;stroke-linejoin:round;}</style>
 </defs>
 <g id="figure_1">
  <g id="patch_1">
   <path d="M 0 576 
L 720 576 
L 720 0 
L 0 0 
z
" style="fill:#ffffff;"/>
  </g>
  <g id="axes_1">
   <g id="patch_2">
    <path d="M 90 512.64 
L 648 512.64 
L 648 69.12 
L 90 69.12 
z
" style="fill:#ffffff;"/>
   </g>
   <g id="PathCollection_1">
    <defs>
     <path d="M 0 3 
C 0.795609 3 1.55874 2.683901 2.12132 2.12132 
C 2.683901 1.55874 3 0.795609 3 0 
C 3 -0.795609 2.683901 -1.55874 2.12132 -2.12132 
C 1.55874 -2.683901 0.795609 -3 0 -3 
C -0.795609 -3 -1.55874 -2.683901 -2.12132 -2.12132 
C -2.683901 -1.55874 -3 -0.795609 -3 0 
C -3 0.795609 -2.683901 1.55874 -2.12132 2.12132 
C -1.55874 2.683901 -0.795609 3 0 3 
z
" id="m3130fc4475" style="stroke:#1f77b4;"/>
    </defs>
    <g clip-path="url(#p520440a30c)">
     <use style="fill:#1f77b4;stroke:#1f77b4;" x="622.636364" xlink:href="#m3130fc4475" y="89.28"/>
     <use style="fill:#1f77b4;stroke:#1f77b4;" x="586.402597" xlink:href="#m3130fc4475" y="90.899277"/>
     <use style="fill:#1f77b4;stroke:#1f77b4;" x="550.168831" xlink:href="#m3130fc4475" y="92.518554"/>
     <use style="fill:#1f77b4;stroke:#1f77b4;" x="513.935065" xlink:href="#m3130fc4475" y="94.137831"/>
     <use style="fill:#1f77b4;stroke:#1f77b4;" x="513.935065" xlink:href="#m3130fc4475" y="95.757108"/>
     <use style="fill:#1f77b4;stroke:#1f77b4;" x="550.168831" xlink:href="#m3130fc4475" y="97.376386"/>
     <use style="fill:#1f77b4;stroke:#1f77b4;" x="513.935065" xlink:href="#m3130fc4475" y="98.995663"/>
     <use style="fill:#1f77b4;stroke:#1f77b4;" x="550.168831" xlink:href="#m3130fc4475" y="100.61494"/>
     <use style="fill:#1f77b4;stroke:#1f77b4;" x="477.701299" xlink:href="#m3130fc4475" y="102.234217"/>
     <use style="fill:#1f77b4;stroke:#1f77b4;" x="513.935065" xlink:href="#m3130fc4475" y="103.853494"/>
     <use style="fill:#1f77b4;stroke:#1f77b4;" x="477.701299" xlink:href="#m3130fc4475" y="105.472771"/>
     <use style="fill:#1f77b4;stroke:#1f77b4;" x="477.701299" xlink:href="#m3130fc4475" y="107.092048"/>
     <use style="fill:#1f77b4;stroke:#1f77b4;" x="477.701299" xlink:href="#m3130fc4475" y="108.711325"/>
     <use style="fill:#1f77b4;stroke:#1f77b4;" x="441.467532" xlink:href="#m3130fc4475" y="110.330602"/>
     <use style="fill:#1f77b4;stroke:#1f77b4;" x="477.701299" xlink:href="#m3130fc4475" y="111.94988"/>
     <use style="fill:#1f77b4;stroke:#1f77b4;" x="477.701299" xlink:href="#m3130fc4475" y="113.569157"/>
     <use style="fill:#1f77b4;stroke:#1f77b4;" x="441.467532" xlink:href="#m3130fc4475" y="115.188434"/>
     <use style="fill:#1f77b4;stroke:#1f77b4;" x="477.701299" xlink:href="#m3130fc4475" y="116.807711"/>
     <use style="fill:#1f77b4;stroke:#1f77b4;" x="441.467532" xlink:href="#m3130fc4475" y="118.426988"/>
     <use style="fill:#1f77b4;stroke:#1f77b4;" x="441.467532" xlink:href="#m3130fc4475" y="120.046265"/>
     <use style="fill:#1f77b4;stroke:#1f77b4;" x="441.467532" xlink:href="#m3130fc4475" y="121.665542"/>
     <use style="fill:#1f77b4;stroke:#1f77b4;" x="477.701299" xlink:href="#m3130fc4475" y="123.284819"/>
     <use style="fill:#1f77b4;stroke:#1f77b4;" x="405.233766" xlink:href="#m3130fc4475" y="124.904096"/>
     <use style="fill:#1f77b4;stroke:#1f77b4;" x="405.233766" xlink:href="#m3130fc4475" y="126.523373"/>
     <use style="fill:#1f77b4;stroke:#1f77b4;" x="441.467532" xlink:href="#m3130fc4475" y="128.142651"/>
     <use style="fill:#1f77b4;stroke:#1f77b4;" x="586.402597" xlink:href="#m3130fc4475" y="129.761928"/>
     <use style="fill:#1f77b4;stroke:#1f77b4;" x="441.467532" xlink:href="#m3130fc4475" y="131.381205"/>
     <use style="fill:#1f77b4;stroke:#1f77b4;" x="477.701299" xlink:href="#m3130fc4475" y="133.000482"/>
     <use style="fill:#1f77b4;stroke:#1f77b4;" x="477.701299" xlink:href="#m3130fc4475" y="134.619759"/>
     <use style="fill:#1f77b4;stroke:#1f77b4;" x="405.233766" xlink:href="#m3130fc4475" y="136.239036"/>
     <use style="fill:#1f77b4;stroke:#1f77b4;" x="477.701299" xlink:href="#m3130fc4475" y="137.858313"/>
     <use style="fill:#1f77b4;stroke:#1f77b4;" x="405.233766" xlink:href="#m3130fc4475" y="139.47759"/>
     <use style="fill:#1f77b4;stroke:#1f77b4;" x="441.467532" xlink:href="#m3130fc4475" y="141.096867"/>
     <use style="fill:#1f77b4;stroke:#1f77b4;" x="369" xlink:href="#m3130fc4475" y="142.716145"/>
     <use style="fill:#1f77b4;stroke:#1f77b4;" x="369" xlink:href="#m3130fc4475" y="144.335422"/>
     <use style="fill:#1f77b4;stroke:#1f77b4;" x="405.233766" xlink:href="#m3130fc4475" y="145.954699"/>
     <use style="fill:#1f77b4;stroke:#1f77b4;" x="513.935065" xlink:href="#m3130fc4475" y="147.573976"/>
     <use style="fill:#1f77b4;stroke:#1f77b4;" x="477.701299" xlink:href="#m3130fc4475" y="149.193253"/>
     <use style="fill:#1f77b4;stroke:#1f77b4;" x="477.701299" xlink:href="#m3130fc4475" y="150.81253"/>
     <use style="fill:#1f77b4;stroke:#1f77b4;" x="405.233766" xlink:href="#m3130fc4475" y="152.431807"/>
     <use style="fill:#1f77b4;stroke:#1f77b4;" x="405.233766" xlink:href="#m3130fc4475" y="154.051084"/>
     <use style="fill:#1f77b4;stroke:#1f77b4;" x="405.233766" xlink:href="#m3130fc4475" y="155.670361"/>
     <use style="fill:#1f77b4;stroke:#1f77b4;" x="369" xlink:href="#m3130fc4475" y="157.289639"/>
     <use style="fill:#1f77b4;stroke:#1f77b4;" x="441.467532" xlink:href="#m3130fc4475" y="158.908916"/>
     <use style="fill:#1f77b4;stroke:#1f77b4;" x="369" xlink:href="#m3130fc4475" y="160.528193"/>
     <use style="fill:#1f77b4;stroke:#1f77b4;" x="405.233766" xlink:href="#m3130fc4475" y="162.14747"/>
     <use style="fill:#1f77b4;stroke:#1f77b4;" x="369" xlink:href="#m3130fc4475" y="163.766747"/>
     <use style="fill:#1f77b4;stroke:#1f77b4;" x="441.467532" xlink:href="#m3130fc4475" y="165.386024"/>
     <use style="fill:#1f77b4;stroke:#1f77b4;" x="369" xlink:href="#m3130fc4475" y="167.005301"/>
     <use style="fill:#1f77b4;stroke:#1f77b4;" x="441.467532" xlink:href="#m3130fc4475" y="168.624578"/>
     <use style="fill:#1f77b4;stroke:#1f77b4;" x="477.701299" xlink:href="#m3130fc4475" y="170.243855"/>
     <use style="fill:#1f77b4;stroke:#1f77b4;" x="369" xlink:href="#m3130fc4475" y="171.863133"/>
     <use style="fill:#1f77b4;stroke:#1f77b4;" x="405.233766" xlink:href="#m3130fc4475" y="173.48241"/>
     <use style="fill:#1f77b4;stroke:#1f77b4;" x="405.233766" xlink:href="#m3130fc4475" y="175.101687"/>
     <use style="fill:#1f77b4;stroke:#1f77b4;" x="369" xlink:href="#m3130fc4475" y="176.720964"/>
     <use style="fill:#1f77b4;stroke:#1f77b4;" x="405.233766" xlink:href="#m3130fc4475" y="178.340241"/>
     <use style="fill:#1f77b4;stroke:#1f77b4;" x="441.467532" xlink:href="#m3130fc4475" y="179.959518"/>
     <use style="fill:#1f77b4;stroke:#1f77b4;" x="369" xlink:href="#m3130fc4475" y="181.578795"/>
     <use style="fill:#1f77b4;stroke:#1f77b4;" x="369" xlink:href="#m3130fc4475" y="183.198072"/>
     <use style="fill:#1f77b4;stroke:#1f77b4;" x="369" xlink:href="#m3130fc4475" y="184.817349"/>
     <use style="fill:#1f77b4;stroke:#1f77b4;" x="405.233766" xlink:href="#m3130fc4475" y="186.436627"/>
     <use style="fill:#1f77b4;stroke:#1f77b4;" x="405.233766" xlink:href="#m3130fc4475" y="188.055904"/>
     <use style="fill:#1f77b4;stroke:#1f77b4;" x="405.233766" xlink:href="#m3130fc4475" y="189.675181"/>
     <use style="fill:#1f77b4;stroke:#1f77b4;" x="296.532468" xlink:href="#m3130fc4475" y="191.294458"/>
     <use style="fill:#1f77b4;stroke:#1f77b4;" x="332.766234" xlink:href="#m3130fc4475" y="192.913735"/>
     <use style="fill:#1f77b4;stroke:#1f77b4;" x="332.766234" xlink:href="#m3130fc4475" y="194.533012"/>
     <use style="fill:#1f77b4;stroke:#1f77b4;" x="296.532468" xlink:href="#m3130fc4475" y="196.152289"/>
     <use style="fill:#1f77b4;stroke:#1f77b4;" x="332.766234" xlink:href="#m3130fc4475" y="197.771566"/>
     <use style="fill:#1f77b4;stroke:#1f77b4;" x="369" xlink:href="#m3130fc4475" y="199.390843"/>
     <use style="fill:#1f77b4;stroke:#1f77b4;" x="441.467532" xlink:href="#m3130fc4475" y="201.01012"/>
     <use style="fill:#1f77b4;stroke:#1f77b4;" x="441.467532" xlink:href="#m3130fc4475" y="202.629398"/>
     <use style="fill:#1f77b4;stroke:#1f77b4;" x="405.233766" xlink:href="#m3130fc4475" y="204.248675"/>
     <use style="fill:#1f77b4;stroke:#1f77b4;" x="332.766234" xlink:href="#m3130fc4475" y="205.867952"/>
     <use style="fill:#1f77b4;stroke:#1f77b4;" x="477.701299" xlink:href="#m3130fc4475" y="207.487229"/>
     <use style="fill:#1f77b4;stroke:#1f77b4;" x="369" xlink:href="#m3130fc4475" y="209.106506"/>
     <use style="fill:#1f77b4;stroke:#1f77b4;" x="441.467532" xlink:href="#m3130fc4475" y="210.725783"/>
     <use style="fill:#1f77b4;stroke:#1f77b4;" x="332.766234" xlink:href="#m3130fc4475" y="212.34506"/>
     <use style="fill:#1f77b4;stroke:#1f77b4;" x="332.766234" xlink:href="#m3130fc4475" y="213.964337"/>
     <use style="fill:#1f77b4;stroke:#1f77b4;" x="296.532468" xlink:href="#m3130fc4475" y="215.583614"/>
     <use style="fill:#1f77b4;stroke:#1f77b4;" x="296.532468" xlink:href="#m3130fc4475" y="217.202892"/>
     <use style="fill:#1f77b4;stroke:#1f77b4;" x="296.532468" xlink:href="#m3130fc4475" y="218.822169"/>
     <use style="fill:#1f77b4;stroke:#1f77b4;" x="296.532468" xlink:href="#m3130fc4475" y="220.441446"/>
     <use style="fill:#1f77b4;stroke:#1f77b4;" x="332.766234" xlink:href="#m3130fc4475" y="222.060723"/>
     <use style="fill:#1f77b4;stroke:#1f77b4;" x="332.766234" xlink:href="#m3130fc4475" y="223.68"/>
     <use style="fill:#1f77b4;stroke:#1f77b4;" x="296.532468" xlink:href="#m3130fc4475" y="225.299277"/>
     <use style="fill:#1f77b4;stroke:#1f77b4;" x="332.766234" xlink:href="#m3130fc4475" y="226.918554"/>
     <use style="fill:#1f77b4;stroke:#1f77b4;" x="477.701299" xlink:href="#m3130fc4475" y="228.537831"/>
     <use style="fill:#1f77b4;stroke:#1f77b4;" x="260.298701" xlink:href="#m3130fc4475" y="230.157108"/>
     <use style="fill:#1f77b4;stroke:#1f77b4;" x="260.298701" xlink:href="#m3130fc4475" y="231.776386"/>
     <use style="fill:#1f77b4;stroke:#1f77b4;" x="332.766234" xlink:href="#m3130fc4475" y="233.395663"/>
     <use style="fill:#1f77b4;stroke:#1f77b4;" x="260.298701" xlink:href="#m3130fc4475" y="235.01494"/>
     <use style="fill:#1f77b4;stroke:#1f77b4;" x="332.766234" xlink:href="#m3130fc4475" y="236.634217"/>
     <use style="fill:#1f77b4;stroke:#1f77b4;" x="296.532468" xlink:href="#m3130fc4475" y="238.253494"/>
     <use style="fill:#1f77b4;stroke:#1f77b4;" x="296.532468" xlink:href="#m3130fc4475" y="239.872771"/>
     <use style="fill:#1f77b4;stroke:#1f77b4;" x="260.298701" xlink:href="#m3130fc4475" y="241.492048"/>
     <use style="fill:#1f77b4;stroke:#1f77b4;" x="296.532468" xlink:href="#m3130fc4475" y="243.111325"/>
     <use style="fill:#1f77b4;stroke:#1f77b4;" x="296.532468" xlink:href="#m3130fc4475" y="244.730602"/>
     <use style="fill:#1f77b4;stroke:#1f77b4;" x="405.233766" xlink:href="#m3130fc4475" y="246.34988"/>
     <use style="fill:#1f77b4;stroke:#1f77b4;" x="332.766234" xlink:href="#m3130fc4475" y="247.969157"/>
     <use style="fill:#1f77b4;stroke:#1f77b4;" x="332.766234" xlink:href="#m3130fc4475" y="249.588434"/>
     <use style="fill:#1f77b4;stroke:#1f77b4;" x="332.766234" xlink:href="#m3130fc4475" y="251.207711"/>
     <use style="fill:#1f77b4;stroke:#1f77b4;" x="296.532468" xlink:href="#m3130fc4475" y="252.826988"/>
     <use style="fill:#1f77b4;stroke:#1f77b4;" x="369" xlink:href="#m3130fc4475" y="254.446265"/>
     <use style="fill:#1f77b4;stroke:#1f77b4;" x="332.766234" xlink:href="#m3130fc4475" y="256.065542"/>
     <use style="fill:#1f77b4;stroke:#1f77b4;" x="260.298701" xlink:href="#m3130fc4475" y="257.684819"/>
     <use style="fill:#1f77b4;stroke:#1f77b4;" x="369" xlink:href="#m3130fc4475" y="259.304096"/>
     <use style="fill:#1f77b4;stroke:#1f77b4;" x="296.532468" xlink:href="#m3130fc4475" y="260.923373"/>
     <use style="fill:#1f77b4;stroke:#1f77b4;" x="369" xlink:href="#m3130fc4475" y="262.542651"/>
     <use style="fill:#1f77b4;stroke:#1f77b4;" x="260.298701" xlink:href="#m3130fc4475" y="264.161928"/>
     <use style="fill:#1f77b4;stroke:#1f77b4;" x="296.532468" xlink:href="#m3130fc4475" y="265.781205"/>
     <use style="fill:#1f77b4;stroke:#1f77b4;" x="369" xlink:href="#m3130fc4475" y="267.400482"/>
     <use style="fill:#1f77b4;stroke:#1f77b4;" x="224.064935" xlink:href="#m3130fc4475" y="269.019759"/>
     <use style="fill:#1f77b4;stroke:#1f77b4;" x="332.766234" xlink:href="#m3130fc4475" y="270.639036"/>
     <use style="fill:#1f77b4;stroke:#1f77b4;" x="296.532468" xlink:href="#m3130fc4475" y="272.258313"/>
     <use style="fill:#1f77b4;stroke:#1f77b4;" x="332.766234" xlink:href="#m3130fc4475" y="273.87759"/>
     <use style="fill:#1f77b4;stroke:#1f77b4;" x="260.298701" xlink:href="#m3130fc4475" y="275.496867"/>
     <use style="fill:#1f77b4;stroke:#1f77b4;" x="332.766234" xlink:href="#m3130fc4475" y="277.116145"/>
     <use style="fill:#1f77b4;stroke:#1f77b4;" x="405.233766" xlink:href="#m3130fc4475" y="278.735422"/>
     <use style="fill:#1f77b4;stroke:#1f77b4;" x="296.532468" xlink:href="#m3130fc4475" y="280.354699"/>
     <use style="fill:#1f77b4;stroke:#1f77b4;" x="260.298701" xlink:href="#m3130fc4475" y="281.973976"/>
     <use style="fill:#1f77b4;stroke:#1f77b4;" x="332.766234" xlink:href="#m3130fc4475" y="283.593253"/>
     <use style="fill:#1f77b4;stroke:#1f77b4;" x="260.298701" xlink:href="#m3130fc4475" y="285.21253"/>
     <use style="fill:#1f77b4;stroke:#1f77b4;" x="296.532468" xlink:href="#m3130fc4475" y="286.831807"/>
     <use style="fill:#1f77b4;stroke:#1f77b4;" x="296.532468" xlink:href="#m3130fc4475" y="288.451084"/>
     <use style="fill:#1f77b4;stroke:#1f77b4;" x="260.298701" xlink:href="#m3130fc4475" y="290.070361"/>
     <use style="fill:#1f77b4;stroke:#1f77b4;" x="296.532468" xlink:href="#m3130fc4475" y="291.689639"/>
     <use style="fill:#1f77b4;stroke:#1f77b4;" x="296.532468" xlink:href="#m3130fc4475" y="293.308916"/>
     <use style="fill:#1f77b4;stroke:#1f77b4;" x="260.298701" xlink:href="#m3130fc4475" y="294.928193"/>
     <use style="fill:#1f77b4;stroke:#1f77b4;" x="296.532468" xlink:href="#m3130fc4475" y="296.54747"/>
     <use style="fill:#1f77b4;stroke:#1f77b4;" x="296.532468" xlink:href="#m3130fc4475" y="298.166747"/>
     <use style="fill:#1f77b4;stroke:#1f77b4;" x="296.532468" xlink:href="#m3130fc4475" y="299.786024"/>
     <use style="fill:#1f77b4;stroke:#1f77b4;" x="405.233766" xlink:href="#m3130fc4475" y="301.405301"/>
     <use style="fill:#1f77b4;stroke:#1f77b4;" x="224.064935" xlink:href="#m3130fc4475" y="303.024578"/>
     <use style="fill:#1f77b4;stroke:#1f77b4;" x="550.168831" xlink:href="#m3130fc4475" y="304.643855"/>
     <use style="fill:#1f77b4;stroke:#1f77b4;" x="224.064935" xlink:href="#m3130fc4475" y="306.263133"/>
     <use style="fill:#1f77b4;stroke:#1f77b4;" x="260.298701" xlink:href="#m3130fc4475" y="307.88241"/>
     <use style="fill:#1f77b4;stroke:#1f77b4;" x="296.532468" xlink:href="#m3130fc4475" y="309.501687"/>
     <use style="fill:#1f77b4;stroke:#1f77b4;" x="441.467532" xlink:href="#m3130fc4475" y="311.120964"/>
     <use style="fill:#1f77b4;stroke:#1f77b4;" x="224.064935" xlink:href="#m3130fc4475" y="312.740241"/>
     <use style="fill:#1f77b4;stroke:#1f77b4;" x="260.298701" xlink:href="#m3130fc4475" y="314.359518"/>
     <use style="fill:#1f77b4;stroke:#1f77b4;" x="332.766234" xlink:href="#m3130fc4475" y="315.978795"/>
     <use style="fill:#1f77b4;stroke:#1f77b4;" x="260.298701" xlink:href="#m3130fc4475" y="317.598072"/>
     <use style="fill:#1f77b4;stroke:#1f77b4;" x="260.298701" xlink:href="#m3130fc4475" y="319.217349"/>
     <use style="fill:#1f77b4;stroke:#1f77b4;" x="332.766234" xlink:href="#m3130fc4475" y="320.836627"/>
     <use style="fill:#1f77b4;stroke:#1f77b4;" x="187.831169" xlink:href="#m3130fc4475" y="322.455904"/>
     <use style="fill:#1f77b4;stroke:#1f77b4;" x="260.298701" xlink:href="#m3130fc4475" y="324.075181"/>
     <use style="fill:#1f77b4;stroke:#1f77b4;" x="405.233766" xlink:href="#m3130fc4475" y="325.694458"/>
     <use style="fill:#1f77b4;stroke:#1f77b4;" x="260.298701" xlink:href="#m3130fc4475" y="327.313735"/>
     <use style="fill:#1f77b4;stroke:#1f77b4;" x="332.766234" xlink:href="#m3130fc4475" y="328.933012"/>
     <use style="fill:#1f77b4;stroke:#1f77b4;" x="441.467532" xlink:href="#m3130fc4475" y="330.552289"/>
     <use style="fill:#1f77b4;stroke:#1f77b4;" x="332.766234" xlink:href="#m3130fc4475" y="332.171566"/>
     <use style="fill:#1f77b4;stroke:#1f77b4;" x="260.298701" xlink:href="#m3130fc4475" y="333.790843"/>
     <use style="fill:#1f77b4;stroke:#1f77b4;" x="332.766234" xlink:href="#m3130fc4475" y="335.41012"/>
     <use style="fill:#1f77b4;stroke:#1f77b4;" x="296.532468" xlink:href="#m3130fc4475" y="337.029398"/>
     <use style="fill:#1f77b4;stroke:#1f77b4;" x="260.298701" xlink:href="#m3130fc4475" y="338.648675"/>
     <use style="fill:#1f77b4;stroke:#1f77b4;" x="224.064935" xlink:href="#m3130fc4475" y="340.267952"/>
     <use style="fill:#1f77b4;stroke:#1f77b4;" x="260.298701" xlink:href="#m3130fc4475" y="341.887229"/>
     <use style="fill:#1f77b4;stroke:#1f77b4;" x="296.532468" xlink:href="#m3130fc4475" y="343.506506"/>
     <use style="fill:#1f77b4;stroke:#1f77b4;" x="296.532468" xlink:href="#m3130fc4475" y="345.125783"/>
     <use style="fill:#1f77b4;stroke:#1f77b4;" x="260.298701" xlink:href="#m3130fc4475" y="346.74506"/>
     <use style="fill:#1f77b4;stroke:#1f77b4;" x="260.298701" xlink:href="#m3130fc4475" y="348.364337"/>
     <use style="fill:#1f77b4;stroke:#1f77b4;" x="260.298701" xlink:href="#m3130fc4475" y="349.983614"/>
     <use style="fill:#1f77b4;stroke:#1f77b4;" x="296.532468" xlink:href="#m3130fc4475" y="351.602892"/>
     <use style="fill:#1f77b4;stroke:#1f77b4;" x="332.766234" xlink:href="#m3130fc4475" y="353.222169"/>
     <use style="fill:#1f77b4;stroke:#1f77b4;" x="151.597403" xlink:href="#m3130fc4475" y="354.841446"/>
     <use style="fill:#1f77b4;stroke:#1f77b4;" x="224.064935" xlink:href="#m3130fc4475" y="356.460723"/>
     <use style="fill:#1f77b4;stroke:#1f77b4;" x="260.298701" xlink:href="#m3130fc4475" y="358.08"/>
     <use style="fill:#1f77b4;stroke:#1f77b4;" x="260.298701" xlink:href="#m3130fc4475" y="359.699277"/>
     <use style="fill:#1f77b4;stroke:#1f77b4;" x="296.532468" xlink:href="#m3130fc4475" y="361.318554"/>
     <use style="fill:#1f77b4;stroke:#1f77b4;" x="224.064935" xlink:href="#m3130fc4475" y="362.937831"/>
     <use style="fill:#1f77b4;stroke:#1f77b4;" x="224.064935" xlink:href="#m3130fc4475" y="364.557108"/>
     <use style="fill:#1f77b4;stroke:#1f77b4;" x="224.064935" xlink:href="#m3130fc4475" y="366.176386"/>
     <use style="fill:#1f77b4;stroke:#1f77b4;" x="260.298701" xlink:href="#m3130fc4475" y="367.795663"/>
     <use style="fill:#1f77b4;stroke:#1f77b4;" x="296.532468" xlink:href="#m3130fc4475" y="369.41494"/>
     <use style="fill:#1f77b4;stroke:#1f77b4;" x="260.298701" xlink:href="#m3130fc4475" y="371.034217"/>
     <use style="fill:#1f77b4;stroke:#1f77b4;" x="441.467532" xlink:href="#m3130fc4475" y="372.653494"/>
     <use style="fill:#1f77b4;stroke:#1f77b4;" x="369" xlink:href="#m3130fc4475" y="374.272771"/>
     <use style="fill:#1f77b4;stroke:#1f77b4;" x="224.064935" xlink:href="#m3130fc4475" y="375.892048"/>
     <use style="fill:#1f77b4;stroke:#1f77b4;" x="260.298701" xlink:href="#m3130fc4475" y="377.511325"/>
     <use style="fill:#1f77b4;stroke:#1f77b4;" x="296.532468" xlink:href="#m3130fc4475" y="379.130602"/>
     <use style="fill:#1f77b4;stroke:#1f77b4;" x="296.532468" xlink:href="#m3130fc4475" y="380.74988"/>
     <use style="fill:#1f77b4;stroke:#1f77b4;" x="332.766234" xlink:href="#m3130fc4475" y="382.369157"/>
     <use style="fill:#1f77b4;stroke:#1f77b4;" x="260.298701" xlink:href="#m3130fc4475" y="383.988434"/>
     <use style="fill:#1f77b4;stroke:#1f77b4;" x="260.298701" xlink:href="#m3130fc4475" y="385.607711"/>
     <use style="fill:#1f77b4;stroke:#1f77b4;" x="224.064935" xlink:href="#m3130fc4475" y="387.226988"/>
     <use style="fill:#1f77b4;stroke:#1f77b4;" x="369" xlink:href="#m3130fc4475" y="388.846265"/>
     <use style="fill:#1f77b4;stroke:#1f77b4;" x="187.831169" xlink:href="#m3130fc4475" y="390.465542"/>
     <use style="fill:#1f77b4;stroke:#1f77b4;" x="260.298701" xlink:href="#m3130fc4475" y="392.084819"/>
     <use style="fill:#1f77b4;stroke:#1f77b4;" x="260.298701" xlink:href="#m3130fc4475" y="393.704096"/>
     <use style="fill:#1f77b4;stroke:#1f77b4;" x="187.831169" xlink:href="#m3130fc4475" y="395.323373"/>
     <use style="fill:#1f77b4;stroke:#1f77b4;" x="224.064935" xlink:href="#m3130fc4475" y="396.942651"/>
     <use style="fill:#1f77b4;stroke:#1f77b4;" x="296.532468" xlink:href="#m3130fc4475" y="398.561928"/>
     <use style="fill:#1f77b4;stroke:#1f77b4;" x="224.064935" xlink:href="#m3130fc4475" y="400.181205"/>
     <use style="fill:#1f77b4;stroke:#1f77b4;" x="296.532468" xlink:href="#m3130fc4475" y="401.800482"/>
     <use style="fill:#1f77b4;stroke:#1f77b4;" x="224.064935" xlink:href="#m3130fc4475" y="403.419759"/>
     <use style="fill:#1f77b4;stroke:#1f77b4;" x="187.831169" xlink:href="#m3130fc4475" y="405.039036"/>
     <use style="fill:#1f77b4;stroke:#1f77b4;" x="369" xlink:href="#m3130fc4475" y="406.658313"/>
     <use style="fill:#1f77b4;stroke:#1f77b4;" x="332.766234" xlink:href="#m3130fc4475" y="408.27759"/>
     <use style="fill:#1f77b4;stroke:#1f77b4;" x="296.532468" xlink:href="#m3130fc4475" y="409.896867"/>
     <use style="fill:#1f77b4;stroke:#1f77b4;" x="224.064935" xlink:href="#m3130fc4475" y="411.516145"/>
     <use style="fill:#1f77b4;stroke:#1f77b4;" x="296.532468" xlink:href="#m3130fc4475" y="413.135422"/>
     <use style="fill:#1f77b4;stroke:#1f77b4;" x="260.298701" xlink:href="#m3130fc4475" y="414.754699"/>
     <use style="fill:#1f77b4;stroke:#1f77b4;" x="151.597403" xlink:href="#m3130fc4475" y="416.373976"/>
     <use style="fill:#1f77b4;stroke:#1f77b4;" x="296.532468" xlink:href="#m3130fc4475" y="417.993253"/>
     <use style="fill:#1f77b4;stroke:#1f77b4;" x="296.532468" xlink:href="#m3130fc4475" y="419.61253"/>
     <use style="fill:#1f77b4;stroke:#1f77b4;" x="296.532468" xlink:href="#m3130fc4475" y="421.231807"/>
     <use style="fill:#1f77b4;stroke:#1f77b4;" x="405.233766" xlink:href="#m3130fc4475" y="422.851084"/>
     <use style="fill:#1f77b4;stroke:#1f77b4;" x="477.701299" xlink:href="#m3130fc4475" y="424.470361"/>
     <use style="fill:#1f77b4;stroke:#1f77b4;" x="296.532468" xlink:href="#m3130fc4475" y="426.089639"/>
     <use style="fill:#1f77b4;stroke:#1f77b4;" x="296.532468" xlink:href="#m3130fc4475" y="427.708916"/>
     <use style="fill:#1f77b4;stroke:#1f77b4;" x="187.831169" xlink:href="#m3130fc4475" y="429.328193"/>
     <use style="fill:#1f77b4;stroke:#1f77b4;" x="224.064935" xlink:href="#m3130fc4475" y="430.94747"/>
     <use style="fill:#1f77b4;stroke:#1f77b4;" x="187.831169" xlink:href="#m3130fc4475" y="432.566747"/>
     <use style="fill:#1f77b4;stroke:#1f77b4;" x="224.064935" xlink:href="#m3130fc4475" y="434.186024"/>
     <use style="fill:#1f77b4;stroke:#1f77b4;" x="187.831169" xlink:href="#m3130fc4475" y="435.805301"/>
     <use style="fill:#1f77b4;stroke:#1f77b4;" x="187.831169" xlink:href="#m3130fc4475" y="437.424578"/>
     <use style="fill:#1f77b4;stroke:#1f77b4;" x="224.064935" xlink:href="#m3130fc4475" y="439.043855"/>
     <use style="fill:#1f77b4;stroke:#1f77b4;" x="187.831169" xlink:href="#m3130fc4475" y="440.663133"/>
     <use style="fill:#1f77b4;stroke:#1f77b4;" x="224.064935" xlink:href="#m3130fc4475" y="442.28241"/>
     <use style="fill:#1f77b4;stroke:#1f77b4;" x="187.831169" xlink:href="#m3130fc4475" y="443.901687"/>
     <use style="fill:#1f77b4;stroke:#1f77b4;" x="187.831169" xlink:href="#m3130fc4475" y="445.520964"/>
     <use style="fill:#1f77b4;stroke:#1f77b4;" x="260.298701" xlink:href="#m3130fc4475" y="447.140241"/>
     <use style="fill:#1f77b4;stroke:#1f77b4;" x="260.298701" xlink:href="#m3130fc4475" y="448.759518"/>
     <use style="fill:#1f77b4;stroke:#1f77b4;" x="260.298701" xlink:href="#m3130fc4475" y="450.378795"/>
     <use style="fill:#1f77b4;stroke:#1f77b4;" x="332.766234" xlink:href="#m3130fc4475" y="451.998072"/>
     <use style="fill:#1f77b4;stroke:#1f77b4;" x="187.831169" xlink:href="#m3130fc4475" y="453.617349"/>
     <use style="fill:#1f77b4;stroke:#1f77b4;" x="224.064935" xlink:href="#m3130fc4475" y="455.236627"/>
     <use style="fill:#1f77b4;stroke:#1f77b4;" x="296.532468" xlink:href="#m3130fc4475" y="456.855904"/>
     <use style="fill:#1f77b4;stroke:#1f77b4;" x="224.064935" xlink:href="#m3130fc4475" y="458.475181"/>
     <use style="fill:#1f77b4;stroke:#1f77b4;" x="224.064935" xlink:href="#m3130fc4475" y="460.094458"/>
     <use style="fill:#1f77b4;stroke:#1f77b4;" x="187.831169" xlink:href="#m3130fc4475" y="461.713735"/>
     <use style="fill:#1f77b4;stroke:#1f77b4;" x="260.298701" xlink:href="#m3130fc4475" y="463.333012"/>
     <use style="fill:#1f77b4;stroke:#1f77b4;" x="187.831169" xlink:href="#m3130fc4475" y="464.952289"/>
     <use style="fill:#1f77b4;stroke:#1f77b4;" x="224.064935" xlink:href="#m3130fc4475" y="466.571566"/>
     <use style="fill:#1f77b4;stroke:#1f77b4;" x="260.298701" xlink:href="#m3130fc4475" y="468.190843"/>
     <use style="fill:#1f77b4;stroke:#1f77b4;" x="151.597403" xlink:href="#m3130fc4475" y="469.81012"/>
     <use style="fill:#1f77b4;stroke:#1f77b4;" x="224.064935" xlink:href="#m3130fc4475" y="471.429398"/>
     <use style="fill:#1f77b4;stroke:#1f77b4;" x="441.467532" xlink:href="#m3130fc4475" y="473.048675"/>
     <use style="fill:#1f77b4;stroke:#1f77b4;" x="115.363636" xlink:href="#m3130fc4475" y="474.667952"/>
     <use style="fill:#1f77b4;stroke:#1f77b4;" x="296.532468" xlink:href="#m3130fc4475" y="476.287229"/>
     <use style="fill:#1f77b4;stroke:#1f77b4;" x="332.766234" xlink:href="#m3130fc4475" y="477.906506"/>
     <use style="fill:#1f77b4;stroke:#1f77b4;" x="296.532468" xlink:href="#m3130fc4475" y="479.525783"/>
     <use style="fill:#1f77b4;stroke:#1f77b4;" x="369" xlink:href="#m3130fc4475" y="481.14506"/>
     <use style="fill:#1f77b4;stroke:#1f77b4;" x="260.298701" xlink:href="#m3130fc4475" y="482.764337"/>
     <use style="fill:#1f77b4;stroke:#1f77b4;" x="260.298701" xlink:href="#m3130fc4475" y="484.383614"/>
     <use style="fill:#1f77b4;stroke:#1f77b4;" x="224.064935" xlink:href="#m3130fc4475" y="486.002892"/>
     <use style="fill:#1f77b4;stroke:#1f77b4;" x="224.064935" xlink:href="#m3130fc4475" y="487.622169"/>
     <use style="fill:#1f77b4;stroke:#1f77b4;" x="224.064935" xlink:href="#m3130fc4475" y="489.241446"/>
     <use style="fill:#1f77b4;stroke:#1f77b4;" x="332.766234" xlink:href="#m3130fc4475" y="490.860723"/>
     <use style="fill:#1f77b4;stroke:#1f77b4;" x="224.064935" xlink:href="#m3130fc4475" y="492.48"/>
    </g>
   </g>
   <g id="matplotlib.axis_1">
    <g id="xtick_1">
     <g id="line2d_1">
      <defs>
       <path d="M 0 0 
L 0 3.5 
" id="m4e869cc421" style="stroke:#000000;stroke-width:0.8;"/>
      </defs>
      <g>
       <use style="stroke:#000000;stroke-width:0.8;" x="151.597403" xlink:href="#m4e869cc421" y="512.64"/>
      </g>
     </g>
     <g id="text_1">
      <!-- 8.4 -->
      <g transform="translate(144.097403 526.515)scale(0.1 -0.1)">
       <defs>
        <path d="M 2.734375 16.796875 
Q 2.734375 26.171875 5.078125 30.65625 
Q 7.421875 35.15625 12.890625 37.890625 
Q 8.203125 40.625 6.640625 43.9375 
Q 5.078125 47.265625 4.875 51.5625 
Q 4.6875 55.859375 6.046875 58.984375 
Q 7.421875 62.109375 10.15625 64.84375 
Q 12.890625 67.578125 16.203125 68.546875 
Q 19.53125 69.53125 23.4375 69.53125 
Q 27.34375 69.53125 30.46875 68.75 
Q 33.59375 67.96875 37.109375 65.421875 
Q 40.625 62.890625 42.1875 58.203125 
Q 43.75 53.515625 41.984375 47.265625 
Q 40.234375 41.015625 32.8125 37.5 
Q 39.453125 35.546875 42.1875 31.4375 
Q 44.921875 27.34375 44.921875 21.484375 
Q 44.921875 15.625 43.15625 12.109375 
Q 41.40625 8.59375 39.25 6.25 
Q 37.109375 3.90625 33.390625 2.53125 
Q 29.6875 1.171875 24.015625 1.171875 
Q 18.359375 1.171875 14.25 2.53125 
Q 10.15625 3.90625 7.421875 6.640625 
Q 4.6875 9.375 3.703125 13.078125 
Q 2.734375 16.796875 2.734375 26.171875 
z
M 10.9375 26.5625 
Q 10.546875 17.1875 12.296875 13.671875 
Q 14.0625 10.15625 18.75 9.171875 
Q 23.4375 8.203125 28.515625 9.375 
Q 33.59375 10.546875 35.546875 14.84375 
Q 37.5 19.140625 36.90625 23.4375 
Q 36.328125 27.734375 32.03125 30.65625 
Q 27.734375 33.59375 22.65625 33.203125 
Q 17.578125 32.8125 14.25 29.6875 
Q 10.9375 26.5625 10.546875 17.1875 
z
M 12.109375 56.25 
Q 12.109375 48.4375 14.84375 44.921875 
Q 17.578125 41.40625 23.4375 41.40625 
Q 29.296875 41.40625 32.21875 44.921875 
Q 35.15625 48.4375 34.953125 53.3125 
Q 34.765625 58.203125 31.4375 60.546875 
Q 28.125 62.890625 22.453125 62.5 
Q 16.796875 62.109375 14.453125 59.171875 
Q 12.109375 56.25 12.109375 48.4375 
z
" id="SimHei-56"/>
        <path d="M 16.796875 1.953125 
L 7.8125 1.953125 
L 7.8125 10.546875 
L 16.796875 10.546875 
z
" id="SimHei-46"/>
        <path d="M 31.25 17.1875 
L 1.171875 17.1875 
L 1.171875 23.828125 
L 32.8125 69.53125 
L 38.671875 69.53125 
L 38.671875 23.828125 
L 48.046875 23.828125 
L 48.046875 17.1875 
L 38.671875 17.1875 
L 38.671875 2.34375 
L 31.25 2.34375 
z
M 31.25 23.828125 
L 31.25 54.6875 
L 9.375 23.828125 
z
" id="SimHei-52"/>
       </defs>
       <use xlink:href="#SimHei-56"/>
       <use x="50" xlink:href="#SimHei-46"/>
       <use x="100" xlink:href="#SimHei-52"/>
      </g>
     </g>
    </g>
    <g id="xtick_2">
     <g id="line2d_2">
      <g>
       <use style="stroke:#000000;stroke-width:0.8;" x="224.064935" xlink:href="#m4e869cc421" y="512.64"/>
      </g>
     </g>
     <g id="text_2">
      <!-- 8.6 -->
      <g transform="translate(216.564935 526.515)scale(0.1 -0.1)">
       <defs>
        <path d="M 3.515625 19.53125 
Q 4.296875 30.859375 6.046875 34.765625 
Q 7.8125 38.671875 11.328125 44.53125 
L 27.34375 69.53125 
L 36.328125 69.53125 
L 19.921875 43.75 
Q 30.46875 46.484375 36.71875 42.96875 
Q 42.96875 39.453125 45.109375 34.953125 
Q 47.265625 30.46875 47.453125 25.1875 
Q 47.65625 19.921875 45.890625 14.84375 
Q 44.140625 9.765625 39.640625 5.65625 
Q 35.15625 1.5625 27.140625 1.171875 
Q 19.140625 0.78125 13.46875 4.09375 
Q 7.8125 7.421875 5.65625 13.46875 
Q 3.515625 19.53125 4.296875 30.859375 
z
M 12.5 16.015625 
Q 19.53125 8.59375 25.390625 8.203125 
Q 31.25 7.8125 35.15625 12.109375 
Q 39.0625 16.40625 39.0625 24.609375 
Q 39.0625 32.8125 34.171875 35.9375 
Q 29.296875 39.0625 23.234375 38.28125 
Q 17.1875 37.5 14.453125 32.421875 
Q 11.71875 27.34375 12.109375 21.671875 
Q 12.5 16.015625 19.53125 8.59375 
z
" id="SimHei-54"/>
       </defs>
       <use xlink:href="#SimHei-56"/>
       <use x="50" xlink:href="#SimHei-46"/>
       <use x="100" xlink:href="#SimHei-54"/>
      </g>
     </g>
    </g>
    <g id="xtick_3">
     <g id="line2d_3">
      <g>
       <use style="stroke:#000000;stroke-width:0.8;" x="296.532468" xlink:href="#m4e869cc421" y="512.64"/>
      </g>
     </g>
     <g id="text_3">
      <!-- 8.8 -->
      <g transform="translate(289.032468 526.515)scale(0.1 -0.1)">
       <use xlink:href="#SimHei-56"/>
       <use x="50" xlink:href="#SimHei-46"/>
       <use x="100" xlink:href="#SimHei-56"/>
      </g>
     </g>
    </g>
    <g id="xtick_4">
     <g id="line2d_4">
      <g>
       <use style="stroke:#000000;stroke-width:0.8;" x="369" xlink:href="#m4e869cc421" y="512.64"/>
      </g>
     </g>
     <g id="text_4">
      <!-- 9.0 -->
      <g transform="translate(361.5 526.515)scale(0.1 -0.1)">
       <defs>
        <path d="M 12.5 1.171875 
Q 21.09375 15.625 26.5625 27.34375 
Q 16.796875 25.78125 10.34375 29.875 
Q 3.90625 33.984375 2.53125 41.015625 
Q 1.171875 48.046875 2.734375 53.703125 
Q 4.296875 59.375 7.609375 63.078125 
Q 10.9375 66.796875 15.625 68.359375 
Q 20.3125 69.921875 24.015625 69.921875 
Q 27.734375 69.921875 31.640625 68.359375 
Q 35.546875 66.796875 38.671875 63.671875 
Q 41.796875 60.546875 42.96875 57.21875 
Q 44.140625 53.90625 44.140625 48.625 
Q 44.140625 43.359375 40.234375 35.15625 
Q 36.328125 26.953125 21.09375 1.171875 
z
M 9.765625 50 
Q 10.9375 39.84375 14.640625 36.515625 
Q 18.359375 33.203125 22.65625 33.59375 
Q 26.953125 33.984375 29.484375 35.9375 
Q 32.03125 37.890625 34.375 42.578125 
Q 35.9375 48.4375 35.15625 52.53125 
Q 34.375 56.640625 31.046875 59.375 
Q 27.734375 62.109375 23.828125 62.109375 
Q 21.484375 62.5 17.765625 60.9375 
Q 14.0625 59.375 11.90625 54.6875 
Q 9.765625 50 10.9375 39.84375 
z
" id="SimHei-57"/>
        <path d="M 3.125 29.296875 
Q 3.90625 50 6.4375 56.046875 
Q 8.984375 62.109375 13.671875 66.015625 
Q 18.359375 69.921875 25.1875 69.921875 
Q 32.03125 69.921875 37.109375 64.25 
Q 42.1875 58.59375 43.75 50 
Q 45.3125 41.40625 44.71875 30.265625 
Q 44.140625 19.140625 40.8125 12.109375 
Q 37.5 5.078125 30.859375 2.34375 
Q 24.21875 -0.390625 17.578125 2.921875 
Q 10.9375 6.25 8.203125 11.71875 
Q 5.46875 17.1875 4.296875 23.234375 
Q 3.125 29.296875 3.90625 50 
z
M 12.890625 52.734375 
Q 10.546875 31.25 12.5 22.84375 
Q 14.453125 14.453125 18.9375 10.9375 
Q 23.4375 7.421875 28.125 9.5625 
Q 32.8125 11.71875 34.953125 18.15625 
Q 37.109375 24.609375 37.109375 32.21875 
Q 37.109375 39.84375 36.515625 46.09375 
Q 35.9375 52.34375 33 57.421875 
Q 30.078125 62.5 25.1875 62.6875 
Q 20.3125 62.890625 16.59375 57.8125 
Q 12.890625 52.734375 10.546875 31.25 
z
" id="SimHei-48"/>
       </defs>
       <use xlink:href="#SimHei-57"/>
       <use x="50" xlink:href="#SimHei-46"/>
       <use x="100" xlink:href="#SimHei-48"/>
      </g>
     </g>
    </g>
    <g id="xtick_5">
     <g id="line2d_5">
      <g>
       <use style="stroke:#000000;stroke-width:0.8;" x="441.467532" xlink:href="#m4e869cc421" y="512.64"/>
      </g>
     </g>
     <g id="text_5">
      <!-- 9.2 -->
      <g transform="translate(433.967532 526.515)scale(0.1 -0.1)">
       <defs>
        <path d="M 4.6875 3.90625 
Q 5.078125 9.765625 10.15625 14.453125 
Q 15.234375 19.140625 23.046875 29.09375 
Q 30.859375 39.0625 33.203125 44.53125 
Q 35.546875 50 34.953125 53.90625 
Q 34.375 57.8125 31.25 60.34375 
Q 28.125 62.890625 24.015625 62.5 
Q 19.921875 62.109375 16.203125 59.375 
Q 12.5 56.640625 10.546875 51.171875 
L 3.125 52.34375 
Q 6.25 61.328125 11.125 65.421875 
Q 16.015625 69.53125 22.65625 69.921875 
Q 26.5625 70.3125 29.6875 69.71875 
Q 32.8125 69.140625 36.125 66.984375 
Q 39.453125 64.84375 41.59375 60.546875 
Q 43.75 56.25 43.15625 50.1875 
Q 42.578125 44.140625 37.109375 35.734375 
Q 31.640625 27.34375 16.015625 9.375 
L 44.140625 9.375 
L 44.140625 2.34375 
L 4.6875 2.34375 
z
" id="SimHei-50"/>
       </defs>
       <use xlink:href="#SimHei-57"/>
       <use x="50" xlink:href="#SimHei-46"/>
       <use x="100" xlink:href="#SimHei-50"/>
      </g>
     </g>
    </g>
    <g id="xtick_6">
     <g id="line2d_6">
      <g>
       <use style="stroke:#000000;stroke-width:0.8;" x="513.935065" xlink:href="#m4e869cc421" y="512.64"/>
      </g>
     </g>
     <g id="text_6">
      <!-- 9.4 -->
      <g transform="translate(506.435065 526.515)scale(0.1 -0.1)">
       <use xlink:href="#SimHei-57"/>
       <use x="50" xlink:href="#SimHei-46"/>
       <use x="100" xlink:href="#SimHei-52"/>
      </g>
     </g>
    </g>
    <g id="xtick_7">
     <g id="line2d_7">
      <g>
       <use style="stroke:#000000;stroke-width:0.8;" x="586.402597" xlink:href="#m4e869cc421" y="512.64"/>
      </g>
     </g>
     <g id="text_7">
      <!-- 9.6 -->
      <g transform="translate(578.902597 526.515)scale(0.1 -0.1)">
       <use xlink:href="#SimHei-57"/>
       <use x="50" xlink:href="#SimHei-46"/>
       <use x="100" xlink:href="#SimHei-54"/>
      </g>
     </g>
    </g>
    <g id="text_8">
     <!-- 电影评分 -->
     <g transform="translate(349 539.73375)scale(0.1 -0.1)">
      <defs>
       <path d="M 96.09375 5.078125 
Q 93.359375 -3.90625 91.015625 -6.4375 
Q 88.671875 -8.984375 83.203125 -8.984375 
L 52.734375 -8.984375 
Q 42.1875 -9.375 41.796875 1.5625 
L 41.796875 15.234375 
L 19.140625 15.234375 
L 19.140625 7.8125 
L 10.15625 7.8125 
Q 10.546875 11.71875 10.546875 34.765625 
Q 10.546875 57.8125 10.15625 64.84375 
L 41.796875 64.84375 
Q 41.796875 75.390625 41.40625 81.25 
L 50 81.25 
Q 49.609375 76.171875 49.609375 64.84375 
L 81.25 64.84375 
Q 80.859375 58.984375 80.859375 40.625 
Q 80.859375 22.65625 81.25 15.234375 
L 49.609375 15.234375 
L 49.609375 4.6875 
Q 49.609375 -2.34375 57.03125 -2.34375 
L 77.734375 -2.34375 
Q 83.984375 -2.34375 85.15625 0.390625 
Q 86.328125 3.125 87.109375 8.984375 
Q 91.015625 6.25 96.09375 5.078125 
z
M 73.046875 21.875 
L 73.046875 37.5 
L 49.609375 37.5 
L 49.609375 21.875 
z
M 41.796875 21.875 
L 41.796875 37.5 
L 19.140625 37.5 
L 19.140625 21.875 
z
M 73.046875 43.75 
L 73.046875 58.203125 
L 49.609375 58.203125 
L 49.609375 43.75 
z
M 41.796875 43.75 
L 41.796875 58.203125 
L 19.140625 58.203125 
L 19.140625 43.75 
z
" id="SimHei-30005"/>
       <path d="M 55.46875 78.515625 
Q 54.6875 72.265625 54.875 65.421875 
Q 55.078125 58.59375 55.46875 51.953125 
L 12.109375 51.953125 
Q 12.5 58.59375 12.296875 65.421875 
Q 12.109375 72.265625 12.109375 78.515625 
L 55.46875 78.515625 
z
M 22.65625 -1.5625 
Q 32.03125 -1.171875 30.859375 3.125 
L 30.859375 17.1875 
L 12.109375 17.1875 
Q 12.5 21.484375 12.296875 25.78125 
Q 12.109375 30.078125 12.109375 34.765625 
L 55.46875 34.765625 
Q 55.078125 30.078125 54.875 25.78125 
Q 54.6875 21.484375 55.46875 17.1875 
L 38.671875 17.1875 
L 38.671875 2.734375 
Q 39.0625 -3.90625 35.9375 -5.859375 
Q 32.8125 -7.8125 25.390625 -9.375 
Q 24.609375 -5.078125 22.65625 -1.5625 
z
M 37.109375 50.78125 
Q 37.5 48.046875 37.890625 44.921875 
L 49.609375 44.921875 
Q 56.25 44.921875 63.28125 45.3125 
L 63.28125 38.671875 
Q 56.25 39.0625 49.609375 39.0625 
L 18.75 39.0625 
Q 10.9375 39.0625 4.296875 38.671875 
L 4.296875 45.3125 
Q 10.9375 44.921875 18.75 44.921875 
L 29.6875 44.921875 
Q 29.296875 47.265625 28.90625 50 
Q 32.8125 50.78125 37.109375 50.78125 
z
M 96.09375 21.09375 
Q 88.671875 12.109375 78.125 3.515625 
Q 67.578125 -5.078125 58.203125 -10.15625 
Q 55.859375 -6.25 53.125 -3.90625 
Q 62.109375 0.390625 71.875 7.8125 
Q 81.640625 15.234375 90.234375 26.953125 
Q 92.96875 23.828125 96.09375 21.09375 
z
M 92.578125 48.828125 
Q 87.890625 44.53125 81.4375 36.90625 
Q 75 29.296875 65.625 22.265625 
Q 62.890625 25.390625 59.375 26.953125 
Q 68.359375 32.03125 74.796875 39.453125 
Q 81.25 46.875 86.328125 54.6875 
Q 88.671875 51.953125 92.578125 48.828125 
z
M 89.453125 75.390625 
Q 83.203125 71.09375 78.703125 65.03125 
Q 74.21875 58.984375 65.234375 51.171875 
Q 62.109375 53.90625 59.375 55.46875 
Q 65.234375 59.765625 71.09375 66.203125 
Q 76.953125 72.65625 81.640625 80.859375 
Q 84.765625 78.125 89.453125 75.390625 
z
M 48.046875 23.046875 
L 48.046875 28.90625 
L 19.53125 28.90625 
L 19.53125 23.046875 
z
M 48.046875 57.8125 
L 48.046875 62.5 
L 19.53125 62.5 
L 19.53125 57.8125 
z
M 48.046875 68.359375 
L 48.046875 73.046875 
L 19.53125 73.046875 
L 19.53125 68.359375 
z
M 23.4375 7.8125 
Q 16.796875 1.171875 8.984375 -5.078125 
Q 7.421875 -2.734375 4.296875 -0.390625 
Q 10.9375 3.90625 17.578125 12.890625 
Q 20.3125 9.765625 23.4375 7.8125 
z
M 50.78125 -0.78125 
Q 47.65625 4.296875 42.96875 8.59375 
Q 45.3125 10.9375 48.046875 13.28125 
Q 53.125 8.203125 56.25 3.90625 
L 50.78125 -0.78125 
z
" id="SimHei-24433"/>
       <path d="M 92.1875 70.3125 
Q 84.375 70.703125 69.140625 70.703125 
L 69.140625 33.203125 
L 81.25 33.203125 
Q 89.84375 33.203125 96.484375 33.59375 
L 96.484375 26.171875 
Q 90.234375 26.5625 81.25 26.5625 
L 69.140625 26.5625 
L 69.140625 3.125 
Q 69.140625 -4.6875 69.53125 -10.546875 
L 60.9375 -10.546875 
Q 61.328125 -3.125 61.328125 3.125 
L 61.328125 26.5625 
L 48.046875 26.5625 
Q 41.015625 26.5625 34.765625 26.171875 
L 34.765625 33.59375 
Q 41.015625 33.203125 48.046875 33.203125 
L 61.328125 33.203125 
L 61.328125 70.703125 
Q 44.53125 70.703125 37.890625 70.3125 
L 37.890625 77.734375 
Q 44.53125 77.34375 51.5625 77.34375 
L 77.34375 77.34375 
Q 84.375 77.34375 92.1875 77.734375 
z
M 13.671875 3.515625 
Q 17.96875 6.25 17.96875 10.15625 
L 17.96875 44.921875 
Q 7.421875 44.921875 3.515625 44.53125 
L 3.515625 52.34375 
Q 7.421875 51.953125 12.890625 51.953125 
L 25.78125 51.953125 
Q 25.390625 44.140625 25.390625 36.328125 
L 25.390625 11.328125 
Q 29.6875 15.234375 35.546875 21.484375 
Q 37.109375 19.140625 39.84375 14.84375 
Q 32.8125 8.59375 28.3125 4.6875 
Q 23.828125 0.78125 19.53125 -3.90625 
Q 17.1875 0.390625 13.671875 3.515625 
z
M 75.390625 41.015625 
Q 81.25 53.515625 83.984375 63.28125 
Q 88.28125 62.109375 93.359375 60.15625 
Q 92.578125 59.375 89.0625 51.953125 
Q 85.546875 44.53125 82.8125 38.28125 
Q 78.90625 40.234375 75.390625 41.015625 
z
M 44.53125 62.5 
Q 51.171875 49.609375 53.90625 42.1875 
Q 49.21875 40.625 46.09375 38.671875 
Q 42.1875 51.5625 37.5 59.375 
Q 41.40625 60.546875 44.53125 62.5 
z
M 17.1875 81.640625 
Q 21.875 77.734375 30.859375 66.796875 
Q 27.34375 64.453125 24.609375 61.71875 
Q 20.3125 67.96875 11.71875 76.5625 
Q 14.0625 78.515625 17.1875 81.640625 
z
" id="SimHei-35780"/>
       <path d="M 15.625 -10.15625 
Q 12.890625 -5.859375 8.984375 -3.515625 
Q 15.234375 -1.171875 20.3125 2.140625 
Q 25.390625 5.46875 29.296875 10.34375 
Q 33.203125 15.234375 35.15625 21.09375 
Q 37.109375 26.953125 37.890625 35.546875 
Q 28.90625 35.546875 23.4375 35.15625 
L 23.4375 43.359375 
Q 29.6875 42.96875 39.453125 42.96875 
L 78.515625 42.96875 
Q 77.734375 37.109375 77.34375 32.8125 
L 74.21875 3.90625 
Q 73.4375 -3.125 67.96875 -5.46875 
Q 62.5 -7.8125 55.859375 -8.203125 
Q 55.46875 -4.296875 51.953125 0.78125 
Q 60.15625 0.390625 63.078125 1.359375 
Q 66.015625 2.34375 66.796875 8.203125 
L 69.53125 35.546875 
L 46.09375 35.546875 
Q 44.921875 25.390625 42.765625 18.546875 
Q 40.625 11.71875 36.71875 6.640625 
Q 32.8125 1.5625 27.34375 -2.734375 
Q 21.875 -7.03125 15.625 -10.15625 
z
M 61.71875 80.859375 
Q 64.453125 72.65625 72.84375 62.109375 
Q 81.25 51.5625 96.484375 43.75 
Q 93.359375 41.015625 90.234375 35.546875 
Q 83.203125 40.625 77.921875 45.109375 
Q 72.65625 49.609375 69.140625 53.515625 
Q 65.625 57.421875 61.328125 64.640625 
Q 57.03125 71.875 54.296875 78.125 
Q 58.59375 79.296875 61.71875 80.859375 
z
M 42.1875 75.390625 
Q 38.671875 69.140625 36.328125 64.453125 
Q 33.984375 59.765625 31.640625 56.046875 
Q 29.296875 52.34375 24.609375 46.09375 
Q 19.921875 39.84375 13.28125 33.203125 
Q 9.765625 36.71875 6.25 38.671875 
Q 14.0625 45.703125 18.546875 51.5625 
Q 23.046875 57.421875 27.140625 64.25 
Q 31.25 71.09375 34.375 79.296875 
Q 37.5 76.953125 42.1875 75.390625 
z
" id="SimHei-20998"/>
      </defs>
      <use xlink:href="#SimHei-30005"/>
      <use x="100" xlink:href="#SimHei-24433"/>
      <use x="200" xlink:href="#SimHei-35780"/>
      <use x="300" xlink:href="#SimHei-20998"/>
     </g>
    </g>
   </g>
   <g id="matplotlib.axis_2">
    <g id="ytick_1">
     <g id="line2d_8">
      <defs>
       <path d="M 0 0 
L -3.5 0 
" id="mc0cfdfa718" style="stroke:#000000;stroke-width:0.8;"/>
      </defs>
      <g>
       <use style="stroke:#000000;stroke-width:0.8;" x="90" xlink:href="#mc0cfdfa718" y="87.660723"/>
      </g>
     </g>
     <g id="text_9">
      <!-- 0 -->
      <g transform="translate(78 91.098223)scale(0.1 -0.1)">
       <use xlink:href="#SimHei-48"/>
      </g>
     </g>
    </g>
    <g id="ytick_2">
     <g id="line2d_9">
      <g>
       <use style="stroke:#000000;stroke-width:0.8;" x="90" xlink:href="#mc0cfdfa718" y="168.624578"/>
      </g>
     </g>
     <g id="text_10">
      <!-- 50 -->
      <g transform="translate(73 172.062078)scale(0.1 -0.1)">
       <defs>
        <path d="M 8.59375 20.703125 
Q 11.328125 10.15625 17.96875 8.984375 
Q 24.609375 7.8125 28.703125 10.34375 
Q 32.8125 12.890625 34.5625 16.984375 
Q 36.328125 21.09375 36.125 26.171875 
Q 35.9375 31.25 33.390625 34.765625 
Q 30.859375 38.28125 26.953125 39.453125 
Q 23.046875 40.625 18.15625 39.453125 
Q 13.28125 38.28125 10.15625 33.984375 
L 3.515625 34.765625 
Q 4.296875 37.109375 10.9375 68.359375 
L 41.796875 68.359375 
L 41.796875 61.328125 
L 16.796875 61.328125 
Q 14.84375 50.78125 12.890625 44.53125 
Q 18.75 47.265625 23.828125 47.0625 
Q 28.90625 46.875 33.59375 44.71875 
Q 38.28125 42.578125 40.421875 38.859375 
Q 42.578125 35.15625 43.546875 31.4375 
Q 44.53125 27.734375 44.328125 23.4375 
Q 44.140625 19.140625 42.578125 14.640625 
Q 41.015625 10.15625 37.890625 7.21875 
Q 34.765625 4.296875 30.265625 2.53125 
Q 25.78125 0.78125 19.921875 1.171875 
Q 14.0625 1.5625 8.78125 5.46875 
Q 3.515625 9.375 1.5625 18.75 
z
" id="SimHei-53"/>
       </defs>
       <use xlink:href="#SimHei-53"/>
       <use x="50" xlink:href="#SimHei-48"/>
      </g>
     </g>
    </g>
    <g id="ytick_3">
     <g id="line2d_10">
      <g>
       <use style="stroke:#000000;stroke-width:0.8;" x="90" xlink:href="#mc0cfdfa718" y="249.588434"/>
      </g>
     </g>
     <g id="text_11">
      <!-- 100 -->
      <g transform="translate(68 253.025934)scale(0.1 -0.1)">
       <defs>
        <path d="M 21.875 56.25 
Q 16.796875 51.171875 8.984375 46.484375 
L 8.984375 53.90625 
Q 18.75 60.546875 25 69.53125 
L 29.6875 69.53125 
L 29.6875 2.34375 
L 21.875 2.34375 
z
" id="SimHei-49"/>
       </defs>
       <use xlink:href="#SimHei-49"/>
       <use x="50" xlink:href="#SimHei-48"/>
       <use x="100" xlink:href="#SimHei-48"/>
      </g>
     </g>
    </g>
    <g id="ytick_4">
     <g id="line2d_11">
      <g>
       <use style="stroke:#000000;stroke-width:0.8;" x="90" xlink:href="#mc0cfdfa718" y="330.552289"/>
      </g>
     </g>
     <g id="text_12">
      <!-- 150 -->
      <g transform="translate(68 333.989789)scale(0.1 -0.1)">
       <use xlink:href="#SimHei-49"/>
       <use x="50" xlink:href="#SimHei-53"/>
       <use x="100" xlink:href="#SimHei-48"/>
      </g>
     </g>
    </g>
    <g id="ytick_5">
     <g id="line2d_12">
      <g>
       <use style="stroke:#000000;stroke-width:0.8;" x="90" xlink:href="#mc0cfdfa718" y="411.516145"/>
      </g>
     </g>
     <g id="text_13">
      <!-- 200 -->
      <g transform="translate(68 414.953645)scale(0.1 -0.1)">
       <use xlink:href="#SimHei-50"/>
       <use x="50" xlink:href="#SimHei-48"/>
       <use x="100" xlink:href="#SimHei-48"/>
      </g>
     </g>
    </g>
    <g id="ytick_6">
     <g id="line2d_13">
      <g>
       <use style="stroke:#000000;stroke-width:0.8;" x="90" xlink:href="#mc0cfdfa718" y="492.48"/>
      </g>
     </g>
     <g id="text_14">
      <!-- 250 -->
      <g transform="translate(68 495.9175)scale(0.1 -0.1)">
       <use xlink:href="#SimHei-50"/>
       <use x="50" xlink:href="#SimHei-53"/>
       <use x="100" xlink:href="#SimHei-48"/>
      </g>
     </g>
    </g>
    <g id="text_15">
     <!-- 电影排名 -->
     <g transform="translate(62.75 310.88)rotate(-90)scale(0.1 -0.1)">
      <defs>
       <path d="M 3.515625 28.515625 
Q 10.546875 29.6875 17.96875 32.421875 
L 17.96875 53.515625 
L 14.84375 53.515625 
Q 10.15625 53.515625 5.46875 53.125 
L 5.46875 60.15625 
Q 9.375 59.765625 14.84375 59.765625 
L 17.96875 59.765625 
L 17.96875 70.3125 
Q 17.96875 75.78125 17.578125 80.859375 
L 26.171875 80.859375 
Q 25.390625 76.5625 25.390625 70.3125 
L 25.390625 59.765625 
Q 32.421875 59.765625 35.546875 60.15625 
L 35.546875 53.125 
Q 29.296875 53.515625 25.390625 53.515625 
L 25.390625 34.765625 
Q 30.46875 36.328125 35.546875 39.0625 
Q 35.546875 34.375 35.9375 32.03125 
Q 32.421875 30.859375 25.390625 28.125 
L 25.390625 -1.5625 
Q 25 -6.640625 22.0625 -7.8125 
Q 19.140625 -8.984375 10.9375 -10.15625 
Q 9.375 -3.515625 7.03125 -1.171875 
Q 13.671875 -1.953125 15.625 -1.75 
Q 17.578125 -1.5625 17.96875 1.171875 
L 17.96875 25.78125 
Q 13.28125 24.21875 7.03125 20.3125 
Q 5.859375 23.828125 3.515625 28.515625 
z
M 78.90625 80.078125 
Q 78.515625 75 78.515625 67.1875 
L 78.515625 62.5 
Q 89.0625 62.5 95.3125 63.28125 
L 95.3125 55.859375 
Q 89.453125 56.25 86.328125 56.25 
L 78.515625 56.25 
L 78.515625 41.015625 
Q 87.890625 41.015625 92.96875 41.40625 
L 92.96875 33.984375 
Q 87.890625 34.375 78.515625 34.375 
L 78.515625 16.796875 
Q 89.84375 16.796875 96.09375 17.1875 
L 96.09375 9.765625 
Q 91.40625 10.15625 78.515625 10.15625 
L 78.515625 4.296875 
Q 78.515625 1.171875 78.90625 -9.375 
L 71.09375 -9.375 
L 71.09375 67.1875 
Q 71.09375 75.78125 70.703125 80.078125 
L 78.90625 80.078125 
z
M 53.515625 67.96875 
Q 53.515625 76.953125 53.125 80.46875 
L 61.328125 80.46875 
Q 60.9375 75 60.9375 66.40625 
L 60.9375 -9.375 
L 53.125 -9.375 
Q 53.515625 -0.78125 53.515625 4.296875 
L 53.515625 10.15625 
Q 41.015625 10.15625 34.765625 9.765625 
L 34.765625 17.1875 
Q 39.84375 16.796875 53.515625 16.796875 
L 53.515625 34.375 
Q 43.359375 34.375 39.453125 33.59375 
L 39.453125 41.40625 
Q 42.96875 41.015625 53.515625 41.015625 
L 53.515625 56.25 
Q 42.1875 56.25 38.28125 55.859375 
L 38.28125 63.28125 
Q 42.578125 62.5 53.515625 62.5 
z
" id="SimHei-25490"/>
       <path d="M 45.3125 78.125 
Q 43.359375 76.171875 41.984375 74.21875 
Q 40.625 72.265625 38.671875 69.53125 
L 83.59375 69.53125 
Q 78.90625 62.5 70.5 51.75 
Q 62.109375 41.015625 46.484375 31.25 
L 85.9375 31.25 
Q 85.546875 25.390625 85.546875 19.140625 
L 85.546875 3.125 
Q 85.546875 -3.515625 85.9375 -9.765625 
L 77.734375 -9.765625 
L 77.734375 -1.171875 
L 35.15625 -1.171875 
L 35.15625 -10.15625 
L 27.34375 -10.15625 
Q 27.734375 -4.6875 27.734375 2.34375 
L 27.734375 21.875 
Q 14.84375 16.40625 9.765625 14.84375 
Q 8.203125 18.75 4.6875 22.265625 
Q 14.84375 24.21875 27.140625 29.296875 
Q 39.453125 34.375 46.09375 39.453125 
Q 37.5 47.265625 30.859375 51.5625 
Q 33.59375 53.90625 36.328125 57.421875 
Q 48.828125 47.265625 52.734375 44.140625 
Q 62.5 51.5625 70.3125 63.28125 
L 34.765625 63.28125 
Q 23.046875 49.21875 16.40625 44.140625 
Q 14.0625 46.484375 9.375 49.21875 
Q 18.359375 55.078125 24.796875 62.6875 
Q 31.25 70.3125 36.71875 82.03125 
Q 41.796875 79.296875 45.3125 78.125 
z
M 77.734375 5.078125 
L 77.734375 25 
L 35.15625 25 
L 35.15625 5.078125 
z
" id="SimHei-21517"/>
      </defs>
      <use xlink:href="#SimHei-30005"/>
      <use x="100" xlink:href="#SimHei-24433"/>
      <use x="200" xlink:href="#SimHei-25490"/>
      <use x="300" xlink:href="#SimHei-21517"/>
     </g>
    </g>
   </g>
   <g id="patch_3">
    <path d="M 90 512.64 
L 90 69.12 
" style="fill:none;stroke:#000000;stroke-linecap:square;stroke-linejoin:miter;stroke-width:0.8;"/>
   </g>
   <g id="patch_4">
    <path d="M 648 512.64 
L 648 69.12 
" style="fill:none;stroke:#000000;stroke-linecap:square;stroke-linejoin:miter;stroke-width:0.8;"/>
   </g>
   <g id="patch_5">
    <path d="M 90 512.64 
L 648 512.64 
" style="fill:none;stroke:#000000;stroke-linecap:square;stroke-linejoin:miter;stroke-width:0.8;"/>
   </g>
   <g id="patch_6">
    <path d="M 90 69.12 
L 648 69.12 
" style="fill:none;stroke:#000000;stroke-linecap:square;stroke-linejoin:miter;stroke-width:0.8;"/>
   </g>
   <g id="text_16">
    <!-- 电影排名评分散点图 -->
    <g transform="translate(315 63.12)scale(0.12 -0.12)">
     <defs>
      <path d="M 74.21875 77.734375 
Q 72.265625 75.78125 70.890625 71.875 
Q 69.53125 67.96875 67.578125 62.109375 
L 83.59375 62.109375 
Q 88.28125 62.109375 94.53125 62.5 
L 94.53125 55.46875 
Q 88.671875 55.859375 85.546875 55.859375 
Q 85.15625 43.75 83.59375 33 
Q 82.03125 22.265625 76.953125 13.671875 
Q 85.15625 3.90625 96.875 -1.5625 
Q 92.96875 -3.125 89.84375 -7.8125 
Q 79.296875 0 72.65625 7.8125 
Q 66.796875 -0.78125 55.078125 -9.375 
Q 52.734375 -6.640625 48.4375 -4.6875 
Q 60.546875 2.34375 68.359375 13.671875 
Q 61.328125 24.609375 59.375 42.1875 
Q 57.8125 39.453125 55.46875 35.546875 
Q 52.34375 37.890625 48.828125 39.453125 
Q 53.90625 46.484375 58.203125 57.21875 
Q 62.5 67.96875 64.84375 80.46875 
L 74.21875 77.734375 
z
M 47.265625 39.84375 
Q 46.875 32.421875 46.875 25.390625 
L 46.875 0.390625 
Q 46.875 -7.03125 35.15625 -7.8125 
Q 34.765625 -4.296875 32.03125 0 
Q 39.453125 0 39.453125 3.125 
L 39.453125 8.203125 
L 19.921875 8.203125 
L 19.921875 -8.59375 
L 12.5 -8.59375 
Q 12.890625 -1.171875 12.890625 7.03125 
L 12.890625 25.78125 
Q 12.890625 32.8125 12.5 39.84375 
L 47.265625 39.84375 
z
M 16.796875 67.96875 
Q 16.796875 74.609375 16.40625 80.46875 
L 24.21875 80.46875 
Q 23.828125 75.390625 23.828125 67.96875 
L 34.765625 67.96875 
Q 34.765625 75.78125 34.375 80.46875 
L 42.578125 80.46875 
Q 42.1875 75.78125 42.1875 67.96875 
Q 45.703125 67.96875 50.78125 68.359375 
L 50.78125 61.71875 
Q 45.703125 62.109375 42.1875 62.109375 
L 42.1875 52.734375 
Q 45.3125 52.734375 51.5625 53.125 
L 51.5625 46.484375 
Q 45.703125 46.875 39.453125 46.875 
L 17.1875 46.875 
Q 11.71875 46.875 4.296875 46.484375 
L 4.296875 53.125 
Q 11.71875 52.734375 16.796875 52.734375 
L 16.796875 62.109375 
Q 12.890625 62.109375 6.640625 61.71875 
L 6.640625 68.359375 
Q 12.5 67.96875 16.796875 67.96875 
z
M 64.84375 52.734375 
Q 66.40625 31.25 72.265625 20.3125 
Q 75 25.390625 76.5625 34.171875 
Q 78.125 42.96875 78.515625 55.859375 
L 66.015625 55.859375 
L 64.84375 52.734375 
z
M 39.453125 14.0625 
L 39.453125 21.09375 
L 19.921875 21.09375 
L 19.921875 14.0625 
z
M 39.453125 26.953125 
L 39.453125 33.984375 
L 19.921875 33.984375 
L 19.921875 26.953125 
z
M 34.765625 52.734375 
L 34.765625 62.109375 
L 23.828125 62.109375 
L 23.828125 52.734375 
z
" id="SimHei-25955"/>
      <path d="M 51.953125 81.25 
Q 51.5625 76.953125 51.5625 68.359375 
L 76.5625 68.359375 
Q 82.421875 68.359375 89.453125 68.75 
L 89.453125 61.328125 
Q 82.8125 61.71875 76.5625 61.71875 
L 51.5625 61.71875 
L 51.5625 50.390625 
L 81.640625 50.390625 
Q 81.25 42.1875 81.25 33.59375 
Q 81.25 25.390625 81.640625 18.359375 
L 18.359375 18.359375 
Q 18.75 25.390625 18.75 33.984375 
Q 18.75 42.578125 18.359375 50.390625 
L 43.359375 50.390625 
L 43.359375 70.3125 
Q 43.359375 76.5625 42.96875 81.25 
L 51.953125 81.25 
z
M 73.4375 25 
L 73.4375 43.75 
L 26.953125 43.75 
L 26.953125 25 
z
M 23.4375 11.71875 
Q 16.015625 -3.90625 12.890625 -9.765625 
Q 9.765625 -7.421875 5.078125 -5.859375 
Q 10.15625 0.78125 14.84375 14.453125 
Q 18.75 12.5 23.4375 11.71875 
z
M 83.203125 13.28125 
Q 90.234375 2.34375 94.921875 -5.46875 
Q 92.578125 -6.640625 87.109375 -9.765625 
Q 83.984375 -2.34375 76.5625 8.984375 
Q 80.46875 10.9375 83.203125 13.28125 
z
M 62.109375 -8.984375 
Q 58.984375 -1.5625 53.125 8.984375 
Q 55.859375 10.546875 59.765625 12.890625 
Q 67.96875 -1.171875 69.53125 -5.078125 
Q 65.625 -7.03125 62.109375 -8.984375 
z
M 37.109375 -8.984375 
Q 36.71875 -4.6875 30.859375 8.59375 
Q 34.375 9.765625 37.890625 12.109375 
Q 43.75 -1.171875 45.3125 -5.46875 
Q 41.015625 -7.03125 37.109375 -8.984375 
z
" id="SimHei-28857"/>
      <path d="M 90.625 77.734375 
Q 90.234375 67.96875 90.234375 56.25 
L 90.234375 14.453125 
Q 90.234375 2.34375 90.625 -9.375 
L 82.8125 -9.375 
L 82.8125 -4.296875 
L 17.578125 -4.296875 
L 17.578125 -10.15625 
L 9.765625 -10.15625 
Q 10.15625 1.953125 10.15625 14.84375 
L 10.15625 56.25 
Q 10.15625 67.578125 9.765625 77.734375 
L 90.625 77.734375 
z
M 82.8125 2.34375 
L 82.8125 71.484375 
L 17.578125 71.484375 
L 17.578125 2.34375 
z
M 50.390625 66.40625 
Q 48.046875 64.0625 46.09375 61.328125 
L 72.265625 61.328125 
Q 70.703125 57.8125 67.1875 52.734375 
Q 63.671875 47.65625 56.25 40.625 
Q 67.96875 34.765625 79.296875 33.59375 
Q 76.5625 30.078125 74.609375 26.171875 
Q 60.15625 30.46875 50.390625 36.71875 
Q 39.0625 29.296875 26.171875 25.78125 
Q 25 29.296875 21.875 32.421875 
Q 34.375 34.375 44.921875 40.625 
Q 39.453125 45.703125 37.109375 49.21875 
Q 33.59375 45.3125 29.6875 41.40625 
Q 26.953125 44.53125 23.828125 46.09375 
Q 30.46875 51.5625 35.15625 58.390625 
Q 39.84375 65.234375 41.796875 69.921875 
Q 45.703125 67.96875 50.390625 66.40625 
z
M 38.28125 19.921875 
Q 55.46875 14.84375 64.0625 11.328125 
Q 62.109375 8.203125 60.15625 4.6875 
Q 44.140625 11.328125 35.546875 13.28125 
Q 37.109375 16.40625 38.28125 19.921875 
z
M 45.703125 32.03125 
Q 58.984375 26.5625 63.671875 25 
Q 61.71875 21.875 60.15625 17.96875 
Q 46.875 24.21875 42.1875 25.78125 
Q 44.140625 28.515625 45.703125 32.03125 
z
M 41.015625 53.90625 
Q 46.875 47.265625 51.171875 44.53125 
Q 56.25 48.4375 60.546875 55.078125 
L 41.796875 55.078125 
L 41.015625 53.90625 
z
" id="SimHei-22270"/>
     </defs>
     <use xlink:href="#SimHei-30005"/>
     <use x="100" xlink:href="#SimHei-24433"/>
     <use x="200" xlink:href="#SimHei-25490"/>
     <use x="300" xlink:href="#SimHei-21517"/>
     <use x="400" xlink:href="#SimHei-35780"/>
     <use x="500" xlink:href="#SimHei-20998"/>
     <use x="600" xlink:href="#SimHei-25955"/>
     <use x="700" xlink:href="#SimHei-28857"/>
     <use x="800" xlink:href="#SimHei-22270"/>
    </g>
   </g>
  </g>
 </g>
 <defs>
  <clipPath id="p520440a30c">
   <rect height="443.52" width="558" x="90" y="69.12"/>
  </clipPath>
 </defs>
</svg>
