<?xml version="1.0" encoding="utf-8" standalone="no"?>
<!DOCTYPE svg PUBLIC "-//W3C//DTD SVG 1.1//EN"
  "http://www.w3.org/Graphics/SVG/1.1/DTD/svg11.dtd">
<!-- Created with matplotlib (https://matplotlib.org/) -->
<svg height="360pt" version="1.1" viewBox="0 0 720 360" width="720pt" xmlns="http://www.w3.org/2000/svg" xmlns:xlink="http://www.w3.org/1999/xlink">
 <metadata>
  <rdf:RDF xmlns:cc="http://creativecommons.org/ns#" xmlns:dc="http://purl.org/dc/elements/1.1/" xmlns:rdf="http://www.w3.org/1999/02/22-rdf-syntax-ns#">
   <cc:Work>
    <dc:type rdf:resource="http://purl.org/dc/dcmitype/StillImage"/>
    <dc:date>2020-09-10T22:39:13.024646</dc:date>
    <dc:format>image/svg+xml</dc:format>
    <dc:creator>
     <cc:Agent>
      <dc:title>Matplotlib v3.3.1, https://matplotlib.org/</dc:title>
     </cc:Agent>
    </dc:creator>
   </cc:Work>
  </rdf:RDF>
 </metadata>
 <defs>
  <style type="text/css">*{stroke-linecap:butt;stroke-linejoin:round;}</style>
 </defs>
 <g id="figure_1">
  <g id="patch_1">
   <path d="M 0 360 
L 720 360 
L 720 0 
L 0 0 
z
" style="fill:#ffffff;"/>
  </g>
  <g id="axes_1">
   <g id="patch_2">
    <path d="M 90 320.4 
L 648 320.4 
L 648 43.2 
L 90 43.2 
z
" style="fill:#ffffff;"/>
   </g>
   <g id="patch_3">
    <path clip-path="url(#p96aea00f6b)" d="M 115.363636 320.4 
L 121.128099 320.4 
L 121.128099 300.092308 
L 115.363636 300.092308 
z
" style="fill:#1f77b4;"/>
   </g>
   <g id="patch_4">
    <path clip-path="url(#p96aea00f6b)" d="M 144.18595 320.4 
L 149.950413 320.4 
L 149.950413 300.092308 
L 144.18595 300.092308 
z
" style="fill:#1f77b4;"/>
   </g>
   <g id="patch_5">
    <path clip-path="url(#p96aea00f6b)" d="M 161.479339 320.4 
L 167.243802 320.4 
L 167.243802 300.092308 
L 161.479339 300.092308 
z
" style="fill:#1f77b4;"/>
   </g>
   <g id="patch_6">
    <path clip-path="url(#p96aea00f6b)" d="M 167.243802 320.4 
L 173.008264 320.4 
L 173.008264 300.092308 
L 167.243802 300.092308 
z
" style="fill:#1f77b4;"/>
   </g>
   <g id="patch_7">
    <path clip-path="url(#p96aea00f6b)" d="M 224.88843 320.4 
L 230.652893 320.4 
L 230.652893 300.092308 
L 224.88843 300.092308 
z
" style="fill:#1f77b4;"/>
   </g>
   <g id="patch_8">
    <path clip-path="url(#p96aea00f6b)" d="M 236.417355 320.4 
L 242.181818 320.4 
L 242.181818 300.092308 
L 236.417355 300.092308 
z
" style="fill:#1f77b4;"/>
   </g>
   <g id="patch_9">
    <path clip-path="url(#p96aea00f6b)" d="M 242.181818 320.4 
L 247.946281 320.4 
L 247.946281 279.784615 
L 242.181818 279.784615 
z
" style="fill:#1f77b4;"/>
   </g>
   <g id="patch_10">
    <path clip-path="url(#p96aea00f6b)" d="M 247.946281 320.4 
L 253.710744 320.4 
L 253.710744 300.092308 
L 247.946281 300.092308 
z
" style="fill:#1f77b4;"/>
   </g>
   <g id="patch_11">
    <path clip-path="url(#p96aea00f6b)" d="M 265.239669 320.4 
L 271.004132 320.4 
L 271.004132 279.784615 
L 265.239669 279.784615 
z
" style="fill:#1f77b4;"/>
   </g>
   <g id="patch_12">
    <path clip-path="url(#p96aea00f6b)" d="M 282.533058 320.4 
L 288.297521 320.4 
L 288.297521 300.092308 
L 282.533058 300.092308 
z
" style="fill:#1f77b4;"/>
   </g>
   <g id="patch_13">
    <path clip-path="url(#p96aea00f6b)" d="M 288.297521 320.4 
L 294.061983 320.4 
L 294.061983 300.092308 
L 288.297521 300.092308 
z
" style="fill:#1f77b4;"/>
   </g>
   <g id="patch_14">
    <path clip-path="url(#p96aea00f6b)" d="M 311.355372 320.4 
L 317.119835 320.4 
L 317.119835 300.092308 
L 311.355372 300.092308 
z
" style="fill:#1f77b4;"/>
   </g>
   <g id="patch_15">
    <path clip-path="url(#p96aea00f6b)" d="M 317.119835 320.4 
L 322.884298 320.4 
L 322.884298 300.092308 
L 317.119835 300.092308 
z
" style="fill:#1f77b4;"/>
   </g>
   <g id="patch_16">
    <path clip-path="url(#p96aea00f6b)" d="M 328.64876 320.4 
L 334.413223 320.4 
L 334.413223 300.092308 
L 328.64876 300.092308 
z
" style="fill:#1f77b4;"/>
   </g>
   <g id="patch_17">
    <path clip-path="url(#p96aea00f6b)" d="M 345.942149 320.4 
L 351.706612 320.4 
L 351.706612 300.092308 
L 345.942149 300.092308 
z
" style="fill:#1f77b4;"/>
   </g>
   <g id="patch_18">
    <path clip-path="url(#p96aea00f6b)" d="M 351.706612 320.4 
L 357.471074 320.4 
L 357.471074 300.092308 
L 351.706612 300.092308 
z
" style="fill:#1f77b4;"/>
   </g>
   <g id="patch_19">
    <path clip-path="url(#p96aea00f6b)" d="M 363.235537 320.4 
L 369 320.4 
L 369 300.092308 
L 363.235537 300.092308 
z
" style="fill:#1f77b4;"/>
   </g>
   <g id="patch_20">
    <path clip-path="url(#p96aea00f6b)" d="M 369 320.4 
L 374.764463 320.4 
L 374.764463 300.092308 
L 369 300.092308 
z
" style="fill:#1f77b4;"/>
   </g>
   <g id="patch_21">
    <path clip-path="url(#p96aea00f6b)" d="M 392.057851 320.4 
L 397.822314 320.4 
L 397.822314 300.092308 
L 392.057851 300.092308 
z
" style="fill:#1f77b4;"/>
   </g>
   <g id="patch_22">
    <path clip-path="url(#p96aea00f6b)" d="M 409.35124 320.4 
L 415.115702 320.4 
L 415.115702 300.092308 
L 409.35124 300.092308 
z
" style="fill:#1f77b4;"/>
   </g>
   <g id="patch_23">
    <path clip-path="url(#p96aea00f6b)" d="M 415.115702 320.4 
L 420.880165 320.4 
L 420.880165 300.092308 
L 415.115702 300.092308 
z
" style="fill:#1f77b4;"/>
   </g>
   <g id="patch_24">
    <path clip-path="url(#p96aea00f6b)" d="M 420.880165 320.4 
L 426.644628 320.4 
L 426.644628 279.784615 
L 420.880165 279.784615 
z
" style="fill:#1f77b4;"/>
   </g>
   <g id="patch_25">
    <path clip-path="url(#p96aea00f6b)" d="M 432.409091 320.4 
L 438.173554 320.4 
L 438.173554 279.784615 
L 432.409091 279.784615 
z
" style="fill:#1f77b4;"/>
   </g>
   <g id="patch_26">
    <path clip-path="url(#p96aea00f6b)" d="M 438.173554 320.4 
L 443.938017 320.4 
L 443.938017 259.476923 
L 438.173554 259.476923 
z
" style="fill:#1f77b4;"/>
   </g>
   <g id="patch_27">
    <path clip-path="url(#p96aea00f6b)" d="M 443.938017 320.4 
L 449.702479 320.4 
L 449.702479 239.169231 
L 443.938017 239.169231 
z
" style="fill:#1f77b4;"/>
   </g>
   <g id="patch_28">
    <path clip-path="url(#p96aea00f6b)" d="M 449.702479 320.4 
L 455.466942 320.4 
L 455.466942 279.784615 
L 449.702479 279.784615 
z
" style="fill:#1f77b4;"/>
   </g>
   <g id="patch_29">
    <path clip-path="url(#p96aea00f6b)" d="M 455.466942 320.4 
L 461.231405 320.4 
L 461.231405 259.476923 
L 455.466942 259.476923 
z
" style="fill:#1f77b4;"/>
   </g>
   <g id="patch_30">
    <path clip-path="url(#p96aea00f6b)" d="M 461.231405 320.4 
L 466.995868 320.4 
L 466.995868 239.169231 
L 461.231405 239.169231 
z
" style="fill:#1f77b4;"/>
   </g>
   <g id="patch_31">
    <path clip-path="url(#p96aea00f6b)" d="M 466.995868 320.4 
L 472.760331 320.4 
L 472.760331 279.784615 
L 466.995868 279.784615 
z
" style="fill:#1f77b4;"/>
   </g>
   <g id="patch_32">
    <path clip-path="url(#p96aea00f6b)" d="M 472.760331 320.4 
L 478.524793 320.4 
L 478.524793 178.246154 
L 472.760331 178.246154 
z
" style="fill:#1f77b4;"/>
   </g>
   <g id="patch_33">
    <path clip-path="url(#p96aea00f6b)" d="M 478.524793 320.4 
L 484.289256 320.4 
L 484.289256 76.707692 
L 478.524793 76.707692 
z
" style="fill:#1f77b4;"/>
   </g>
   <g id="patch_34">
    <path clip-path="url(#p96aea00f6b)" d="M 484.289256 320.4 
L 490.053719 320.4 
L 490.053719 178.246154 
L 484.289256 178.246154 
z
" style="fill:#1f77b4;"/>
   </g>
   <g id="patch_35">
    <path clip-path="url(#p96aea00f6b)" d="M 490.053719 320.4 
L 495.818182 320.4 
L 495.818182 279.784615 
L 490.053719 279.784615 
z
" style="fill:#1f77b4;"/>
   </g>
   <g id="patch_36">
    <path clip-path="url(#p96aea00f6b)" d="M 495.818182 320.4 
L 501.582645 320.4 
L 501.582645 157.938462 
L 495.818182 157.938462 
z
" style="fill:#1f77b4;"/>
   </g>
   <g id="patch_37">
    <path clip-path="url(#p96aea00f6b)" d="M 501.582645 320.4 
L 507.347107 320.4 
L 507.347107 218.861538 
L 501.582645 218.861538 
z
" style="fill:#1f77b4;"/>
   </g>
   <g id="patch_38">
    <path clip-path="url(#p96aea00f6b)" d="M 507.347107 320.4 
L 513.11157 320.4 
L 513.11157 198.553846 
L 507.347107 198.553846 
z
" style="fill:#1f77b4;"/>
   </g>
   <g id="patch_39">
    <path clip-path="url(#p96aea00f6b)" d="M 513.11157 320.4 
L 518.876033 320.4 
L 518.876033 218.861538 
L 513.11157 218.861538 
z
" style="fill:#1f77b4;"/>
   </g>
   <g id="patch_40">
    <path clip-path="url(#p96aea00f6b)" d="M 518.876033 320.4 
L 524.640496 320.4 
L 524.640496 137.630769 
L 518.876033 137.630769 
z
" style="fill:#1f77b4;"/>
   </g>
   <g id="patch_41">
    <path clip-path="url(#p96aea00f6b)" d="M 524.640496 320.4 
L 530.404959 320.4 
L 530.404959 157.938462 
L 524.640496 157.938462 
z
" style="fill:#1f77b4;"/>
   </g>
   <g id="patch_42">
    <path clip-path="url(#p96aea00f6b)" d="M 530.404959 320.4 
L 536.169421 320.4 
L 536.169421 157.938462 
L 530.404959 157.938462 
z
" style="fill:#1f77b4;"/>
   </g>
   <g id="patch_43">
    <path clip-path="url(#p96aea00f6b)" d="M 536.169421 320.4 
L 541.933884 320.4 
L 541.933884 56.4 
L 536.169421 56.4 
z
" style="fill:#1f77b4;"/>
   </g>
   <g id="patch_44">
    <path clip-path="url(#p96aea00f6b)" d="M 541.933884 320.4 
L 547.698347 320.4 
L 547.698347 239.169231 
L 541.933884 239.169231 
z
" style="fill:#1f77b4;"/>
   </g>
   <g id="patch_45">
    <path clip-path="url(#p96aea00f6b)" d="M 547.698347 320.4 
L 553.46281 320.4 
L 553.46281 137.630769 
L 547.698347 137.630769 
z
" style="fill:#1f77b4;"/>
   </g>
   <g id="patch_46">
    <path clip-path="url(#p96aea00f6b)" d="M 553.46281 320.4 
L 559.227273 320.4 
L 559.227273 239.169231 
L 553.46281 239.169231 
z
" style="fill:#1f77b4;"/>
   </g>
   <g id="patch_47">
    <path clip-path="url(#p96aea00f6b)" d="M 559.227273 320.4 
L 564.991736 320.4 
L 564.991736 137.630769 
L 559.227273 137.630769 
z
" style="fill:#1f77b4;"/>
   </g>
   <g id="patch_48">
    <path clip-path="url(#p96aea00f6b)" d="M 564.991736 320.4 
L 570.756198 320.4 
L 570.756198 137.630769 
L 564.991736 137.630769 
z
" style="fill:#1f77b4;"/>
   </g>
   <g id="patch_49">
    <path clip-path="url(#p96aea00f6b)" d="M 570.756198 320.4 
L 576.520661 320.4 
L 576.520661 56.4 
L 570.756198 56.4 
z
" style="fill:#1f77b4;"/>
   </g>
   <g id="patch_50">
    <path clip-path="url(#p96aea00f6b)" d="M 576.520661 320.4 
L 582.285124 320.4 
L 582.285124 137.630769 
L 576.520661 137.630769 
z
" style="fill:#1f77b4;"/>
   </g>
   <g id="patch_51">
    <path clip-path="url(#p96aea00f6b)" d="M 582.285124 320.4 
L 588.049587 320.4 
L 588.049587 218.861538 
L 582.285124 218.861538 
z
" style="fill:#1f77b4;"/>
   </g>
   <g id="patch_52">
    <path clip-path="url(#p96aea00f6b)" d="M 588.049587 320.4 
L 593.81405 320.4 
L 593.81405 97.015385 
L 588.049587 97.015385 
z
" style="fill:#1f77b4;"/>
   </g>
   <g id="patch_53">
    <path clip-path="url(#p96aea00f6b)" d="M 593.81405 320.4 
L 599.578512 320.4 
L 599.578512 137.630769 
L 593.81405 137.630769 
z
" style="fill:#1f77b4;"/>
   </g>
   <g id="patch_54">
    <path clip-path="url(#p96aea00f6b)" d="M 599.578512 320.4 
L 605.342975 320.4 
L 605.342975 117.323077 
L 599.578512 117.323077 
z
" style="fill:#1f77b4;"/>
   </g>
   <g id="patch_55">
    <path clip-path="url(#p96aea00f6b)" d="M 605.342975 320.4 
L 611.107438 320.4 
L 611.107438 137.630769 
L 605.342975 137.630769 
z
" style="fill:#1f77b4;"/>
   </g>
   <g id="patch_56">
    <path clip-path="url(#p96aea00f6b)" d="M 611.107438 320.4 
L 616.871901 320.4 
L 616.871901 178.246154 
L 611.107438 178.246154 
z
" style="fill:#1f77b4;"/>
   </g>
   <g id="patch_57">
    <path clip-path="url(#p96aea00f6b)" d="M 616.871901 320.4 
L 622.636364 320.4 
L 622.636364 178.246154 
L 616.871901 178.246154 
z
" style="fill:#1f77b4;"/>
   </g>
   <g id="matplotlib.axis_1">
    <g id="xtick_1">
     <g id="line2d_1">
      <defs>
       <path d="M 0 0 
L 0 3.5 
" id="m8dffadc141" style="stroke:#000000;"/>
      </defs>
      <g>
       <use style="stroke:#000000;" x="112.481405" xlink:href="#m8dffadc141" y="320.4"/>
      </g>
     </g>
     <g id="text_1">
      <!-- 1930 -->
      <g transform="translate(102.481405 334.275)scale(0.1 -0.1)">
       <defs>
        <path d="M 21.875 56.25 
Q 16.796875 51.171875 8.984375 46.484375 
L 8.984375 53.90625 
Q 18.75 60.546875 25 69.53125 
L 29.6875 69.53125 
L 29.6875 2.34375 
L 21.875 2.34375 
z
" id="SimHei-49"/>
        <path d="M 12.5 1.171875 
Q 21.09375 15.625 26.5625 27.34375 
Q 16.796875 25.78125 10.34375 29.875 
Q 3.90625 33.984375 2.53125 41.015625 
Q 1.171875 48.046875 2.734375 53.703125 
Q 4.296875 59.375 7.609375 63.078125 
Q 10.9375 66.796875 15.625 68.359375 
Q 20.3125 69.921875 24.015625 69.921875 
Q 27.734375 69.921875 31.640625 68.359375 
Q 35.546875 66.796875 38.671875 63.671875 
Q 41.796875 60.546875 42.96875 57.21875 
Q 44.140625 53.90625 44.140625 48.625 
Q 44.140625 43.359375 40.234375 35.15625 
Q 36.328125 26.953125 21.09375 1.171875 
z
M 9.765625 50 
Q 10.9375 39.84375 14.640625 36.515625 
Q 18.359375 33.203125 22.65625 33.59375 
Q 26.953125 33.984375 29.484375 35.9375 
Q 32.03125 37.890625 34.375 42.578125 
Q 35.9375 48.4375 35.15625 52.53125 
Q 34.375 56.640625 31.046875 59.375 
Q 27.734375 62.109375 23.828125 62.109375 
Q 21.484375 62.5 17.765625 60.9375 
Q 14.0625 59.375 11.90625 54.6875 
Q 9.765625 50 10.9375 39.84375 
z
" id="SimHei-57"/>
        <path d="M 3.90625 19.140625 
L 10.9375 20.3125 
Q 12.5 15.234375 16.015625 11.90625 
Q 19.53125 8.59375 24.796875 8.78125 
Q 30.078125 8.984375 33.203125 13.078125 
Q 36.328125 17.1875 35.9375 22.453125 
Q 35.546875 27.734375 31.828125 30.65625 
Q 28.125 33.59375 19.921875 34.765625 
L 19.921875 39.84375 
Q 28.125 40.625 31.828125 44.140625 
Q 35.546875 47.65625 35.15625 53.3125 
Q 34.765625 58.984375 30.078125 61.515625 
Q 25.390625 64.0625 20.109375 62.109375 
Q 14.84375 60.15625 11.71875 51.171875 
L 4.6875 52.34375 
Q 7.03125 59.375 11.125 64.0625 
Q 15.234375 68.75 22.265625 69.53125 
Q 29.296875 70.3125 34.5625 67.765625 
Q 39.84375 65.234375 41.984375 59.953125 
Q 44.140625 54.6875 42.578125 48.4375 
Q 41.015625 42.1875 33.59375 37.5 
Q 39.0625 35.15625 41.984375 30.46875 
Q 44.921875 25.78125 43.9375 18.15625 
Q 42.96875 10.546875 37.109375 5.859375 
Q 31.25 1.171875 23.828125 1.359375 
Q 16.40625 1.5625 10.9375 6.046875 
Q 5.46875 10.546875 3.90625 19.140625 
z
" id="SimHei-51"/>
        <path d="M 3.125 29.296875 
Q 3.90625 50 6.4375 56.046875 
Q 8.984375 62.109375 13.671875 66.015625 
Q 18.359375 69.921875 25.1875 69.921875 
Q 32.03125 69.921875 37.109375 64.25 
Q 42.1875 58.59375 43.75 50 
Q 45.3125 41.40625 44.71875 30.265625 
Q 44.140625 19.140625 40.8125 12.109375 
Q 37.5 5.078125 30.859375 2.34375 
Q 24.21875 -0.390625 17.578125 2.921875 
Q 10.9375 6.25 8.203125 11.71875 
Q 5.46875 17.1875 4.296875 23.234375 
Q 3.125 29.296875 3.90625 50 
z
M 12.890625 52.734375 
Q 10.546875 31.25 12.5 22.84375 
Q 14.453125 14.453125 18.9375 10.9375 
Q 23.4375 7.421875 28.125 9.5625 
Q 32.8125 11.71875 34.953125 18.15625 
Q 37.109375 24.609375 37.109375 32.21875 
Q 37.109375 39.84375 36.515625 46.09375 
Q 35.9375 52.34375 33 57.421875 
Q 30.078125 62.5 25.1875 62.6875 
Q 20.3125 62.890625 16.59375 57.8125 
Q 12.890625 52.734375 10.546875 31.25 
z
" id="SimHei-48"/>
       </defs>
       <use xlink:href="#SimHei-49"/>
       <use x="50" xlink:href="#SimHei-57"/>
       <use x="100" xlink:href="#SimHei-51"/>
       <use x="150" xlink:href="#SimHei-48"/>
      </g>
     </g>
    </g>
    <g id="xtick_2">
     <g id="line2d_2">
      <g>
       <use style="stroke:#000000;" x="170.126033" xlink:href="#m8dffadc141" y="320.4"/>
      </g>
     </g>
     <g id="text_2">
      <!-- 1940 -->
      <g transform="translate(160.126033 334.275)scale(0.1 -0.1)">
       <defs>
        <path d="M 31.25 17.1875 
L 1.171875 17.1875 
L 1.171875 23.828125 
L 32.8125 69.53125 
L 38.671875 69.53125 
L 38.671875 23.828125 
L 48.046875 23.828125 
L 48.046875 17.1875 
L 38.671875 17.1875 
L 38.671875 2.34375 
L 31.25 2.34375 
z
M 31.25 23.828125 
L 31.25 54.6875 
L 9.375 23.828125 
z
" id="SimHei-52"/>
       </defs>
       <use xlink:href="#SimHei-49"/>
       <use x="50" xlink:href="#SimHei-57"/>
       <use x="100" xlink:href="#SimHei-52"/>
       <use x="150" xlink:href="#SimHei-48"/>
      </g>
     </g>
    </g>
    <g id="xtick_3">
     <g id="line2d_3">
      <g>
       <use style="stroke:#000000;" x="227.770661" xlink:href="#m8dffadc141" y="320.4"/>
      </g>
     </g>
     <g id="text_3">
      <!-- 1950 -->
      <g transform="translate(217.770661 334.275)scale(0.1 -0.1)">
       <defs>
        <path d="M 8.59375 20.703125 
Q 11.328125 10.15625 17.96875 8.984375 
Q 24.609375 7.8125 28.703125 10.34375 
Q 32.8125 12.890625 34.5625 16.984375 
Q 36.328125 21.09375 36.125 26.171875 
Q 35.9375 31.25 33.390625 34.765625 
Q 30.859375 38.28125 26.953125 39.453125 
Q 23.046875 40.625 18.15625 39.453125 
Q 13.28125 38.28125 10.15625 33.984375 
L 3.515625 34.765625 
Q 4.296875 37.109375 10.9375 68.359375 
L 41.796875 68.359375 
L 41.796875 61.328125 
L 16.796875 61.328125 
Q 14.84375 50.78125 12.890625 44.53125 
Q 18.75 47.265625 23.828125 47.0625 
Q 28.90625 46.875 33.59375 44.71875 
Q 38.28125 42.578125 40.421875 38.859375 
Q 42.578125 35.15625 43.546875 31.4375 
Q 44.53125 27.734375 44.328125 23.4375 
Q 44.140625 19.140625 42.578125 14.640625 
Q 41.015625 10.15625 37.890625 7.21875 
Q 34.765625 4.296875 30.265625 2.53125 
Q 25.78125 0.78125 19.921875 1.171875 
Q 14.0625 1.5625 8.78125 5.46875 
Q 3.515625 9.375 1.5625 18.75 
z
" id="SimHei-53"/>
       </defs>
       <use xlink:href="#SimHei-49"/>
       <use x="50" xlink:href="#SimHei-57"/>
       <use x="100" xlink:href="#SimHei-53"/>
       <use x="150" xlink:href="#SimHei-48"/>
      </g>
     </g>
    </g>
    <g id="xtick_4">
     <g id="line2d_4">
      <g>
       <use style="stroke:#000000;" x="285.415289" xlink:href="#m8dffadc141" y="320.4"/>
      </g>
     </g>
     <g id="text_4">
      <!-- 1960 -->
      <g transform="translate(275.415289 334.275)scale(0.1 -0.1)">
       <defs>
        <path d="M 3.515625 19.53125 
Q 4.296875 30.859375 6.046875 34.765625 
Q 7.8125 38.671875 11.328125 44.53125 
L 27.34375 69.53125 
L 36.328125 69.53125 
L 19.921875 43.75 
Q 30.46875 46.484375 36.71875 42.96875 
Q 42.96875 39.453125 45.109375 34.953125 
Q 47.265625 30.46875 47.453125 25.1875 
Q 47.65625 19.921875 45.890625 14.84375 
Q 44.140625 9.765625 39.640625 5.65625 
Q 35.15625 1.5625 27.140625 1.171875 
Q 19.140625 0.78125 13.46875 4.09375 
Q 7.8125 7.421875 5.65625 13.46875 
Q 3.515625 19.53125 4.296875 30.859375 
z
M 12.5 16.015625 
Q 19.53125 8.59375 25.390625 8.203125 
Q 31.25 7.8125 35.15625 12.109375 
Q 39.0625 16.40625 39.0625 24.609375 
Q 39.0625 32.8125 34.171875 35.9375 
Q 29.296875 39.0625 23.234375 38.28125 
Q 17.1875 37.5 14.453125 32.421875 
Q 11.71875 27.34375 12.109375 21.671875 
Q 12.5 16.015625 19.53125 8.59375 
z
" id="SimHei-54"/>
       </defs>
       <use xlink:href="#SimHei-49"/>
       <use x="50" xlink:href="#SimHei-57"/>
       <use x="100" xlink:href="#SimHei-54"/>
       <use x="150" xlink:href="#SimHei-48"/>
      </g>
     </g>
    </g>
    <g id="xtick_5">
     <g id="line2d_5">
      <g>
       <use style="stroke:#000000;" x="343.059917" xlink:href="#m8dffadc141" y="320.4"/>
      </g>
     </g>
     <g id="text_5">
      <!-- 1970 -->
      <g transform="translate(333.059917 334.275)scale(0.1 -0.1)">
       <defs>
        <path d="M 13.28125 2.34375 
Q 20.3125 32.03125 37.890625 61.328125 
L 4.296875 61.328125 
L 4.296875 68.359375 
L 46.09375 68.359375 
L 46.09375 61.71875 
Q 27.734375 32.03125 21.875 2.34375 
L 13.28125 2.34375 
z
" id="SimHei-55"/>
       </defs>
       <use xlink:href="#SimHei-49"/>
       <use x="50" xlink:href="#SimHei-57"/>
       <use x="100" xlink:href="#SimHei-55"/>
       <use x="150" xlink:href="#SimHei-48"/>
      </g>
     </g>
    </g>
    <g id="xtick_6">
     <g id="line2d_6">
      <g>
       <use style="stroke:#000000;" x="400.704545" xlink:href="#m8dffadc141" y="320.4"/>
      </g>
     </g>
     <g id="text_6">
      <!-- 1980 -->
      <g transform="translate(390.704545 334.275)scale(0.1 -0.1)">
       <defs>
        <path d="M 2.734375 16.796875 
Q 2.734375 26.171875 5.078125 30.65625 
Q 7.421875 35.15625 12.890625 37.890625 
Q 8.203125 40.625 6.640625 43.9375 
Q 5.078125 47.265625 4.875 51.5625 
Q 4.6875 55.859375 6.046875 58.984375 
Q 7.421875 62.109375 10.15625 64.84375 
Q 12.890625 67.578125 16.203125 68.546875 
Q 19.53125 69.53125 23.4375 69.53125 
Q 27.34375 69.53125 30.46875 68.75 
Q 33.59375 67.96875 37.109375 65.421875 
Q 40.625 62.890625 42.1875 58.203125 
Q 43.75 53.515625 41.984375 47.265625 
Q 40.234375 41.015625 32.8125 37.5 
Q 39.453125 35.546875 42.1875 31.4375 
Q 44.921875 27.34375 44.921875 21.484375 
Q 44.921875 15.625 43.15625 12.109375 
Q 41.40625 8.59375 39.25 6.25 
Q 37.109375 3.90625 33.390625 2.53125 
Q 29.6875 1.171875 24.015625 1.171875 
Q 18.359375 1.171875 14.25 2.53125 
Q 10.15625 3.90625 7.421875 6.640625 
Q 4.6875 9.375 3.703125 13.078125 
Q 2.734375 16.796875 2.734375 26.171875 
z
M 10.9375 26.5625 
Q 10.546875 17.1875 12.296875 13.671875 
Q 14.0625 10.15625 18.75 9.171875 
Q 23.4375 8.203125 28.515625 9.375 
Q 33.59375 10.546875 35.546875 14.84375 
Q 37.5 19.140625 36.90625 23.4375 
Q 36.328125 27.734375 32.03125 30.65625 
Q 27.734375 33.59375 22.65625 33.203125 
Q 17.578125 32.8125 14.25 29.6875 
Q 10.9375 26.5625 10.546875 17.1875 
z
M 12.109375 56.25 
Q 12.109375 48.4375 14.84375 44.921875 
Q 17.578125 41.40625 23.4375 41.40625 
Q 29.296875 41.40625 32.21875 44.921875 
Q 35.15625 48.4375 34.953125 53.3125 
Q 34.765625 58.203125 31.4375 60.546875 
Q 28.125 62.890625 22.453125 62.5 
Q 16.796875 62.109375 14.453125 59.171875 
Q 12.109375 56.25 12.109375 48.4375 
z
" id="SimHei-56"/>
       </defs>
       <use xlink:href="#SimHei-49"/>
       <use x="50" xlink:href="#SimHei-57"/>
       <use x="100" xlink:href="#SimHei-56"/>
       <use x="150" xlink:href="#SimHei-48"/>
      </g>
     </g>
    </g>
    <g id="xtick_7">
     <g id="line2d_7">
      <g>
       <use style="stroke:#000000;" x="458.349174" xlink:href="#m8dffadc141" y="320.4"/>
      </g>
     </g>
     <g id="text_7">
      <!-- 1990 -->
      <g transform="translate(448.349174 334.275)scale(0.1 -0.1)">
       <use xlink:href="#SimHei-49"/>
       <use x="50" xlink:href="#SimHei-57"/>
       <use x="100" xlink:href="#SimHei-57"/>
       <use x="150" xlink:href="#SimHei-48"/>
      </g>
     </g>
    </g>
    <g id="xtick_8">
     <g id="line2d_8">
      <g>
       <use style="stroke:#000000;" x="515.993802" xlink:href="#m8dffadc141" y="320.4"/>
      </g>
     </g>
     <g id="text_8">
      <!-- 2000 -->
      <g transform="translate(505.993802 334.275)scale(0.1 -0.1)">
       <defs>
        <path d="M 4.6875 3.90625 
Q 5.078125 9.765625 10.15625 14.453125 
Q 15.234375 19.140625 23.046875 29.09375 
Q 30.859375 39.0625 33.203125 44.53125 
Q 35.546875 50 34.953125 53.90625 
Q 34.375 57.8125 31.25 60.34375 
Q 28.125 62.890625 24.015625 62.5 
Q 19.921875 62.109375 16.203125 59.375 
Q 12.5 56.640625 10.546875 51.171875 
L 3.125 52.34375 
Q 6.25 61.328125 11.125 65.421875 
Q 16.015625 69.53125 22.65625 69.921875 
Q 26.5625 70.3125 29.6875 69.71875 
Q 32.8125 69.140625 36.125 66.984375 
Q 39.453125 64.84375 41.59375 60.546875 
Q 43.75 56.25 43.15625 50.1875 
Q 42.578125 44.140625 37.109375 35.734375 
Q 31.640625 27.34375 16.015625 9.375 
L 44.140625 9.375 
L 44.140625 2.34375 
L 4.6875 2.34375 
z
" id="SimHei-50"/>
       </defs>
       <use xlink:href="#SimHei-50"/>
       <use x="50" xlink:href="#SimHei-48"/>
       <use x="100" xlink:href="#SimHei-48"/>
       <use x="150" xlink:href="#SimHei-48"/>
      </g>
     </g>
    </g>
    <g id="xtick_9">
     <g id="line2d_9">
      <g>
       <use style="stroke:#000000;" x="573.63843" xlink:href="#m8dffadc141" y="320.4"/>
      </g>
     </g>
     <g id="text_9">
      <!-- 2010 -->
      <g transform="translate(563.63843 334.275)scale(0.1 -0.1)">
       <use xlink:href="#SimHei-50"/>
       <use x="50" xlink:href="#SimHei-48"/>
       <use x="100" xlink:href="#SimHei-49"/>
       <use x="150" xlink:href="#SimHei-48"/>
      </g>
     </g>
    </g>
    <g id="xtick_10">
     <g id="line2d_10">
      <g>
       <use style="stroke:#000000;" x="631.283058" xlink:href="#m8dffadc141" y="320.4"/>
      </g>
     </g>
     <g id="text_10">
      <!-- 2020 -->
      <g transform="translate(621.283058 334.275)scale(0.1 -0.1)">
       <use xlink:href="#SimHei-50"/>
       <use x="50" xlink:href="#SimHei-48"/>
       <use x="100" xlink:href="#SimHei-50"/>
       <use x="150" xlink:href="#SimHei-48"/>
      </g>
     </g>
    </g>
    <g id="text_11">
     <!-- 上映时间 -->
     <g transform="translate(349 347.610937)scale(0.1 -0.1)">
      <defs>
       <path d="M 50.78125 79.296875 
Q 50.390625 72.65625 50.390625 66.796875 
L 50.390625 50.390625 
L 72.65625 50.390625 
Q 80.46875 50.390625 87.5 50.78125 
L 87.5 42.1875 
Q 79.6875 42.578125 71.875 42.578125 
L 50.390625 42.578125 
L 50.390625 3.125 
L 81.25 3.125 
Q 87.109375 3.125 94.921875 3.515625 
L 94.921875 -4.6875 
Q 87.5 -4.296875 81.25 -4.296875 
L 19.53125 -4.296875 
Q 13.28125 -4.296875 5.46875 -4.6875 
L 5.46875 3.515625 
Q 12.890625 3.125 19.53125 3.125 
L 42.1875 3.125 
L 42.1875 66.40625 
Q 42.1875 72.265625 41.796875 79.296875 
L 50.78125 79.296875 
z
" id="SimHei-19978"/>
       <path d="M 35.9375 33.59375 
Q 39.0625 33.203125 41.40625 33.203125 
Q 41.40625 57.421875 41.015625 64.84375 
L 60.9375 64.84375 
Q 60.9375 76.953125 60.546875 80.859375 
L 70.3125 80.078125 
Q 68.359375 78.125 68.15625 74.40625 
Q 67.96875 70.703125 67.96875 64.84375 
L 88.671875 64.84375 
Q 88.28125 55.46875 88.28125 33.203125 
Q 92.1875 33.203125 96.484375 33.59375 
L 96.484375 26.5625 
Q 89.0625 26.953125 69.921875 26.953125 
Q 73.046875 17.1875 80.265625 8.984375 
Q 87.5 0.78125 96.875 -3.515625 
Q 91.796875 -5.46875 89.453125 -10.15625 
Q 83.203125 -6.640625 75.78125 1.953125 
Q 68.359375 10.546875 64.84375 23.046875 
Q 60.9375 9.765625 53.703125 1.5625 
Q 46.484375 -6.640625 39.0625 -10.546875 
Q 35.15625 -6.25 32.03125 -4.6875 
Q 42.578125 0 49.796875 9.171875 
Q 57.03125 18.359375 58.984375 26.953125 
Q 39.453125 26.953125 35.9375 26.5625 
z
M 34.375 71.09375 
Q 33.984375 62.890625 33.984375 53.90625 
L 33.984375 25.390625 
Q 33.984375 16.40625 34.375 6.640625 
L 26.171875 6.640625 
L 26.171875 12.5 
L 13.28125 12.5 
L 13.28125 3.125 
L 5.46875 3.125 
Q 5.859375 12.890625 5.859375 22.65625 
L 5.859375 53.90625 
Q 5.859375 62.890625 5.46875 71.09375 
L 34.375 71.09375 
z
M 80.46875 33.203125 
L 80.46875 58.203125 
L 67.96875 58.203125 
Q 67.96875 46.09375 67.1875 33.203125 
z
M 49.21875 58.203125 
L 49.21875 33.203125 
L 60.15625 33.203125 
Q 60.9375 45.703125 60.9375 58.203125 
z
M 26.171875 18.75 
L 26.171875 39.0625 
L 13.28125 39.0625 
L 13.28125 18.75 
z
M 26.171875 45.3125 
L 26.171875 64.84375 
L 13.28125 64.84375 
L 13.28125 45.3125 
z
" id="SimHei-26144"/>
       <path d="M 39.453125 71.484375 
Q 39.0625 57.421875 39.0625 37.5 
Q 39.0625 17.578125 39.453125 6.25 
L 31.25 6.25 
L 31.25 13.671875 
L 15.625 13.671875 
L 15.625 0.78125 
L 7.421875 0.78125 
Q 7.8125 18.75 7.8125 36.71875 
Q 7.8125 55.078125 7.421875 71.484375 
L 39.453125 71.484375 
z
M 76.171875 59.765625 
Q 76.171875 71.484375 75.78125 81.640625 
L 84.375 81.640625 
Q 83.984375 71.484375 83.984375 59.765625 
Q 89.84375 59.765625 96.484375 60.15625 
L 96.484375 52.734375 
Q 89.84375 53.125 83.984375 53.125 
L 83.984375 0.78125 
Q 83.984375 -5.078125 79.296875 -6.640625 
Q 74.609375 -8.203125 67.1875 -8.984375 
Q 67.1875 -4.296875 62.890625 0 
Q 70.3125 -0.78125 73.234375 -0.390625 
Q 76.171875 0 76.171875 4.6875 
L 76.171875 53.125 
Q 56.640625 53.125 43.359375 52.734375 
L 43.359375 60.15625 
Q 55.859375 59.765625 76.171875 59.765625 
z
M 31.25 20.3125 
L 31.25 39.84375 
L 15.625 39.84375 
L 15.625 20.3125 
z
M 31.25 46.484375 
L 31.25 64.84375 
L 15.625 64.84375 
L 15.625 46.484375 
z
M 55.46875 42.578125 
Q 60.546875 34.375 65.234375 25 
Q 61.328125 23.828125 57.03125 21.484375 
Q 53.90625 30.859375 48.046875 39.0625 
Q 51.5625 40.625 55.46875 42.578125 
z
" id="SimHei-26102"/>
       <path d="M 69.53125 55.46875 
Q 69.140625 48.046875 69.140625 42.578125 
L 69.140625 21.875 
Q 69.140625 16.796875 69.53125 9.765625 
L 30.078125 9.765625 
Q 30.46875 16.796875 30.46875 22.265625 
L 30.46875 42.578125 
Q 30.46875 48.046875 30.078125 55.46875 
L 69.53125 55.46875 
z
M 90.625 76.171875 
Q 90.234375 68.75 90.234375 61.328125 
L 90.234375 3.90625 
Q 90.625 -5.078125 85.34375 -7.03125 
Q 80.078125 -8.984375 73.828125 -9.765625 
Q 73.4375 -5.078125 70.703125 -0.390625 
Q 78.125 -0.78125 80.265625 0.390625 
Q 82.421875 1.5625 82.421875 5.46875 
L 82.421875 69.53125 
L 58.984375 69.53125 
Q 49.609375 69.53125 41.40625 69.140625 
L 41.40625 76.5625 
Q 49.609375 76.171875 58.984375 76.171875 
z
M 8.59375 -8.203125 
Q 9.375 -0.390625 9.375 8.203125 
L 9.375 49.21875 
Q 9.375 57.421875 8.59375 62.890625 
L 17.578125 62.890625 
Q 17.1875 57.03125 17.1875 51.5625 
L 17.1875 7.8125 
Q 17.1875 0 17.578125 -8.203125 
z
M 61.71875 16.015625 
L 61.71875 30.46875 
L 37.890625 30.46875 
L 37.890625 16.015625 
z
M 61.71875 36.71875 
L 61.71875 49.21875 
L 37.890625 49.21875 
L 37.890625 36.71875 
z
M 23.828125 82.8125 
Q 27.34375 78.125 34.765625 67.96875 
Q 30.46875 66.015625 26.5625 63.671875 
Q 22.65625 71.484375 16.796875 78.515625 
Q 21.09375 81.640625 23.828125 82.8125 
z
" id="SimHei-38388"/>
      </defs>
      <use xlink:href="#SimHei-19978"/>
      <use x="100" xlink:href="#SimHei-26144"/>
      <use x="200" xlink:href="#SimHei-26102"/>
      <use x="300" xlink:href="#SimHei-38388"/>
     </g>
    </g>
   </g>
   <g id="matplotlib.axis_2">
    <g id="ytick_1">
     <g id="line2d_11">
      <defs>
       <path d="M 0 0 
L -3.5 0 
" id="md0d077b64b" style="stroke:#000000;"/>
      </defs>
      <g>
       <use style="stroke:#000000;" x="90" xlink:href="#md0d077b64b" y="320.4"/>
      </g>
     </g>
     <g id="text_12">
      <!-- 0 -->
      <g transform="translate(78 323.8375)scale(0.1 -0.1)">
       <use xlink:href="#SimHei-48"/>
      </g>
     </g>
    </g>
    <g id="ytick_2">
     <g id="line2d_12">
      <g>
       <use style="stroke:#000000;" x="90" xlink:href="#md0d077b64b" y="279.784615"/>
      </g>
     </g>
     <g id="text_13">
      <!-- 2 -->
      <g transform="translate(78 283.222115)scale(0.1 -0.1)">
       <use xlink:href="#SimHei-50"/>
      </g>
     </g>
    </g>
    <g id="ytick_3">
     <g id="line2d_13">
      <g>
       <use style="stroke:#000000;" x="90" xlink:href="#md0d077b64b" y="239.169231"/>
      </g>
     </g>
     <g id="text_14">
      <!-- 4 -->
      <g transform="translate(78 242.606731)scale(0.1 -0.1)">
       <use xlink:href="#SimHei-52"/>
      </g>
     </g>
    </g>
    <g id="ytick_4">
     <g id="line2d_14">
      <g>
       <use style="stroke:#000000;" x="90" xlink:href="#md0d077b64b" y="198.553846"/>
      </g>
     </g>
     <g id="text_15">
      <!-- 6 -->
      <g transform="translate(78 201.991346)scale(0.1 -0.1)">
       <use xlink:href="#SimHei-54"/>
      </g>
     </g>
    </g>
    <g id="ytick_5">
     <g id="line2d_15">
      <g>
       <use style="stroke:#000000;" x="90" xlink:href="#md0d077b64b" y="157.938462"/>
      </g>
     </g>
     <g id="text_16">
      <!-- 8 -->
      <g transform="translate(78 161.375962)scale(0.1 -0.1)">
       <use xlink:href="#SimHei-56"/>
      </g>
     </g>
    </g>
    <g id="ytick_6">
     <g id="line2d_16">
      <g>
       <use style="stroke:#000000;" x="90" xlink:href="#md0d077b64b" y="117.323077"/>
      </g>
     </g>
     <g id="text_17">
      <!-- 10 -->
      <g transform="translate(73 120.760577)scale(0.1 -0.1)">
       <use xlink:href="#SimHei-49"/>
       <use x="50" xlink:href="#SimHei-48"/>
      </g>
     </g>
    </g>
    <g id="ytick_7">
     <g id="line2d_17">
      <g>
       <use style="stroke:#000000;" x="90" xlink:href="#md0d077b64b" y="76.707692"/>
      </g>
     </g>
     <g id="text_18">
      <!-- 12 -->
      <g transform="translate(73 80.145192)scale(0.1 -0.1)">
       <use xlink:href="#SimHei-49"/>
       <use x="50" xlink:href="#SimHei-50"/>
      </g>
     </g>
    </g>
    <g id="text_19">
     <!-- 电影数量 -->
     <g transform="translate(67.75 201.8)rotate(-90)scale(0.1 -0.1)">
      <defs>
       <path d="M 96.09375 5.078125 
Q 93.359375 -3.90625 91.015625 -6.4375 
Q 88.671875 -8.984375 83.203125 -8.984375 
L 52.734375 -8.984375 
Q 42.1875 -9.375 41.796875 1.5625 
L 41.796875 15.234375 
L 19.140625 15.234375 
L 19.140625 7.8125 
L 10.15625 7.8125 
Q 10.546875 11.71875 10.546875 34.765625 
Q 10.546875 57.8125 10.15625 64.84375 
L 41.796875 64.84375 
Q 41.796875 75.390625 41.40625 81.25 
L 50 81.25 
Q 49.609375 76.171875 49.609375 64.84375 
L 81.25 64.84375 
Q 80.859375 58.984375 80.859375 40.625 
Q 80.859375 22.65625 81.25 15.234375 
L 49.609375 15.234375 
L 49.609375 4.6875 
Q 49.609375 -2.34375 57.03125 -2.34375 
L 77.734375 -2.34375 
Q 83.984375 -2.34375 85.15625 0.390625 
Q 86.328125 3.125 87.109375 8.984375 
Q 91.015625 6.25 96.09375 5.078125 
z
M 73.046875 21.875 
L 73.046875 37.5 
L 49.609375 37.5 
L 49.609375 21.875 
z
M 41.796875 21.875 
L 41.796875 37.5 
L 19.140625 37.5 
L 19.140625 21.875 
z
M 73.046875 43.75 
L 73.046875 58.203125 
L 49.609375 58.203125 
L 49.609375 43.75 
z
M 41.796875 43.75 
L 41.796875 58.203125 
L 19.140625 58.203125 
L 19.140625 43.75 
z
" id="SimHei-30005"/>
       <path d="M 55.46875 78.515625 
Q 54.6875 72.265625 54.875 65.421875 
Q 55.078125 58.59375 55.46875 51.953125 
L 12.109375 51.953125 
Q 12.5 58.59375 12.296875 65.421875 
Q 12.109375 72.265625 12.109375 78.515625 
L 55.46875 78.515625 
z
M 22.65625 -1.5625 
Q 32.03125 -1.171875 30.859375 3.125 
L 30.859375 17.1875 
L 12.109375 17.1875 
Q 12.5 21.484375 12.296875 25.78125 
Q 12.109375 30.078125 12.109375 34.765625 
L 55.46875 34.765625 
Q 55.078125 30.078125 54.875 25.78125 
Q 54.6875 21.484375 55.46875 17.1875 
L 38.671875 17.1875 
L 38.671875 2.734375 
Q 39.0625 -3.90625 35.9375 -5.859375 
Q 32.8125 -7.8125 25.390625 -9.375 
Q 24.609375 -5.078125 22.65625 -1.5625 
z
M 37.109375 50.78125 
Q 37.5 48.046875 37.890625 44.921875 
L 49.609375 44.921875 
Q 56.25 44.921875 63.28125 45.3125 
L 63.28125 38.671875 
Q 56.25 39.0625 49.609375 39.0625 
L 18.75 39.0625 
Q 10.9375 39.0625 4.296875 38.671875 
L 4.296875 45.3125 
Q 10.9375 44.921875 18.75 44.921875 
L 29.6875 44.921875 
Q 29.296875 47.265625 28.90625 50 
Q 32.8125 50.78125 37.109375 50.78125 
z
M 96.09375 21.09375 
Q 88.671875 12.109375 78.125 3.515625 
Q 67.578125 -5.078125 58.203125 -10.15625 
Q 55.859375 -6.25 53.125 -3.90625 
Q 62.109375 0.390625 71.875 7.8125 
Q 81.640625 15.234375 90.234375 26.953125 
Q 92.96875 23.828125 96.09375 21.09375 
z
M 92.578125 48.828125 
Q 87.890625 44.53125 81.4375 36.90625 
Q 75 29.296875 65.625 22.265625 
Q 62.890625 25.390625 59.375 26.953125 
Q 68.359375 32.03125 74.796875 39.453125 
Q 81.25 46.875 86.328125 54.6875 
Q 88.671875 51.953125 92.578125 48.828125 
z
M 89.453125 75.390625 
Q 83.203125 71.09375 78.703125 65.03125 
Q 74.21875 58.984375 65.234375 51.171875 
Q 62.109375 53.90625 59.375 55.46875 
Q 65.234375 59.765625 71.09375 66.203125 
Q 76.953125 72.65625 81.640625 80.859375 
Q 84.765625 78.125 89.453125 75.390625 
z
M 48.046875 23.046875 
L 48.046875 28.90625 
L 19.53125 28.90625 
L 19.53125 23.046875 
z
M 48.046875 57.8125 
L 48.046875 62.5 
L 19.53125 62.5 
L 19.53125 57.8125 
z
M 48.046875 68.359375 
L 48.046875 73.046875 
L 19.53125 73.046875 
L 19.53125 68.359375 
z
M 23.4375 7.8125 
Q 16.796875 1.171875 8.984375 -5.078125 
Q 7.421875 -2.734375 4.296875 -0.390625 
Q 10.9375 3.90625 17.578125 12.890625 
Q 20.3125 9.765625 23.4375 7.8125 
z
M 50.78125 -0.78125 
Q 47.65625 4.296875 42.96875 8.59375 
Q 45.3125 10.9375 48.046875 13.28125 
Q 53.125 8.203125 56.25 3.90625 
L 50.78125 -0.78125 
z
" id="SimHei-24433"/>
       <path d="M 70.703125 76.953125 
Q 69.921875 75 68.75 71.671875 
Q 67.578125 68.359375 65.234375 59.765625 
L 83.203125 59.765625 
Q 87.109375 59.765625 92.578125 60.15625 
L 92.578125 53.125 
Q 88.28125 53.515625 85.9375 53.515625 
Q 85.9375 47.265625 83.78125 33.78125 
Q 81.640625 20.3125 76.171875 10.546875 
Q 80.078125 5.859375 84.953125 2.140625 
Q 89.84375 -1.5625 94.140625 -3.125 
Q 89.453125 -6.640625 87.890625 -9.765625 
Q 83.203125 -7.03125 79.296875 -3.515625 
Q 75.390625 0 71.484375 5.078125 
Q 67.1875 0.390625 62.296875 -2.921875 
Q 57.421875 -6.25 50 -10.15625 
Q 48.046875 -6.640625 44.53125 -4.6875 
Q 50.390625 -2.34375 57.03125 1.953125 
Q 63.671875 6.25 67.1875 10.546875 
Q 64.453125 16.015625 61.90625 22.265625 
Q 59.375 28.515625 57.421875 38.671875 
Q 56.25 35.546875 53.515625 30.46875 
Q 50.78125 32.03125 46.875 33.59375 
Q 53.125 44.53125 57.03125 57.421875 
Q 60.9375 70.3125 62.109375 79.6875 
Q 66.796875 77.734375 70.703125 76.953125 
z
M 32.8125 35.15625 
Q 31.25 33.59375 29.296875 30.078125 
L 50.78125 30.078125 
Q 48.4375 20.3125 42.578125 10.546875 
Q 48.828125 8.203125 52.34375 6.25 
Q 50.390625 3.515625 48.828125 0.390625 
Q 45.3125 2.734375 38.28125 5.078125 
Q 30.46875 -3.515625 11.328125 -10.15625 
Q 9.375 -5.859375 6.25 -4.296875 
Q 24.609375 0 31.25 7.421875 
Q 20.3125 10.15625 13.28125 12.109375 
Q 15.625 15.625 19.53125 23.828125 
Q 15.625 23.828125 6.640625 23.4375 
L 6.640625 30.46875 
Q 14.0625 30.078125 21.875 30.078125 
Q 23.4375 33.59375 24.21875 37.890625 
Q 28.515625 36.328125 32.8125 35.15625 
z
M 27.734375 61.71875 
Q 27.734375 71.09375 27.34375 79.6875 
L 35.15625 79.6875 
Q 34.765625 71.484375 34.765625 61.71875 
Q 48.046875 61.71875 53.515625 62.109375 
L 53.515625 55.078125 
Q 48.046875 55.46875 34.765625 55.46875 
Q 34.765625 44.140625 35.15625 37.890625 
L 27.34375 37.890625 
Q 27.734375 43.359375 27.734375 51.5625 
Q 25.78125 48.4375 20.3125 43.546875 
Q 14.84375 38.671875 10.15625 35.9375 
Q 8.203125 39.453125 4.296875 41.015625 
Q 7.8125 42.1875 13.671875 46.484375 
Q 19.53125 50.78125 22.65625 55.46875 
Q 14.84375 55.46875 7.8125 55.078125 
L 7.8125 62.109375 
Q 14.453125 61.71875 27.734375 61.71875 
z
M 62.109375 49.609375 
Q 65.625 26.5625 71.875 17.578125 
Q 75.78125 26.5625 77.140625 35.734375 
Q 78.515625 44.921875 78.90625 53.515625 
L 63.671875 53.515625 
L 62.109375 49.609375 
z
M 22.65625 15.625 
Q 27.34375 14.453125 35.546875 12.5 
Q 38.671875 16.40625 41.40625 23.828125 
L 26.953125 23.828125 
Q 25 19.921875 22.65625 15.625 
z
M 51.953125 75.390625 
Q 50 72.265625 48.828125 69.53125 
Q 47.65625 66.796875 45.703125 62.890625 
Q 42.578125 64.453125 39.453125 65.234375 
Q 42.578125 70.3125 45.3125 78.125 
Q 49.21875 76.171875 51.953125 75.390625 
z
M 40.234375 52.734375 
Q 45.3125 47.65625 50 42.578125 
Q 47.65625 40.625 44.921875 37.890625 
Q 39.453125 44.53125 35.9375 48.4375 
Q 38.28125 50.390625 40.234375 52.734375 
z
M 14.453125 78.125 
Q 19.921875 72.65625 23.4375 67.1875 
L 17.578125 63.671875 
Q 14.84375 69.140625 9.375 73.828125 
Q 12.890625 76.171875 14.453125 78.125 
z
" id="SimHei-25968"/>
       <path d="M 82.03125 39.0625 
Q 81.640625 34.375 81.640625 26.5625 
Q 81.640625 19.140625 82.03125 14.84375 
L 53.515625 14.84375 
L 53.515625 9.765625 
L 71.484375 9.765625 
Q 78.125 9.765625 83.984375 10.15625 
L 83.984375 4.296875 
Q 78.515625 4.6875 71.484375 4.6875 
L 53.515625 4.6875 
L 53.515625 -1.171875 
L 80.078125 -1.171875 
Q 86.328125 -1.171875 92.578125 -0.78125 
L 92.578125 -6.640625 
Q 86.328125 -6.25 80.078125 -6.25 
L 19.921875 -6.25 
Q 14.0625 -6.25 7.421875 -6.640625 
L 7.421875 -0.78125 
Q 14.453125 -0.78125 19.921875 -1.171875 
L 46.484375 -1.171875 
L 46.484375 4.6875 
L 26.953125 4.6875 
Q 21.09375 4.6875 15.234375 3.90625 
L 15.234375 10.15625 
Q 21.484375 9.765625 26.953125 9.765625 
L 46.484375 9.765625 
L 46.484375 14.84375 
L 17.96875 14.84375 
Q 18.359375 21.484375 18.359375 27.734375 
Q 18.359375 33.984375 17.96875 39.0625 
L 82.03125 39.0625 
z
M 81.25 77.34375 
Q 80.859375 71.484375 80.859375 66.40625 
Q 80.859375 61.328125 81.25 53.125 
L 18.75 53.125 
Q 19.140625 61.328125 19.140625 66.40625 
Q 19.140625 71.484375 18.75 77.34375 
L 81.25 77.34375 
z
M 76.5625 48.4375 
Q 85.9375 48.828125 93.75 49.21875 
L 93.75 42.96875 
Q 85.9375 43.359375 76.953125 43.359375 
L 25.78125 43.359375 
Q 15.234375 43.359375 5.078125 42.96875 
L 5.078125 49.21875 
Q 15.234375 48.828125 25.78125 48.4375 
z
M 73.828125 57.8125 
L 73.828125 62.890625 
L 26.171875 62.890625 
L 26.171875 57.8125 
z
M 73.828125 67.96875 
L 73.828125 72.65625 
L 26.171875 72.65625 
L 26.171875 67.96875 
z
M 74.21875 29.296875 
L 74.21875 33.984375 
L 53.515625 33.984375 
L 53.515625 29.296875 
z
M 46.484375 29.296875 
L 46.484375 33.984375 
L 25.78125 33.984375 
L 25.78125 29.296875 
z
M 46.484375 19.921875 
L 46.484375 24.21875 
L 25.78125 24.21875 
L 25.78125 19.921875 
z
M 74.21875 19.921875 
L 74.21875 24.21875 
L 53.515625 24.21875 
L 53.515625 19.921875 
z
" id="SimHei-37327"/>
      </defs>
      <use xlink:href="#SimHei-30005"/>
      <use x="100" xlink:href="#SimHei-24433"/>
      <use x="200" xlink:href="#SimHei-25968"/>
      <use x="300" xlink:href="#SimHei-37327"/>
     </g>
    </g>
   </g>
   <g id="patch_58">
    <path d="M 90 320.4 
L 90 43.2 
" style="fill:none;stroke:#000000;stroke-linecap:square;stroke-linejoin:miter;stroke-width:0.8;"/>
   </g>
   <g id="patch_59">
    <path d="M 648 320.4 
L 648 43.2 
" style="fill:none;stroke:#000000;stroke-linecap:square;stroke-linejoin:miter;stroke-width:0.8;"/>
   </g>
   <g id="patch_60">
    <path d="M 90 320.4 
L 648 320.4 
" style="fill:none;stroke:#000000;stroke-linecap:square;stroke-linejoin:miter;stroke-width:0.8;"/>
   </g>
   <g id="patch_61">
    <path d="M 90 43.2 
L 648 43.2 
" style="fill:none;stroke:#000000;stroke-linecap:square;stroke-linejoin:miter;stroke-width:0.8;"/>
   </g>
   <g id="text_20">
    <!-- 1 -->
    <g transform="translate(115.245868 298.592308)scale(0.12 -0.12)">
     <use xlink:href="#SimHei-49"/>
    </g>
   </g>
   <g id="text_21">
    <!-- 1 -->
    <g transform="translate(144.068182 298.592308)scale(0.12 -0.12)">
     <use xlink:href="#SimHei-49"/>
    </g>
   </g>
   <g id="text_22">
    <!-- 1 -->
    <g transform="translate(161.36157 298.592308)scale(0.12 -0.12)">
     <use xlink:href="#SimHei-49"/>
    </g>
   </g>
   <g id="text_23">
    <!-- 1 -->
    <g transform="translate(167.126033 298.592308)scale(0.12 -0.12)">
     <use xlink:href="#SimHei-49"/>
    </g>
   </g>
   <g id="text_24">
    <!-- 1 -->
    <g transform="translate(224.770661 298.592308)scale(0.12 -0.12)">
     <use xlink:href="#SimHei-49"/>
    </g>
   </g>
   <g id="text_25">
    <!-- 1 -->
    <g transform="translate(236.299587 298.592308)scale(0.12 -0.12)">
     <use xlink:href="#SimHei-49"/>
    </g>
   </g>
   <g id="text_26">
    <!-- 2 -->
    <g transform="translate(242.06405 278.284615)scale(0.12 -0.12)">
     <use xlink:href="#SimHei-50"/>
    </g>
   </g>
   <g id="text_27">
    <!-- 1 -->
    <g transform="translate(247.828512 298.592308)scale(0.12 -0.12)">
     <use xlink:href="#SimHei-49"/>
    </g>
   </g>
   <g id="text_28">
    <!-- 2 -->
    <g transform="translate(265.121901 278.284615)scale(0.12 -0.12)">
     <use xlink:href="#SimHei-50"/>
    </g>
   </g>
   <g id="text_29">
    <!-- 1 -->
    <g transform="translate(282.415289 298.592308)scale(0.12 -0.12)">
     <use xlink:href="#SimHei-49"/>
    </g>
   </g>
   <g id="text_30">
    <!-- 1 -->
    <g transform="translate(288.179752 298.592308)scale(0.12 -0.12)">
     <use xlink:href="#SimHei-49"/>
    </g>
   </g>
   <g id="text_31">
    <!-- 1 -->
    <g transform="translate(311.237603 298.592308)scale(0.12 -0.12)">
     <use xlink:href="#SimHei-49"/>
    </g>
   </g>
   <g id="text_32">
    <!-- 1 -->
    <g transform="translate(317.002066 298.592308)scale(0.12 -0.12)">
     <use xlink:href="#SimHei-49"/>
    </g>
   </g>
   <g id="text_33">
    <!-- 1 -->
    <g transform="translate(328.530992 298.592308)scale(0.12 -0.12)">
     <use xlink:href="#SimHei-49"/>
    </g>
   </g>
   <g id="text_34">
    <!-- 1 -->
    <g transform="translate(345.82438 298.592308)scale(0.12 -0.12)">
     <use xlink:href="#SimHei-49"/>
    </g>
   </g>
   <g id="text_35">
    <!-- 1 -->
    <g transform="translate(351.588843 298.592308)scale(0.12 -0.12)">
     <use xlink:href="#SimHei-49"/>
    </g>
   </g>
   <g id="text_36">
    <!-- 1 -->
    <g transform="translate(363.117769 298.592308)scale(0.12 -0.12)">
     <use xlink:href="#SimHei-49"/>
    </g>
   </g>
   <g id="text_37">
    <!-- 1 -->
    <g transform="translate(368.882231 298.592308)scale(0.12 -0.12)">
     <use xlink:href="#SimHei-49"/>
    </g>
   </g>
   <g id="text_38">
    <!-- 1 -->
    <g transform="translate(391.940083 298.592308)scale(0.12 -0.12)">
     <use xlink:href="#SimHei-49"/>
    </g>
   </g>
   <g id="text_39">
    <!-- 1 -->
    <g transform="translate(409.233471 298.592308)scale(0.12 -0.12)">
     <use xlink:href="#SimHei-49"/>
    </g>
   </g>
   <g id="text_40">
    <!-- 1 -->
    <g transform="translate(414.997934 298.592308)scale(0.12 -0.12)">
     <use xlink:href="#SimHei-49"/>
    </g>
   </g>
   <g id="text_41">
    <!-- 2 -->
    <g transform="translate(420.762397 278.284615)scale(0.12 -0.12)">
     <use xlink:href="#SimHei-50"/>
    </g>
   </g>
   <g id="text_42">
    <!-- 2 -->
    <g transform="translate(432.291322 278.284615)scale(0.12 -0.12)">
     <use xlink:href="#SimHei-50"/>
    </g>
   </g>
   <g id="text_43">
    <!-- 3 -->
    <g transform="translate(438.055785 257.976923)scale(0.12 -0.12)">
     <use xlink:href="#SimHei-51"/>
    </g>
   </g>
   <g id="text_44">
    <!-- 4 -->
    <g transform="translate(443.820248 237.669231)scale(0.12 -0.12)">
     <use xlink:href="#SimHei-52"/>
    </g>
   </g>
   <g id="text_45">
    <!-- 2 -->
    <g transform="translate(449.584711 278.284615)scale(0.12 -0.12)">
     <use xlink:href="#SimHei-50"/>
    </g>
   </g>
   <g id="text_46">
    <!-- 3 -->
    <g transform="translate(455.349174 257.976923)scale(0.12 -0.12)">
     <use xlink:href="#SimHei-51"/>
    </g>
   </g>
   <g id="text_47">
    <!-- 4 -->
    <g transform="translate(461.113636 237.669231)scale(0.12 -0.12)">
     <use xlink:href="#SimHei-52"/>
    </g>
   </g>
   <g id="text_48">
    <!-- 2 -->
    <g transform="translate(466.878099 278.284615)scale(0.12 -0.12)">
     <use xlink:href="#SimHei-50"/>
    </g>
   </g>
   <g id="text_49">
    <!-- 7 -->
    <g transform="translate(472.642562 176.746154)scale(0.12 -0.12)">
     <use xlink:href="#SimHei-55"/>
    </g>
   </g>
   <g id="text_50">
    <!-- 12 -->
    <g transform="translate(475.407025 75.207692)scale(0.12 -0.12)">
     <use xlink:href="#SimHei-49"/>
     <use x="50" xlink:href="#SimHei-50"/>
    </g>
   </g>
   <g id="text_51">
    <!-- 7 -->
    <g transform="translate(484.171488 176.746154)scale(0.12 -0.12)">
     <use xlink:href="#SimHei-55"/>
    </g>
   </g>
   <g id="text_52">
    <!-- 2 -->
    <g transform="translate(489.93595 278.284615)scale(0.12 -0.12)">
     <use xlink:href="#SimHei-50"/>
    </g>
   </g>
   <g id="text_53">
    <!-- 8 -->
    <g transform="translate(495.700413 156.438462)scale(0.12 -0.12)">
     <use xlink:href="#SimHei-56"/>
    </g>
   </g>
   <g id="text_54">
    <!-- 5 -->
    <g transform="translate(501.464876 217.361538)scale(0.12 -0.12)">
     <use xlink:href="#SimHei-53"/>
    </g>
   </g>
   <g id="text_55">
    <!-- 6 -->
    <g transform="translate(507.229339 197.053846)scale(0.12 -0.12)">
     <use xlink:href="#SimHei-54"/>
    </g>
   </g>
   <g id="text_56">
    <!-- 5 -->
    <g transform="translate(512.993802 217.361538)scale(0.12 -0.12)">
     <use xlink:href="#SimHei-53"/>
    </g>
   </g>
   <g id="text_57">
    <!-- 9 -->
    <g transform="translate(518.758264 136.130769)scale(0.12 -0.12)">
     <use xlink:href="#SimHei-57"/>
    </g>
   </g>
   <g id="text_58">
    <!-- 8 -->
    <g transform="translate(524.522727 156.438462)scale(0.12 -0.12)">
     <use xlink:href="#SimHei-56"/>
    </g>
   </g>
   <g id="text_59">
    <!-- 8 -->
    <g transform="translate(530.28719 156.438462)scale(0.12 -0.12)">
     <use xlink:href="#SimHei-56"/>
    </g>
   </g>
   <g id="text_60">
    <!-- 13 -->
    <g transform="translate(533.051653 54.9)scale(0.12 -0.12)">
     <use xlink:href="#SimHei-49"/>
     <use x="50" xlink:href="#SimHei-51"/>
    </g>
   </g>
   <g id="text_61">
    <!-- 4 -->
    <g transform="translate(541.816116 237.669231)scale(0.12 -0.12)">
     <use xlink:href="#SimHei-52"/>
    </g>
   </g>
   <g id="text_62">
    <!-- 9 -->
    <g transform="translate(547.580579 136.130769)scale(0.12 -0.12)">
     <use xlink:href="#SimHei-57"/>
    </g>
   </g>
   <g id="text_63">
    <!-- 4 -->
    <g transform="translate(553.345041 237.669231)scale(0.12 -0.12)">
     <use xlink:href="#SimHei-52"/>
    </g>
   </g>
   <g id="text_64">
    <!-- 9 -->
    <g transform="translate(559.109504 136.130769)scale(0.12 -0.12)">
     <use xlink:href="#SimHei-57"/>
    </g>
   </g>
   <g id="text_65">
    <!-- 9 -->
    <g transform="translate(564.873967 136.130769)scale(0.12 -0.12)">
     <use xlink:href="#SimHei-57"/>
    </g>
   </g>
   <g id="text_66">
    <!-- 13 -->
    <g transform="translate(567.63843 54.9)scale(0.12 -0.12)">
     <use xlink:href="#SimHei-49"/>
     <use x="50" xlink:href="#SimHei-51"/>
    </g>
   </g>
   <g id="text_67">
    <!-- 9 -->
    <g transform="translate(576.402893 136.130769)scale(0.12 -0.12)">
     <use xlink:href="#SimHei-57"/>
    </g>
   </g>
   <g id="text_68">
    <!-- 5 -->
    <g transform="translate(582.167355 217.361538)scale(0.12 -0.12)">
     <use xlink:href="#SimHei-53"/>
    </g>
   </g>
   <g id="text_69">
    <!-- 11 -->
    <g transform="translate(584.931818 95.515385)scale(0.12 -0.12)">
     <use xlink:href="#SimHei-49"/>
     <use x="50" xlink:href="#SimHei-49"/>
    </g>
   </g>
   <g id="text_70">
    <!-- 9 -->
    <g transform="translate(593.696281 136.130769)scale(0.12 -0.12)">
     <use xlink:href="#SimHei-57"/>
    </g>
   </g>
   <g id="text_71">
    <!-- 10 -->
    <g transform="translate(596.460744 115.823077)scale(0.12 -0.12)">
     <use xlink:href="#SimHei-49"/>
     <use x="50" xlink:href="#SimHei-48"/>
    </g>
   </g>
   <g id="text_72">
    <!-- 9 -->
    <g transform="translate(605.225207 136.130769)scale(0.12 -0.12)">
     <use xlink:href="#SimHei-57"/>
    </g>
   </g>
   <g id="text_73">
    <!-- 7 -->
    <g transform="translate(610.989669 176.746154)scale(0.12 -0.12)">
     <use xlink:href="#SimHei-55"/>
    </g>
   </g>
   <g id="text_74">
    <!-- 7 -->
    <g transform="translate(616.754132 176.746154)scale(0.12 -0.12)">
     <use xlink:href="#SimHei-55"/>
    </g>
   </g>
   <g id="text_75">
    <!-- 上映时间分布 -->
    <g transform="translate(333 37.2)scale(0.12 -0.12)">
     <defs>
      <path d="M 15.625 -10.15625 
Q 12.890625 -5.859375 8.984375 -3.515625 
Q 15.234375 -1.171875 20.3125 2.140625 
Q 25.390625 5.46875 29.296875 10.34375 
Q 33.203125 15.234375 35.15625 21.09375 
Q 37.109375 26.953125 37.890625 35.546875 
Q 28.90625 35.546875 23.4375 35.15625 
L 23.4375 43.359375 
Q 29.6875 42.96875 39.453125 42.96875 
L 78.515625 42.96875 
Q 77.734375 37.109375 77.34375 32.8125 
L 74.21875 3.90625 
Q 73.4375 -3.125 67.96875 -5.46875 
Q 62.5 -7.8125 55.859375 -8.203125 
Q 55.46875 -4.296875 51.953125 0.78125 
Q 60.15625 0.390625 63.078125 1.359375 
Q 66.015625 2.34375 66.796875 8.203125 
L 69.53125 35.546875 
L 46.09375 35.546875 
Q 44.921875 25.390625 42.765625 18.546875 
Q 40.625 11.71875 36.71875 6.640625 
Q 32.8125 1.5625 27.34375 -2.734375 
Q 21.875 -7.03125 15.625 -10.15625 
z
M 61.71875 80.859375 
Q 64.453125 72.65625 72.84375 62.109375 
Q 81.25 51.5625 96.484375 43.75 
Q 93.359375 41.015625 90.234375 35.546875 
Q 83.203125 40.625 77.921875 45.109375 
Q 72.65625 49.609375 69.140625 53.515625 
Q 65.625 57.421875 61.328125 64.640625 
Q 57.03125 71.875 54.296875 78.125 
Q 58.59375 79.296875 61.71875 80.859375 
z
M 42.1875 75.390625 
Q 38.671875 69.140625 36.328125 64.453125 
Q 33.984375 59.765625 31.640625 56.046875 
Q 29.296875 52.34375 24.609375 46.09375 
Q 19.921875 39.84375 13.28125 33.203125 
Q 9.765625 36.71875 6.25 38.671875 
Q 14.0625 45.703125 18.546875 51.5625 
Q 23.046875 57.421875 27.140625 64.25 
Q 31.25 71.09375 34.375 79.296875 
Q 37.5 76.953125 42.1875 75.390625 
z
" id="SimHei-20998"/>
      <path d="M 37.109375 66.015625 
Q 41.40625 74.609375 43.359375 82.8125 
Q 48.828125 80.859375 53.125 79.296875 
Q 51.171875 77.734375 46.09375 66.015625 
L 75 66.015625 
Q 86.71875 66.015625 94.140625 66.40625 
L 94.140625 59.375 
L 42.578125 59.375 
Q 36.328125 48.4375 30.859375 41.796875 
L 51.171875 41.796875 
Q 51.171875 50.390625 50.78125 55.859375 
L 58.984375 55.859375 
Q 58.59375 50.390625 58.59375 41.796875 
L 85.9375 41.796875 
Q 85.546875 34.765625 85.546875 27.734375 
L 85.546875 11.71875 
Q 85.546875 4.296875 81.4375 2.34375 
Q 77.34375 0.390625 69.53125 -0.390625 
Q 68.75 5.078125 66.015625 8.59375 
Q 75 8.59375 76.75 9.765625 
Q 78.515625 10.9375 78.125 16.015625 
L 78.125 35.15625 
L 58.59375 35.15625 
L 58.59375 8.59375 
Q 58.59375 0.390625 58.984375 -9.375 
L 50.78125 -9.375 
Q 51.171875 0.390625 51.171875 8.59375 
L 51.171875 35.15625 
L 32.8125 35.15625 
L 32.8125 0 
L 25 0 
Q 25.390625 8.203125 25.390625 16.015625 
L 25.390625 34.765625 
Q 20.3125 28.90625 10.15625 19.921875 
Q 7.421875 23.046875 3.125 25.78125 
Q 11.71875 31.640625 19.71875 40.03125 
Q 27.734375 48.4375 33.59375 59.375 
L 24.21875 59.375 
Q 14.453125 59.375 6.25 58.984375 
L 6.25 66.40625 
Q 14.453125 66.015625 24.21875 66.015625 
z
" id="SimHei-24067"/>
     </defs>
     <use xlink:href="#SimHei-19978"/>
     <use x="100" xlink:href="#SimHei-26144"/>
     <use x="200" xlink:href="#SimHei-26102"/>
     <use x="300" xlink:href="#SimHei-38388"/>
     <use x="400" xlink:href="#SimHei-20998"/>
     <use x="500" xlink:href="#SimHei-24067"/>
    </g>
   </g>
  </g>
 </g>
 <defs>
  <clipPath id="p96aea00f6b">
   <rect height="277.2" width="558" x="90" y="43.2"/>
  </clipPath>
 </defs>
</svg>
