<?xml version="1.0" encoding="utf-8" standalone="no"?>
<!DOCTYPE svg PUBLIC "-//W3C//DTD SVG 1.1//EN"
  "http://www.w3.org/Graphics/SVG/1.1/DTD/svg11.dtd">
<!-- Created with matplotlib (https://matplotlib.org/) -->
<svg height="360pt" version="1.1" viewBox="0 0 576 360" width="576pt" xmlns="http://www.w3.org/2000/svg" xmlns:xlink="http://www.w3.org/1999/xlink">
 <metadata>
  <rdf:RDF xmlns:cc="http://creativecommons.org/ns#" xmlns:dc="http://purl.org/dc/elements/1.1/" xmlns:rdf="http://www.w3.org/1999/02/22-rdf-syntax-ns#">
   <cc:Work>
    <dc:type rdf:resource="http://purl.org/dc/dcmitype/StillImage"/>
    <dc:date>2020-09-10T22:38:55.779457</dc:date>
    <dc:format>image/svg+xml</dc:format>
    <dc:creator>
     <cc:Agent>
      <dc:title>Matplotlib v3.3.1, https://matplotlib.org/</dc:title>
     </cc:Agent>
    </dc:creator>
   </cc:Work>
  </rdf:RDF>
 </metadata>
 <defs>
  <style type="text/css">*{stroke-linecap:butt;stroke-linejoin:round;}</style>
 </defs>
 <g id="figure_1">
  <g id="patch_1">
   <path d="M 0 360 
L 576 360 
L 576 0 
L 0 0 
z
" style="fill:#ffffff;"/>
  </g>
  <g id="axes_1">
   <g id="patch_2">
    <path d="M 72 320.4 
L 518.4 320.4 
L 518.4 43.2 
L 72 43.2 
z
" style="fill:#ffffff;"/>
   </g>
   <g id="patch_3">
    <path clip-path="url(#p6753c9f2a5)" d="M 92.290909 320.4 
L 114.227027 320.4 
L 114.227027 314.4 
L 92.290909 314.4 
z
" style="fill:#1f77b4;"/>
   </g>
   <g id="patch_4">
    <path clip-path="url(#p6753c9f2a5)" d="M 119.711057 320.4 
L 141.647174 320.4 
L 141.647174 302.4 
L 119.711057 302.4 
z
" style="fill:#1f77b4;"/>
   </g>
   <g id="patch_5">
    <path clip-path="url(#p6753c9f2a5)" d="M 147.131204 320.4 
L 169.067322 320.4 
L 169.067322 236.4 
L 147.131204 236.4 
z
" style="fill:#1f77b4;"/>
   </g>
   <g id="patch_6">
    <path clip-path="url(#p6753c9f2a5)" d="M 174.551351 320.4 
L 196.487469 320.4 
L 196.487469 152.4 
L 174.551351 152.4 
z
" style="fill:#1f77b4;"/>
   </g>
   <g id="patch_7">
    <path clip-path="url(#p6753c9f2a5)" d="M 201.971499 320.4 
L 223.907617 320.4 
L 223.907617 80.4 
L 201.971499 80.4 
z
" style="fill:#1f77b4;"/>
   </g>
   <g id="patch_8">
    <path clip-path="url(#p6753c9f2a5)" d="M 229.391646 320.4 
L 251.327764 320.4 
L 251.327764 56.4 
L 229.391646 56.4 
z
" style="fill:#1f77b4;"/>
   </g>
   <g id="patch_9">
    <path clip-path="url(#p6753c9f2a5)" d="M 256.811794 320.4 
L 278.747912 320.4 
L 278.747912 140.4 
L 256.811794 140.4 
z
" style="fill:#1f77b4;"/>
   </g>
   <g id="patch_10">
    <path clip-path="url(#p6753c9f2a5)" d="M 284.231941 320.4 
L 306.168059 320.4 
L 306.168059 194.4 
L 284.231941 194.4 
z
" style="fill:#1f77b4;"/>
   </g>
   <g id="patch_11">
    <path clip-path="url(#p6753c9f2a5)" d="M 311.652088 320.4 
L 333.588206 320.4 
L 333.588206 194.4 
L 311.652088 194.4 
z
" style="fill:#1f77b4;"/>
   </g>
   <g id="patch_12">
    <path clip-path="url(#p6753c9f2a5)" d="M 339.072236 320.4 
L 361.008354 320.4 
L 361.008354 206.4 
L 339.072236 206.4 
z
" style="fill:#1f77b4;"/>
   </g>
   <g id="patch_13">
    <path clip-path="url(#p6753c9f2a5)" d="M 366.492383 320.4 
L 388.428501 320.4 
L 388.428501 218.4 
L 366.492383 218.4 
z
" style="fill:#1f77b4;"/>
   </g>
   <g id="patch_14">
    <path clip-path="url(#p6753c9f2a5)" d="M 393.912531 320.4 
L 415.848649 320.4 
L 415.848649 290.4 
L 393.912531 290.4 
z
" style="fill:#1f77b4;"/>
   </g>
   <g id="patch_15">
    <path clip-path="url(#p6753c9f2a5)" d="M 421.332678 320.4 
L 443.268796 320.4 
L 443.268796 296.4 
L 421.332678 296.4 
z
" style="fill:#1f77b4;"/>
   </g>
   <g id="patch_16">
    <path clip-path="url(#p6753c9f2a5)" d="M 448.752826 320.4 
L 470.688943 320.4 
L 470.688943 308.4 
L 448.752826 308.4 
z
" style="fill:#1f77b4;"/>
   </g>
   <g id="patch_17">
    <path clip-path="url(#p6753c9f2a5)" d="M 476.172973 320.4 
L 498.109091 320.4 
L 498.109091 314.4 
L 476.172973 314.4 
z
" style="fill:#1f77b4;"/>
   </g>
   <g id="matplotlib.axis_1">
    <g id="xtick_1">
     <g id="line2d_1">
      <defs>
       <path d="M 0 0 
L 0 3.5 
" id="m21341d229c" style="stroke:#000000;stroke-width:0.8;"/>
      </defs>
      <g>
       <use style="stroke:#000000;stroke-width:0.8;" x="103.258968" xlink:href="#m21341d229c" y="320.4"/>
      </g>
     </g>
     <g id="text_1">
      <!-- 8.3 -->
      <g transform="translate(95.758968 334.275)scale(0.1 -0.1)">
       <defs>
        <path d="M 2.734375 16.796875 
Q 2.734375 26.171875 5.078125 30.65625 
Q 7.421875 35.15625 12.890625 37.890625 
Q 8.203125 40.625 6.640625 43.9375 
Q 5.078125 47.265625 4.875 51.5625 
Q 4.6875 55.859375 6.046875 58.984375 
Q 7.421875 62.109375 10.15625 64.84375 
Q 12.890625 67.578125 16.203125 68.546875 
Q 19.53125 69.53125 23.4375 69.53125 
Q 27.34375 69.53125 30.46875 68.75 
Q 33.59375 67.96875 37.109375 65.421875 
Q 40.625 62.890625 42.1875 58.203125 
Q 43.75 53.515625 41.984375 47.265625 
Q 40.234375 41.015625 32.8125 37.5 
Q 39.453125 35.546875 42.1875 31.4375 
Q 44.921875 27.34375 44.921875 21.484375 
Q 44.921875 15.625 43.15625 12.109375 
Q 41.40625 8.59375 39.25 6.25 
Q 37.109375 3.90625 33.390625 2.53125 
Q 29.6875 1.171875 24.015625 1.171875 
Q 18.359375 1.171875 14.25 2.53125 
Q 10.15625 3.90625 7.421875 6.640625 
Q 4.6875 9.375 3.703125 13.078125 
Q 2.734375 16.796875 2.734375 26.171875 
z
M 10.9375 26.5625 
Q 10.546875 17.1875 12.296875 13.671875 
Q 14.0625 10.15625 18.75 9.171875 
Q 23.4375 8.203125 28.515625 9.375 
Q 33.59375 10.546875 35.546875 14.84375 
Q 37.5 19.140625 36.90625 23.4375 
Q 36.328125 27.734375 32.03125 30.65625 
Q 27.734375 33.59375 22.65625 33.203125 
Q 17.578125 32.8125 14.25 29.6875 
Q 10.9375 26.5625 10.546875 17.1875 
z
M 12.109375 56.25 
Q 12.109375 48.4375 14.84375 44.921875 
Q 17.578125 41.40625 23.4375 41.40625 
Q 29.296875 41.40625 32.21875 44.921875 
Q 35.15625 48.4375 34.953125 53.3125 
Q 34.765625 58.203125 31.4375 60.546875 
Q 28.125 62.890625 22.453125 62.5 
Q 16.796875 62.109375 14.453125 59.171875 
Q 12.109375 56.25 12.109375 48.4375 
z
" id="SimHei-56"/>
        <path d="M 16.796875 1.953125 
L 7.8125 1.953125 
L 7.8125 10.546875 
L 16.796875 10.546875 
z
" id="SimHei-46"/>
        <path d="M 3.90625 19.140625 
L 10.9375 20.3125 
Q 12.5 15.234375 16.015625 11.90625 
Q 19.53125 8.59375 24.796875 8.78125 
Q 30.078125 8.984375 33.203125 13.078125 
Q 36.328125 17.1875 35.9375 22.453125 
Q 35.546875 27.734375 31.828125 30.65625 
Q 28.125 33.59375 19.921875 34.765625 
L 19.921875 39.84375 
Q 28.125 40.625 31.828125 44.140625 
Q 35.546875 47.65625 35.15625 53.3125 
Q 34.765625 58.984375 30.078125 61.515625 
Q 25.390625 64.0625 20.109375 62.109375 
Q 14.84375 60.15625 11.71875 51.171875 
L 4.6875 52.34375 
Q 7.03125 59.375 11.125 64.0625 
Q 15.234375 68.75 22.265625 69.53125 
Q 29.296875 70.3125 34.5625 67.765625 
Q 39.84375 65.234375 41.984375 59.953125 
Q 44.140625 54.6875 42.578125 48.4375 
Q 41.015625 42.1875 33.59375 37.5 
Q 39.0625 35.15625 41.984375 30.46875 
Q 44.921875 25.78125 43.9375 18.15625 
Q 42.96875 10.546875 37.109375 5.859375 
Q 31.25 1.171875 23.828125 1.359375 
Q 16.40625 1.5625 10.9375 6.046875 
Q 5.46875 10.546875 3.90625 19.140625 
z
" id="SimHei-51"/>
       </defs>
       <use xlink:href="#SimHei-56"/>
       <use x="50" xlink:href="#SimHei-46"/>
       <use x="100" xlink:href="#SimHei-51"/>
      </g>
     </g>
    </g>
    <g id="xtick_2">
     <g id="line2d_2">
      <g>
       <use style="stroke:#000000;stroke-width:0.8;" x="130.679115" xlink:href="#m21341d229c" y="320.4"/>
      </g>
     </g>
     <g id="text_2">
      <!-- 8.4 -->
      <g transform="translate(123.179115 334.275)scale(0.1 -0.1)">
       <defs>
        <path d="M 31.25 17.1875 
L 1.171875 17.1875 
L 1.171875 23.828125 
L 32.8125 69.53125 
L 38.671875 69.53125 
L 38.671875 23.828125 
L 48.046875 23.828125 
L 48.046875 17.1875 
L 38.671875 17.1875 
L 38.671875 2.34375 
L 31.25 2.34375 
z
M 31.25 23.828125 
L 31.25 54.6875 
L 9.375 23.828125 
z
" id="SimHei-52"/>
       </defs>
       <use xlink:href="#SimHei-56"/>
       <use x="50" xlink:href="#SimHei-46"/>
       <use x="100" xlink:href="#SimHei-52"/>
      </g>
     </g>
    </g>
    <g id="xtick_3">
     <g id="line2d_3">
      <g>
       <use style="stroke:#000000;stroke-width:0.8;" x="158.099263" xlink:href="#m21341d229c" y="320.4"/>
      </g>
     </g>
     <g id="text_3">
      <!-- 8.5 -->
      <g transform="translate(150.599263 334.275)scale(0.1 -0.1)">
       <defs>
        <path d="M 8.59375 20.703125 
Q 11.328125 10.15625 17.96875 8.984375 
Q 24.609375 7.8125 28.703125 10.34375 
Q 32.8125 12.890625 34.5625 16.984375 
Q 36.328125 21.09375 36.125 26.171875 
Q 35.9375 31.25 33.390625 34.765625 
Q 30.859375 38.28125 26.953125 39.453125 
Q 23.046875 40.625 18.15625 39.453125 
Q 13.28125 38.28125 10.15625 33.984375 
L 3.515625 34.765625 
Q 4.296875 37.109375 10.9375 68.359375 
L 41.796875 68.359375 
L 41.796875 61.328125 
L 16.796875 61.328125 
Q 14.84375 50.78125 12.890625 44.53125 
Q 18.75 47.265625 23.828125 47.0625 
Q 28.90625 46.875 33.59375 44.71875 
Q 38.28125 42.578125 40.421875 38.859375 
Q 42.578125 35.15625 43.546875 31.4375 
Q 44.53125 27.734375 44.328125 23.4375 
Q 44.140625 19.140625 42.578125 14.640625 
Q 41.015625 10.15625 37.890625 7.21875 
Q 34.765625 4.296875 30.265625 2.53125 
Q 25.78125 0.78125 19.921875 1.171875 
Q 14.0625 1.5625 8.78125 5.46875 
Q 3.515625 9.375 1.5625 18.75 
z
" id="SimHei-53"/>
       </defs>
       <use xlink:href="#SimHei-56"/>
       <use x="50" xlink:href="#SimHei-46"/>
       <use x="100" xlink:href="#SimHei-53"/>
      </g>
     </g>
    </g>
    <g id="xtick_4">
     <g id="line2d_4">
      <g>
       <use style="stroke:#000000;stroke-width:0.8;" x="185.51941" xlink:href="#m21341d229c" y="320.4"/>
      </g>
     </g>
     <g id="text_4">
      <!-- 8.6 -->
      <g transform="translate(178.01941 334.275)scale(0.1 -0.1)">
       <defs>
        <path d="M 3.515625 19.53125 
Q 4.296875 30.859375 6.046875 34.765625 
Q 7.8125 38.671875 11.328125 44.53125 
L 27.34375 69.53125 
L 36.328125 69.53125 
L 19.921875 43.75 
Q 30.46875 46.484375 36.71875 42.96875 
Q 42.96875 39.453125 45.109375 34.953125 
Q 47.265625 30.46875 47.453125 25.1875 
Q 47.65625 19.921875 45.890625 14.84375 
Q 44.140625 9.765625 39.640625 5.65625 
Q 35.15625 1.5625 27.140625 1.171875 
Q 19.140625 0.78125 13.46875 4.09375 
Q 7.8125 7.421875 5.65625 13.46875 
Q 3.515625 19.53125 4.296875 30.859375 
z
M 12.5 16.015625 
Q 19.53125 8.59375 25.390625 8.203125 
Q 31.25 7.8125 35.15625 12.109375 
Q 39.0625 16.40625 39.0625 24.609375 
Q 39.0625 32.8125 34.171875 35.9375 
Q 29.296875 39.0625 23.234375 38.28125 
Q 17.1875 37.5 14.453125 32.421875 
Q 11.71875 27.34375 12.109375 21.671875 
Q 12.5 16.015625 19.53125 8.59375 
z
" id="SimHei-54"/>
       </defs>
       <use xlink:href="#SimHei-56"/>
       <use x="50" xlink:href="#SimHei-46"/>
       <use x="100" xlink:href="#SimHei-54"/>
      </g>
     </g>
    </g>
    <g id="xtick_5">
     <g id="line2d_5">
      <g>
       <use style="stroke:#000000;stroke-width:0.8;" x="212.939558" xlink:href="#m21341d229c" y="320.4"/>
      </g>
     </g>
     <g id="text_5">
      <!-- 8.7 -->
      <g transform="translate(205.439558 334.275)scale(0.1 -0.1)">
       <defs>
        <path d="M 13.28125 2.34375 
Q 20.3125 32.03125 37.890625 61.328125 
L 4.296875 61.328125 
L 4.296875 68.359375 
L 46.09375 68.359375 
L 46.09375 61.71875 
Q 27.734375 32.03125 21.875 2.34375 
L 13.28125 2.34375 
z
" id="SimHei-55"/>
       </defs>
       <use xlink:href="#SimHei-56"/>
       <use x="50" xlink:href="#SimHei-46"/>
       <use x="100" xlink:href="#SimHei-55"/>
      </g>
     </g>
    </g>
    <g id="xtick_6">
     <g id="line2d_6">
      <g>
       <use style="stroke:#000000;stroke-width:0.8;" x="240.359705" xlink:href="#m21341d229c" y="320.4"/>
      </g>
     </g>
     <g id="text_6">
      <!-- 8.8 -->
      <g transform="translate(232.859705 334.275)scale(0.1 -0.1)">
       <use xlink:href="#SimHei-56"/>
       <use x="50" xlink:href="#SimHei-46"/>
       <use x="100" xlink:href="#SimHei-56"/>
      </g>
     </g>
    </g>
    <g id="xtick_7">
     <g id="line2d_7">
      <g>
       <use style="stroke:#000000;stroke-width:0.8;" x="267.779853" xlink:href="#m21341d229c" y="320.4"/>
      </g>
     </g>
     <g id="text_7">
      <!-- 8.9 -->
      <g transform="translate(260.279853 334.275)scale(0.1 -0.1)">
       <defs>
        <path d="M 12.5 1.171875 
Q 21.09375 15.625 26.5625 27.34375 
Q 16.796875 25.78125 10.34375 29.875 
Q 3.90625 33.984375 2.53125 41.015625 
Q 1.171875 48.046875 2.734375 53.703125 
Q 4.296875 59.375 7.609375 63.078125 
Q 10.9375 66.796875 15.625 68.359375 
Q 20.3125 69.921875 24.015625 69.921875 
Q 27.734375 69.921875 31.640625 68.359375 
Q 35.546875 66.796875 38.671875 63.671875 
Q 41.796875 60.546875 42.96875 57.21875 
Q 44.140625 53.90625 44.140625 48.625 
Q 44.140625 43.359375 40.234375 35.15625 
Q 36.328125 26.953125 21.09375 1.171875 
z
M 9.765625 50 
Q 10.9375 39.84375 14.640625 36.515625 
Q 18.359375 33.203125 22.65625 33.59375 
Q 26.953125 33.984375 29.484375 35.9375 
Q 32.03125 37.890625 34.375 42.578125 
Q 35.9375 48.4375 35.15625 52.53125 
Q 34.375 56.640625 31.046875 59.375 
Q 27.734375 62.109375 23.828125 62.109375 
Q 21.484375 62.5 17.765625 60.9375 
Q 14.0625 59.375 11.90625 54.6875 
Q 9.765625 50 10.9375 39.84375 
z
" id="SimHei-57"/>
       </defs>
       <use xlink:href="#SimHei-56"/>
       <use x="50" xlink:href="#SimHei-46"/>
       <use x="100" xlink:href="#SimHei-57"/>
      </g>
     </g>
    </g>
    <g id="xtick_8">
     <g id="line2d_8">
      <g>
       <use style="stroke:#000000;stroke-width:0.8;" x="295.2" xlink:href="#m21341d229c" y="320.4"/>
      </g>
     </g>
     <g id="text_8">
      <!-- 9.0 -->
      <g transform="translate(287.7 334.275)scale(0.1 -0.1)">
       <defs>
        <path d="M 3.125 29.296875 
Q 3.90625 50 6.4375 56.046875 
Q 8.984375 62.109375 13.671875 66.015625 
Q 18.359375 69.921875 25.1875 69.921875 
Q 32.03125 69.921875 37.109375 64.25 
Q 42.1875 58.59375 43.75 50 
Q 45.3125 41.40625 44.71875 30.265625 
Q 44.140625 19.140625 40.8125 12.109375 
Q 37.5 5.078125 30.859375 2.34375 
Q 24.21875 -0.390625 17.578125 2.921875 
Q 10.9375 6.25 8.203125 11.71875 
Q 5.46875 17.1875 4.296875 23.234375 
Q 3.125 29.296875 3.90625 50 
z
M 12.890625 52.734375 
Q 10.546875 31.25 12.5 22.84375 
Q 14.453125 14.453125 18.9375 10.9375 
Q 23.4375 7.421875 28.125 9.5625 
Q 32.8125 11.71875 34.953125 18.15625 
Q 37.109375 24.609375 37.109375 32.21875 
Q 37.109375 39.84375 36.515625 46.09375 
Q 35.9375 52.34375 33 57.421875 
Q 30.078125 62.5 25.1875 62.6875 
Q 20.3125 62.890625 16.59375 57.8125 
Q 12.890625 52.734375 10.546875 31.25 
z
" id="SimHei-48"/>
       </defs>
       <use xlink:href="#SimHei-57"/>
       <use x="50" xlink:href="#SimHei-46"/>
       <use x="100" xlink:href="#SimHei-48"/>
      </g>
     </g>
    </g>
    <g id="xtick_9">
     <g id="line2d_9">
      <g>
       <use style="stroke:#000000;stroke-width:0.8;" x="322.620147" xlink:href="#m21341d229c" y="320.4"/>
      </g>
     </g>
     <g id="text_9">
      <!-- 9.1 -->
      <g transform="translate(315.120147 334.275)scale(0.1 -0.1)">
       <defs>
        <path d="M 21.875 56.25 
Q 16.796875 51.171875 8.984375 46.484375 
L 8.984375 53.90625 
Q 18.75 60.546875 25 69.53125 
L 29.6875 69.53125 
L 29.6875 2.34375 
L 21.875 2.34375 
z
" id="SimHei-49"/>
       </defs>
       <use xlink:href="#SimHei-57"/>
       <use x="50" xlink:href="#SimHei-46"/>
       <use x="100" xlink:href="#SimHei-49"/>
      </g>
     </g>
    </g>
    <g id="xtick_10">
     <g id="line2d_10">
      <g>
       <use style="stroke:#000000;stroke-width:0.8;" x="350.040295" xlink:href="#m21341d229c" y="320.4"/>
      </g>
     </g>
     <g id="text_10">
      <!-- 9.2 -->
      <g transform="translate(342.540295 334.275)scale(0.1 -0.1)">
       <defs>
        <path d="M 4.6875 3.90625 
Q 5.078125 9.765625 10.15625 14.453125 
Q 15.234375 19.140625 23.046875 29.09375 
Q 30.859375 39.0625 33.203125 44.53125 
Q 35.546875 50 34.953125 53.90625 
Q 34.375 57.8125 31.25 60.34375 
Q 28.125 62.890625 24.015625 62.5 
Q 19.921875 62.109375 16.203125 59.375 
Q 12.5 56.640625 10.546875 51.171875 
L 3.125 52.34375 
Q 6.25 61.328125 11.125 65.421875 
Q 16.015625 69.53125 22.65625 69.921875 
Q 26.5625 70.3125 29.6875 69.71875 
Q 32.8125 69.140625 36.125 66.984375 
Q 39.453125 64.84375 41.59375 60.546875 
Q 43.75 56.25 43.15625 50.1875 
Q 42.578125 44.140625 37.109375 35.734375 
Q 31.640625 27.34375 16.015625 9.375 
L 44.140625 9.375 
L 44.140625 2.34375 
L 4.6875 2.34375 
z
" id="SimHei-50"/>
       </defs>
       <use xlink:href="#SimHei-57"/>
       <use x="50" xlink:href="#SimHei-46"/>
       <use x="100" xlink:href="#SimHei-50"/>
      </g>
     </g>
    </g>
    <g id="xtick_11">
     <g id="line2d_11">
      <g>
       <use style="stroke:#000000;stroke-width:0.8;" x="377.460442" xlink:href="#m21341d229c" y="320.4"/>
      </g>
     </g>
     <g id="text_11">
      <!-- 9.3 -->
      <g transform="translate(369.960442 334.275)scale(0.1 -0.1)">
       <use xlink:href="#SimHei-57"/>
       <use x="50" xlink:href="#SimHei-46"/>
       <use x="100" xlink:href="#SimHei-51"/>
      </g>
     </g>
    </g>
    <g id="xtick_12">
     <g id="line2d_12">
      <g>
       <use style="stroke:#000000;stroke-width:0.8;" x="404.88059" xlink:href="#m21341d229c" y="320.4"/>
      </g>
     </g>
     <g id="text_12">
      <!-- 9.4 -->
      <g transform="translate(397.38059 334.275)scale(0.1 -0.1)">
       <use xlink:href="#SimHei-57"/>
       <use x="50" xlink:href="#SimHei-46"/>
       <use x="100" xlink:href="#SimHei-52"/>
      </g>
     </g>
    </g>
    <g id="xtick_13">
     <g id="line2d_13">
      <g>
       <use style="stroke:#000000;stroke-width:0.8;" x="432.300737" xlink:href="#m21341d229c" y="320.4"/>
      </g>
     </g>
     <g id="text_13">
      <!-- 9.5 -->
      <g transform="translate(424.800737 334.275)scale(0.1 -0.1)">
       <use xlink:href="#SimHei-57"/>
       <use x="50" xlink:href="#SimHei-46"/>
       <use x="100" xlink:href="#SimHei-53"/>
      </g>
     </g>
    </g>
    <g id="xtick_14">
     <g id="line2d_14">
      <g>
       <use style="stroke:#000000;stroke-width:0.8;" x="459.720885" xlink:href="#m21341d229c" y="320.4"/>
      </g>
     </g>
     <g id="text_14">
      <!-- 9.6 -->
      <g transform="translate(452.220885 334.275)scale(0.1 -0.1)">
       <use xlink:href="#SimHei-57"/>
       <use x="50" xlink:href="#SimHei-46"/>
       <use x="100" xlink:href="#SimHei-54"/>
      </g>
     </g>
    </g>
    <g id="xtick_15">
     <g id="line2d_15">
      <g>
       <use style="stroke:#000000;stroke-width:0.8;" x="487.141032" xlink:href="#m21341d229c" y="320.4"/>
      </g>
     </g>
     <g id="text_15">
      <!-- 9.7 -->
      <g transform="translate(479.641032 334.275)scale(0.1 -0.1)">
       <use xlink:href="#SimHei-57"/>
       <use x="50" xlink:href="#SimHei-46"/>
       <use x="100" xlink:href="#SimHei-55"/>
      </g>
     </g>
    </g>
    <g id="text_16">
     <!-- 评分 -->
     <g transform="translate(285.2 347.49375)scale(0.1 -0.1)">
      <defs>
       <path d="M 92.1875 70.3125 
Q 84.375 70.703125 69.140625 70.703125 
L 69.140625 33.203125 
L 81.25 33.203125 
Q 89.84375 33.203125 96.484375 33.59375 
L 96.484375 26.171875 
Q 90.234375 26.5625 81.25 26.5625 
L 69.140625 26.5625 
L 69.140625 3.125 
Q 69.140625 -4.6875 69.53125 -10.546875 
L 60.9375 -10.546875 
Q 61.328125 -3.125 61.328125 3.125 
L 61.328125 26.5625 
L 48.046875 26.5625 
Q 41.015625 26.5625 34.765625 26.171875 
L 34.765625 33.59375 
Q 41.015625 33.203125 48.046875 33.203125 
L 61.328125 33.203125 
L 61.328125 70.703125 
Q 44.53125 70.703125 37.890625 70.3125 
L 37.890625 77.734375 
Q 44.53125 77.34375 51.5625 77.34375 
L 77.34375 77.34375 
Q 84.375 77.34375 92.1875 77.734375 
z
M 13.671875 3.515625 
Q 17.96875 6.25 17.96875 10.15625 
L 17.96875 44.921875 
Q 7.421875 44.921875 3.515625 44.53125 
L 3.515625 52.34375 
Q 7.421875 51.953125 12.890625 51.953125 
L 25.78125 51.953125 
Q 25.390625 44.140625 25.390625 36.328125 
L 25.390625 11.328125 
Q 29.6875 15.234375 35.546875 21.484375 
Q 37.109375 19.140625 39.84375 14.84375 
Q 32.8125 8.59375 28.3125 4.6875 
Q 23.828125 0.78125 19.53125 -3.90625 
Q 17.1875 0.390625 13.671875 3.515625 
z
M 75.390625 41.015625 
Q 81.25 53.515625 83.984375 63.28125 
Q 88.28125 62.109375 93.359375 60.15625 
Q 92.578125 59.375 89.0625 51.953125 
Q 85.546875 44.53125 82.8125 38.28125 
Q 78.90625 40.234375 75.390625 41.015625 
z
M 44.53125 62.5 
Q 51.171875 49.609375 53.90625 42.1875 
Q 49.21875 40.625 46.09375 38.671875 
Q 42.1875 51.5625 37.5 59.375 
Q 41.40625 60.546875 44.53125 62.5 
z
M 17.1875 81.640625 
Q 21.875 77.734375 30.859375 66.796875 
Q 27.34375 64.453125 24.609375 61.71875 
Q 20.3125 67.96875 11.71875 76.5625 
Q 14.0625 78.515625 17.1875 81.640625 
z
" id="SimHei-35780"/>
       <path d="M 15.625 -10.15625 
Q 12.890625 -5.859375 8.984375 -3.515625 
Q 15.234375 -1.171875 20.3125 2.140625 
Q 25.390625 5.46875 29.296875 10.34375 
Q 33.203125 15.234375 35.15625 21.09375 
Q 37.109375 26.953125 37.890625 35.546875 
Q 28.90625 35.546875 23.4375 35.15625 
L 23.4375 43.359375 
Q 29.6875 42.96875 39.453125 42.96875 
L 78.515625 42.96875 
Q 77.734375 37.109375 77.34375 32.8125 
L 74.21875 3.90625 
Q 73.4375 -3.125 67.96875 -5.46875 
Q 62.5 -7.8125 55.859375 -8.203125 
Q 55.46875 -4.296875 51.953125 0.78125 
Q 60.15625 0.390625 63.078125 1.359375 
Q 66.015625 2.34375 66.796875 8.203125 
L 69.53125 35.546875 
L 46.09375 35.546875 
Q 44.921875 25.390625 42.765625 18.546875 
Q 40.625 11.71875 36.71875 6.640625 
Q 32.8125 1.5625 27.34375 -2.734375 
Q 21.875 -7.03125 15.625 -10.15625 
z
M 61.71875 80.859375 
Q 64.453125 72.65625 72.84375 62.109375 
Q 81.25 51.5625 96.484375 43.75 
Q 93.359375 41.015625 90.234375 35.546875 
Q 83.203125 40.625 77.921875 45.109375 
Q 72.65625 49.609375 69.140625 53.515625 
Q 65.625 57.421875 61.328125 64.640625 
Q 57.03125 71.875 54.296875 78.125 
Q 58.59375 79.296875 61.71875 80.859375 
z
M 42.1875 75.390625 
Q 38.671875 69.140625 36.328125 64.453125 
Q 33.984375 59.765625 31.640625 56.046875 
Q 29.296875 52.34375 24.609375 46.09375 
Q 19.921875 39.84375 13.28125 33.203125 
Q 9.765625 36.71875 6.25 38.671875 
Q 14.0625 45.703125 18.546875 51.5625 
Q 23.046875 57.421875 27.140625 64.25 
Q 31.25 71.09375 34.375 79.296875 
Q 37.5 76.953125 42.1875 75.390625 
z
" id="SimHei-20998"/>
      </defs>
      <use xlink:href="#SimHei-35780"/>
      <use x="100" xlink:href="#SimHei-20998"/>
     </g>
    </g>
   </g>
   <g id="matplotlib.axis_2">
    <g id="ytick_1">
     <g id="line2d_16">
      <defs>
       <path d="M 0 0 
L -3.5 0 
" id="mbcd12d5e83" style="stroke:#000000;stroke-width:0.8;"/>
      </defs>
      <g>
       <use style="stroke:#000000;stroke-width:0.8;" x="72" xlink:href="#mbcd12d5e83" y="320.4"/>
      </g>
     </g>
     <g id="text_17">
      <!-- 0 -->
      <g transform="translate(60 323.8375)scale(0.1 -0.1)">
       <use xlink:href="#SimHei-48"/>
      </g>
     </g>
    </g>
    <g id="ytick_2">
     <g id="line2d_17">
      <g>
       <use style="stroke:#000000;stroke-width:0.8;" x="72" xlink:href="#mbcd12d5e83" y="260.4"/>
      </g>
     </g>
     <g id="text_18">
      <!-- 10 -->
      <g transform="translate(55 263.8375)scale(0.1 -0.1)">
       <use xlink:href="#SimHei-49"/>
       <use x="50" xlink:href="#SimHei-48"/>
      </g>
     </g>
    </g>
    <g id="ytick_3">
     <g id="line2d_18">
      <g>
       <use style="stroke:#000000;stroke-width:0.8;" x="72" xlink:href="#mbcd12d5e83" y="200.4"/>
      </g>
     </g>
     <g id="text_19">
      <!-- 20 -->
      <g transform="translate(55 203.8375)scale(0.1 -0.1)">
       <use xlink:href="#SimHei-50"/>
       <use x="50" xlink:href="#SimHei-48"/>
      </g>
     </g>
    </g>
    <g id="ytick_4">
     <g id="line2d_19">
      <g>
       <use style="stroke:#000000;stroke-width:0.8;" x="72" xlink:href="#mbcd12d5e83" y="140.4"/>
      </g>
     </g>
     <g id="text_20">
      <!-- 30 -->
      <g transform="translate(55 143.8375)scale(0.1 -0.1)">
       <use xlink:href="#SimHei-51"/>
       <use x="50" xlink:href="#SimHei-48"/>
      </g>
     </g>
    </g>
    <g id="ytick_5">
     <g id="line2d_20">
      <g>
       <use style="stroke:#000000;stroke-width:0.8;" x="72" xlink:href="#mbcd12d5e83" y="80.4"/>
      </g>
     </g>
     <g id="text_21">
      <!-- 40 -->
      <g transform="translate(55 83.8375)scale(0.1 -0.1)">
       <use xlink:href="#SimHei-52"/>
       <use x="50" xlink:href="#SimHei-48"/>
      </g>
     </g>
    </g>
    <g id="text_22">
     <!-- 电影数量 -->
     <g transform="translate(49.75 201.8)rotate(-90)scale(0.1 -0.1)">
      <defs>
       <path d="M 96.09375 5.078125 
Q 93.359375 -3.90625 91.015625 -6.4375 
Q 88.671875 -8.984375 83.203125 -8.984375 
L 52.734375 -8.984375 
Q 42.1875 -9.375 41.796875 1.5625 
L 41.796875 15.234375 
L 19.140625 15.234375 
L 19.140625 7.8125 
L 10.15625 7.8125 
Q 10.546875 11.71875 10.546875 34.765625 
Q 10.546875 57.8125 10.15625 64.84375 
L 41.796875 64.84375 
Q 41.796875 75.390625 41.40625 81.25 
L 50 81.25 
Q 49.609375 76.171875 49.609375 64.84375 
L 81.25 64.84375 
Q 80.859375 58.984375 80.859375 40.625 
Q 80.859375 22.65625 81.25 15.234375 
L 49.609375 15.234375 
L 49.609375 4.6875 
Q 49.609375 -2.34375 57.03125 -2.34375 
L 77.734375 -2.34375 
Q 83.984375 -2.34375 85.15625 0.390625 
Q 86.328125 3.125 87.109375 8.984375 
Q 91.015625 6.25 96.09375 5.078125 
z
M 73.046875 21.875 
L 73.046875 37.5 
L 49.609375 37.5 
L 49.609375 21.875 
z
M 41.796875 21.875 
L 41.796875 37.5 
L 19.140625 37.5 
L 19.140625 21.875 
z
M 73.046875 43.75 
L 73.046875 58.203125 
L 49.609375 58.203125 
L 49.609375 43.75 
z
M 41.796875 43.75 
L 41.796875 58.203125 
L 19.140625 58.203125 
L 19.140625 43.75 
z
" id="SimHei-30005"/>
       <path d="M 55.46875 78.515625 
Q 54.6875 72.265625 54.875 65.421875 
Q 55.078125 58.59375 55.46875 51.953125 
L 12.109375 51.953125 
Q 12.5 58.59375 12.296875 65.421875 
Q 12.109375 72.265625 12.109375 78.515625 
L 55.46875 78.515625 
z
M 22.65625 -1.5625 
Q 32.03125 -1.171875 30.859375 3.125 
L 30.859375 17.1875 
L 12.109375 17.1875 
Q 12.5 21.484375 12.296875 25.78125 
Q 12.109375 30.078125 12.109375 34.765625 
L 55.46875 34.765625 
Q 55.078125 30.078125 54.875 25.78125 
Q 54.6875 21.484375 55.46875 17.1875 
L 38.671875 17.1875 
L 38.671875 2.734375 
Q 39.0625 -3.90625 35.9375 -5.859375 
Q 32.8125 -7.8125 25.390625 -9.375 
Q 24.609375 -5.078125 22.65625 -1.5625 
z
M 37.109375 50.78125 
Q 37.5 48.046875 37.890625 44.921875 
L 49.609375 44.921875 
Q 56.25 44.921875 63.28125 45.3125 
L 63.28125 38.671875 
Q 56.25 39.0625 49.609375 39.0625 
L 18.75 39.0625 
Q 10.9375 39.0625 4.296875 38.671875 
L 4.296875 45.3125 
Q 10.9375 44.921875 18.75 44.921875 
L 29.6875 44.921875 
Q 29.296875 47.265625 28.90625 50 
Q 32.8125 50.78125 37.109375 50.78125 
z
M 96.09375 21.09375 
Q 88.671875 12.109375 78.125 3.515625 
Q 67.578125 -5.078125 58.203125 -10.15625 
Q 55.859375 -6.25 53.125 -3.90625 
Q 62.109375 0.390625 71.875 7.8125 
Q 81.640625 15.234375 90.234375 26.953125 
Q 92.96875 23.828125 96.09375 21.09375 
z
M 92.578125 48.828125 
Q 87.890625 44.53125 81.4375 36.90625 
Q 75 29.296875 65.625 22.265625 
Q 62.890625 25.390625 59.375 26.953125 
Q 68.359375 32.03125 74.796875 39.453125 
Q 81.25 46.875 86.328125 54.6875 
Q 88.671875 51.953125 92.578125 48.828125 
z
M 89.453125 75.390625 
Q 83.203125 71.09375 78.703125 65.03125 
Q 74.21875 58.984375 65.234375 51.171875 
Q 62.109375 53.90625 59.375 55.46875 
Q 65.234375 59.765625 71.09375 66.203125 
Q 76.953125 72.65625 81.640625 80.859375 
Q 84.765625 78.125 89.453125 75.390625 
z
M 48.046875 23.046875 
L 48.046875 28.90625 
L 19.53125 28.90625 
L 19.53125 23.046875 
z
M 48.046875 57.8125 
L 48.046875 62.5 
L 19.53125 62.5 
L 19.53125 57.8125 
z
M 48.046875 68.359375 
L 48.046875 73.046875 
L 19.53125 73.046875 
L 19.53125 68.359375 
z
M 23.4375 7.8125 
Q 16.796875 1.171875 8.984375 -5.078125 
Q 7.421875 -2.734375 4.296875 -0.390625 
Q 10.9375 3.90625 17.578125 12.890625 
Q 20.3125 9.765625 23.4375 7.8125 
z
M 50.78125 -0.78125 
Q 47.65625 4.296875 42.96875 8.59375 
Q 45.3125 10.9375 48.046875 13.28125 
Q 53.125 8.203125 56.25 3.90625 
L 50.78125 -0.78125 
z
" id="SimHei-24433"/>
       <path d="M 70.703125 76.953125 
Q 69.921875 75 68.75 71.671875 
Q 67.578125 68.359375 65.234375 59.765625 
L 83.203125 59.765625 
Q 87.109375 59.765625 92.578125 60.15625 
L 92.578125 53.125 
Q 88.28125 53.515625 85.9375 53.515625 
Q 85.9375 47.265625 83.78125 33.78125 
Q 81.640625 20.3125 76.171875 10.546875 
Q 80.078125 5.859375 84.953125 2.140625 
Q 89.84375 -1.5625 94.140625 -3.125 
Q 89.453125 -6.640625 87.890625 -9.765625 
Q 83.203125 -7.03125 79.296875 -3.515625 
Q 75.390625 0 71.484375 5.078125 
Q 67.1875 0.390625 62.296875 -2.921875 
Q 57.421875 -6.25 50 -10.15625 
Q 48.046875 -6.640625 44.53125 -4.6875 
Q 50.390625 -2.34375 57.03125 1.953125 
Q 63.671875 6.25 67.1875 10.546875 
Q 64.453125 16.015625 61.90625 22.265625 
Q 59.375 28.515625 57.421875 38.671875 
Q 56.25 35.546875 53.515625 30.46875 
Q 50.78125 32.03125 46.875 33.59375 
Q 53.125 44.53125 57.03125 57.421875 
Q 60.9375 70.3125 62.109375 79.6875 
Q 66.796875 77.734375 70.703125 76.953125 
z
M 32.8125 35.15625 
Q 31.25 33.59375 29.296875 30.078125 
L 50.78125 30.078125 
Q 48.4375 20.3125 42.578125 10.546875 
Q 48.828125 8.203125 52.34375 6.25 
Q 50.390625 3.515625 48.828125 0.390625 
Q 45.3125 2.734375 38.28125 5.078125 
Q 30.46875 -3.515625 11.328125 -10.15625 
Q 9.375 -5.859375 6.25 -4.296875 
Q 24.609375 0 31.25 7.421875 
Q 20.3125 10.15625 13.28125 12.109375 
Q 15.625 15.625 19.53125 23.828125 
Q 15.625 23.828125 6.640625 23.4375 
L 6.640625 30.46875 
Q 14.0625 30.078125 21.875 30.078125 
Q 23.4375 33.59375 24.21875 37.890625 
Q 28.515625 36.328125 32.8125 35.15625 
z
M 27.734375 61.71875 
Q 27.734375 71.09375 27.34375 79.6875 
L 35.15625 79.6875 
Q 34.765625 71.484375 34.765625 61.71875 
Q 48.046875 61.71875 53.515625 62.109375 
L 53.515625 55.078125 
Q 48.046875 55.46875 34.765625 55.46875 
Q 34.765625 44.140625 35.15625 37.890625 
L 27.34375 37.890625 
Q 27.734375 43.359375 27.734375 51.5625 
Q 25.78125 48.4375 20.3125 43.546875 
Q 14.84375 38.671875 10.15625 35.9375 
Q 8.203125 39.453125 4.296875 41.015625 
Q 7.8125 42.1875 13.671875 46.484375 
Q 19.53125 50.78125 22.65625 55.46875 
Q 14.84375 55.46875 7.8125 55.078125 
L 7.8125 62.109375 
Q 14.453125 61.71875 27.734375 61.71875 
z
M 62.109375 49.609375 
Q 65.625 26.5625 71.875 17.578125 
Q 75.78125 26.5625 77.140625 35.734375 
Q 78.515625 44.921875 78.90625 53.515625 
L 63.671875 53.515625 
L 62.109375 49.609375 
z
M 22.65625 15.625 
Q 27.34375 14.453125 35.546875 12.5 
Q 38.671875 16.40625 41.40625 23.828125 
L 26.953125 23.828125 
Q 25 19.921875 22.65625 15.625 
z
M 51.953125 75.390625 
Q 50 72.265625 48.828125 69.53125 
Q 47.65625 66.796875 45.703125 62.890625 
Q 42.578125 64.453125 39.453125 65.234375 
Q 42.578125 70.3125 45.3125 78.125 
Q 49.21875 76.171875 51.953125 75.390625 
z
M 40.234375 52.734375 
Q 45.3125 47.65625 50 42.578125 
Q 47.65625 40.625 44.921875 37.890625 
Q 39.453125 44.53125 35.9375 48.4375 
Q 38.28125 50.390625 40.234375 52.734375 
z
M 14.453125 78.125 
Q 19.921875 72.65625 23.4375 67.1875 
L 17.578125 63.671875 
Q 14.84375 69.140625 9.375 73.828125 
Q 12.890625 76.171875 14.453125 78.125 
z
" id="SimHei-25968"/>
       <path d="M 82.03125 39.0625 
Q 81.640625 34.375 81.640625 26.5625 
Q 81.640625 19.140625 82.03125 14.84375 
L 53.515625 14.84375 
L 53.515625 9.765625 
L 71.484375 9.765625 
Q 78.125 9.765625 83.984375 10.15625 
L 83.984375 4.296875 
Q 78.515625 4.6875 71.484375 4.6875 
L 53.515625 4.6875 
L 53.515625 -1.171875 
L 80.078125 -1.171875 
Q 86.328125 -1.171875 92.578125 -0.78125 
L 92.578125 -6.640625 
Q 86.328125 -6.25 80.078125 -6.25 
L 19.921875 -6.25 
Q 14.0625 -6.25 7.421875 -6.640625 
L 7.421875 -0.78125 
Q 14.453125 -0.78125 19.921875 -1.171875 
L 46.484375 -1.171875 
L 46.484375 4.6875 
L 26.953125 4.6875 
Q 21.09375 4.6875 15.234375 3.90625 
L 15.234375 10.15625 
Q 21.484375 9.765625 26.953125 9.765625 
L 46.484375 9.765625 
L 46.484375 14.84375 
L 17.96875 14.84375 
Q 18.359375 21.484375 18.359375 27.734375 
Q 18.359375 33.984375 17.96875 39.0625 
L 82.03125 39.0625 
z
M 81.25 77.34375 
Q 80.859375 71.484375 80.859375 66.40625 
Q 80.859375 61.328125 81.25 53.125 
L 18.75 53.125 
Q 19.140625 61.328125 19.140625 66.40625 
Q 19.140625 71.484375 18.75 77.34375 
L 81.25 77.34375 
z
M 76.5625 48.4375 
Q 85.9375 48.828125 93.75 49.21875 
L 93.75 42.96875 
Q 85.9375 43.359375 76.953125 43.359375 
L 25.78125 43.359375 
Q 15.234375 43.359375 5.078125 42.96875 
L 5.078125 49.21875 
Q 15.234375 48.828125 25.78125 48.4375 
z
M 73.828125 57.8125 
L 73.828125 62.890625 
L 26.171875 62.890625 
L 26.171875 57.8125 
z
M 73.828125 67.96875 
L 73.828125 72.65625 
L 26.171875 72.65625 
L 26.171875 67.96875 
z
M 74.21875 29.296875 
L 74.21875 33.984375 
L 53.515625 33.984375 
L 53.515625 29.296875 
z
M 46.484375 29.296875 
L 46.484375 33.984375 
L 25.78125 33.984375 
L 25.78125 29.296875 
z
M 46.484375 19.921875 
L 46.484375 24.21875 
L 25.78125 24.21875 
L 25.78125 19.921875 
z
M 74.21875 19.921875 
L 74.21875 24.21875 
L 53.515625 24.21875 
L 53.515625 19.921875 
z
" id="SimHei-37327"/>
      </defs>
      <use xlink:href="#SimHei-30005"/>
      <use x="100" xlink:href="#SimHei-24433"/>
      <use x="200" xlink:href="#SimHei-25968"/>
      <use x="300" xlink:href="#SimHei-37327"/>
     </g>
    </g>
   </g>
   <g id="patch_18">
    <path d="M 72 320.4 
L 72 43.2 
" style="fill:none;stroke:#000000;stroke-linecap:square;stroke-linejoin:miter;stroke-width:0.8;"/>
   </g>
   <g id="patch_19">
    <path d="M 518.4 320.4 
L 518.4 43.2 
" style="fill:none;stroke:#000000;stroke-linecap:square;stroke-linejoin:miter;stroke-width:0.8;"/>
   </g>
   <g id="patch_20">
    <path d="M 72 320.4 
L 518.4 320.4 
" style="fill:none;stroke:#000000;stroke-linecap:square;stroke-linejoin:miter;stroke-width:0.8;"/>
   </g>
   <g id="patch_21">
    <path d="M 72 43.2 
L 518.4 43.2 
" style="fill:none;stroke:#000000;stroke-linecap:square;stroke-linejoin:miter;stroke-width:0.8;"/>
   </g>
   <g id="text_23">
    <!-- 1 -->
    <g transform="translate(100.258968 312.9)scale(0.12 -0.12)">
     <use xlink:href="#SimHei-49"/>
    </g>
   </g>
   <g id="text_24">
    <!-- 3 -->
    <g transform="translate(127.679115 300.9)scale(0.12 -0.12)">
     <use xlink:href="#SimHei-51"/>
    </g>
   </g>
   <g id="text_25">
    <!-- 14 -->
    <g transform="translate(152.099263 234.9)scale(0.12 -0.12)">
     <use xlink:href="#SimHei-49"/>
     <use x="50" xlink:href="#SimHei-52"/>
    </g>
   </g>
   <g id="text_26">
    <!-- 28 -->
    <g transform="translate(179.51941 150.9)scale(0.12 -0.12)">
     <use xlink:href="#SimHei-50"/>
     <use x="50" xlink:href="#SimHei-56"/>
    </g>
   </g>
   <g id="text_27">
    <!-- 40 -->
    <g transform="translate(206.939558 78.9)scale(0.12 -0.12)">
     <use xlink:href="#SimHei-52"/>
     <use x="50" xlink:href="#SimHei-48"/>
    </g>
   </g>
   <g id="text_28">
    <!-- 44 -->
    <g transform="translate(234.359705 54.9)scale(0.12 -0.12)">
     <use xlink:href="#SimHei-52"/>
     <use x="50" xlink:href="#SimHei-52"/>
    </g>
   </g>
   <g id="text_29">
    <!-- 30 -->
    <g transform="translate(261.779853 138.9)scale(0.12 -0.12)">
     <use xlink:href="#SimHei-51"/>
     <use x="50" xlink:href="#SimHei-48"/>
    </g>
   </g>
   <g id="text_30">
    <!-- 21 -->
    <g transform="translate(289.2 192.9)scale(0.12 -0.12)">
     <use xlink:href="#SimHei-50"/>
     <use x="50" xlink:href="#SimHei-49"/>
    </g>
   </g>
   <g id="text_31">
    <!-- 21 -->
    <g transform="translate(316.620147 192.9)scale(0.12 -0.12)">
     <use xlink:href="#SimHei-50"/>
     <use x="50" xlink:href="#SimHei-49"/>
    </g>
   </g>
   <g id="text_32">
    <!-- 19 -->
    <g transform="translate(344.040295 204.9)scale(0.12 -0.12)">
     <use xlink:href="#SimHei-49"/>
     <use x="50" xlink:href="#SimHei-57"/>
    </g>
   </g>
   <g id="text_33">
    <!-- 17 -->
    <g transform="translate(371.460442 216.9)scale(0.12 -0.12)">
     <use xlink:href="#SimHei-49"/>
     <use x="50" xlink:href="#SimHei-55"/>
    </g>
   </g>
   <g id="text_34">
    <!-- 5 -->
    <g transform="translate(401.88059 288.9)scale(0.12 -0.12)">
     <use xlink:href="#SimHei-53"/>
    </g>
   </g>
   <g id="text_35">
    <!-- 4 -->
    <g transform="translate(429.300737 294.9)scale(0.12 -0.12)">
     <use xlink:href="#SimHei-52"/>
    </g>
   </g>
   <g id="text_36">
    <!-- 2 -->
    <g transform="translate(456.720885 306.9)scale(0.12 -0.12)">
     <use xlink:href="#SimHei-50"/>
    </g>
   </g>
   <g id="text_37">
    <!-- 1 -->
    <g transform="translate(484.141032 312.9)scale(0.12 -0.12)">
     <use xlink:href="#SimHei-49"/>
    </g>
   </g>
  </g>
 </g>
 <defs>
  <clipPath id="p6753c9f2a5">
   <rect height="277.2" width="446.4" x="72" y="43.2"/>
  </clipPath>
 </defs>
</svg>
